SplineFontDB: 3.2
FontName: FanCunei
FullName: FanCunei
FamilyName: FanCunei
Weight: Regular
Copyright: Copyright (c) fANhAN iNSiDE 2021
UComments: "2022-5-15: Created with FontForge (http://fontforge.org)"
Version: 001.000
ItalicAngle: 0
UnderlinePosition: -409
UnderlineWidth: 204
Ascent: 3277
Descent: 819
InvalidEm: 0
LayerCount: 2
Layer: 0 0 "Back" 1
Layer: 1 0 "Fore" 0
XUID: [1021 813 2138702201 17468]
StyleMap: 0x0000
FSType: 0
OS2Version: 0
OS2_WeightWidthSlopeOnly: 0
OS2_UseTypoMetrics: 1
CreationTime: 1652549774
ModificationTime: 1652574655
OS2TypoAscent: 0
OS2TypoAOffset: 1
OS2TypoDescent: 0
OS2TypoDOffset: 1
OS2TypoLinegap: 369
OS2WinAscent: 0
OS2WinAOffset: 1
OS2WinDescent: 0
OS2WinDOffset: 1
HheadAscent: 0
HheadAOffset: 1
HheadDescent: 0
HheadDOffset: 1
OS2Vendor: 'PfEd'
Lookup: 4 0 1 "'liga' Cuneiform" { "'liga' Cuneiform-Hira"  "'liga' Cuneiform-Kata"  } ['liga' ('DFLT' <'dflt' > 'hani' <'dflt' > 'kana' <'dflt' > 'latn' <'dflt' > ) ]
MarkAttachClasses: 1
DEI: 91125
Encoding: UnicodeFull
Compacted: 1
UnicodeInterp: none
NameList: AGL For New Fonts
DisplaySize: -48
AntiAlias: 1
FitToEm: 0
WinInfo: 0 29 12
BeginPrivate: 0
EndPrivate
BeginChars: 1114112 316

StartChar: xa.kata
Encoding: 12449 12449 0
Width: 2528
Flags: HW
LayerCount: 2
Fore
SplineSet
240 -307 m 1
 240 1741 l 1
 649.599609375 1741 l 1
 649.599609375 102.599609375 l 1
 1878.40039062 102.599609375 l 1
 1878.40039062 1741 l 1
 2288 1741 l 1
 2288 -307 l 1
 240 -307 l 1
EndSplineSet
Validated: 1
EndChar

StartChar: a.kata
Encoding: 12450 12450 1
Width: 3415
Flags: HW
LayerCount: 2
Fore
SplineSet
897.061523438 2766.99316406 m 0
 897.686523438 2766.99804688 898.513671875 2766.859375 899.139648438 2766.859375 c 0
 938.073242188 2766.859375 974.87890625 2757.67675781 1007.5078125 2741.36230469 c 0
 1087.20507812 2701.51367188 1141.60546875 2619.01757812 1141.60546875 2523.921875 c 0
 1141.60546875 2484.98925781 1132.42382812 2448.18359375 1116.109375 2415.55566406 c 0
 806.80078125 1796.9375 670.296875 1185.70117188 752.142578125 792.84375 c 0
 793.065429688 596.416015625 875.95703125 456.853515625 1018.97167969 352.842773438 c 0
 1161.98535156 248.833007812 1380.09277344 176.684570312 1708.37890625 176.684570312 c 0
 2036.66503906 176.684570312 2254.77246094 248.833007812 2397.78613281 352.842773438 c 0
 2540.80078125 456.853515625 2623.69238281 596.416015625 2664.61523438 792.84375 c 0
 2746.4609375 1185.70117188 2609.95703125 1796.9375 2300.6484375 2415.55566406 c 0
 2284.33398438 2448.18359375 2274.77441406 2485.08300781 2274.77441406 2524.01660156 c 0
 2274.77441406 2619.11132812 2329.55273438 2701.51367188 2409.25 2741.36230469 c 0
 2441.87890625 2757.67675781 2478.77832031 2767.23535156 2517.7109375 2767.23535156 c 0
 2612.80664062 2767.23535156 2695.20800781 2712.45703125 2735.05664062 2632.75976562 c 0
 3073.32617188 1956.22167969 3260.61230469 1272.29882812 3140.08984375 693.788085938 c 0
 3079.828125 404.532226562 2929.99609375 139.357421875 2683.45117188 -39.9482421875 c 0
 2436.90625 -219.252929688 2108.61816406 -309 1708.37890625 -309 c 0
 1308.13964844 -309 979.8515625 -219.252929688 733.306640625 -39.9482421875 c 0
 486.76171875 139.357421875 336.9296875 404.532226562 276.66796875 693.788085938 c 0
 156.145507812 1272.29882812 343.431640625 1956.22167969 681.701171875 2632.75976562 c 0
 721.286132812 2711.93261719 802.760742188 2766.27734375 897.061523438 2766.99316406 c 0
EndSplineSet
Validated: 33
EndChar

StartChar: xi.kata
Encoding: 12451 12451 2
Width: 2528
Flags: HW
LayerCount: 2
Fore
SplineSet
240 -307 m 1
 240 1741 l 1
 649.599609375 1741 l 1
 649.599609375 102.599609375 l 1
 1059.20019531 102.599609375 l 1
 1059.20019531 1741 l 1
 1468.79980469 1741 l 1
 1468.79980469 102.599609375 l 1
 1878.40039062 102.599609375 l 1
 1878.40039062 1741 l 1
 2288 1741 l 1
 2288 -307 l 1
 240 -307 l 1
EndSplineSet
Validated: 1
EndChar

StartChar: i.kata
Encoding: 12452 12452 3
Width: 3413
Flags: HW
LayerCount: 2
Fore
SplineSet
1949.60839844 1714.68457031 m 2
 1949.60839844 1848.71289062 1840.79492188 1957.52636719 1706.76660156 1957.52636719 c 0
 1572.73828125 1957.52636719 1463.92480469 1848.71289062 1463.92480469 1714.68457031 c 2
 1463.92480469 191.868164062 l 1
 1204.19433594 226.586914062 1015.18847656 319.057617188 895.135742188 469.123046875 c 0
 594.2734375 845.201171875 710.333007812 1607.1796875 1114.63867188 2415.79199219 c 0
 1130.953125 2448.41992188 1140.13476562 2485.22558594 1140.13476562 2524.15820312 c 0
 1140.13476562 2658.18652344 1031.32128906 2767 897.29296875 2767 c 0
 802.197265625 2767 719.794921875 2712.22167969 679.947265625 2632.52441406 c 0
 534.736328125 2342.10253906 240 1693.19140625 240 1052.85839844 c 0
 240 725.2109375 317.740234375 413.510742188 515.69921875 166.0625 c 0
 717.337890625 -85.986328125 1074.39355469 -309 1706.76660156 -309 c 0
 1967.04882812 -309 2321.6171875 -272.178710938 2622.16210938 -80.5791015625 c 0
 2937.01464844 120.141601562 3173.53320312 479.973632812 3173.53320312 1052.85839844 c 0
 3173.53320312 1272.36328125 3139.15722656 1501.41015625 3078.20605469 1736.07226562 c 0
 3002.02246094 2029.37890625 2883.90332031 2331.88964844 2733.5859375 2632.52441406 c 0
 2693.73828125 2712.22167969 2611.3359375 2767 2516.24023438 2767 c 0
 2382.21191406 2767 2273.3984375 2658.18652344 2273.3984375 2524.15820312 c 0
 2273.3984375 2485.22558594 2282.58007812 2448.41992188 2298.89453125 2415.79199219 c 0
 2455.89160156 2101.79785156 2687.84863281 1553.28417969 2687.84863281 1052.85839844 c 0
 2687.84863281 800.274414062 2627.43847656 605.424804688 2518.39746094 469.123046875 c 0
 2438.30566406 369.0078125 2283.06152344 236.44140625 1949.60839844 191.868164062 c 1
 1949.60839844 1714.68457031 l 2
EndSplineSet
Validated: 41
EndChar

StartChar: xu.kata
Encoding: 12453 12453 4
Width: 2528
Flags: HW
LayerCount: 2
Fore
SplineSet
2288 1741 m 1
 2288 -307 l 1
 1878.40039062 -307 l 1
 1878.40039062 1331.40039062 l 1
 649.599609375 1331.40039062 l 1
 649.599609375 -307 l 1
 240 -307 l 1
 240 1741 l 1
 2288 1741 l 1
EndSplineSet
Validated: 1
EndChar

StartChar: u.kata
Encoding: 12454 12454 5
Width: 3415
Flags: HW
LayerCount: 2
Fore
SplineSet
2519.69628906 -308.993164062 m 0
 2519.07128906 -308.997070312 2518.24414062 -308.858398438 2517.61816406 -308.858398438 c 0
 2478.68457031 -308.858398438 2441.87890625 -299.67578125 2409.25 -283.361328125 c 0
 2329.55371094 -243.512695312 2275.15234375 -161.016601562 2275.15234375 -65.9208984375 c 0
 2275.15234375 -26.98828125 2284.33398438 9.81640625 2300.6484375 42.4453125 c 0
 2609.95703125 661.0625 2746.4609375 1272.29980469 2664.61523438 1665.15722656 c 0
 2623.69335938 1861.58496094 2540.80078125 2001.14746094 2397.78613281 2105.15820312 c 0
 2254.77246094 2209.16796875 2036.66503906 2281.31640625 1708.37890625 2281.31640625 c 0
 1380.09277344 2281.31640625 1161.98535156 2209.16796875 1018.97167969 2105.15820312 c 0
 875.95703125 2001.14746094 793.065429688 1861.58496094 752.142578125 1665.15722656 c 0
 670.297851562 1272.29980469 806.80078125 661.0625 1116.11035156 42.4453125 c 0
 1132.42382812 9.81640625 1141.98339844 -27.0830078125 1141.98339844 -66.015625 c 0
 1141.98339844 -161.110351562 1087.20507812 -243.512695312 1007.5078125 -283.361328125 c 0
 974.87890625 -299.67578125 937.979492188 -309.235351562 899.046875 -309.235351562 c 0
 803.951171875 -309.235351562 721.549804688 -254.456054688 681.701171875 -174.759765625 c 0
 343.431640625 501.779296875 156.145507812 1185.70214844 276.66796875 1764.21289062 c 0
 336.9296875 2053.46777344 486.76171875 2318.64355469 733.306640625 2497.94824219 c 0
 979.8515625 2677.25390625 1308.13964844 2767.00097656 1708.37890625 2767.00097656 c 0
 2108.61816406 2767.00097656 2436.90722656 2677.25390625 2683.45117188 2497.94824219 c 0
 2929.99609375 2318.64355469 3079.828125 2053.46777344 3140.08984375 1764.21289062 c 0
 3260.61230469 1185.70214844 3073.32617188 501.779296875 2735.05664062 -174.759765625 c 0
 2695.47167969 -253.931640625 2613.99707031 -308.276367188 2519.69628906 -308.993164062 c 0
EndSplineSet
Validated: 33
EndChar

StartChar: xe.kata
Encoding: 12455 12455 6
Width: 2528
Flags: HW
LayerCount: 2
Fore
SplineSet
240 1741 m 1
 2288 1741 l 1
 2288 1331.40039062 l 1
 649.599609375 1331.40039062 l 1
 649.599609375 921.799804688 l 1
 2288 921.799804688 l 1
 2288 512.200195312 l 1
 649.599609375 512.200195312 l 1
 649.599609375 102.599609375 l 1
 2288 102.599609375 l 1
 2288 -307 l 1
 240 -307 l 1
 240 1741 l 1
EndSplineSet
Validated: 1
EndChar

StartChar: e.kata
Encoding: 12456 12456 7
Width: 3556
Flags: HW
LayerCount: 2
Fore
SplineSet
2263.68457031 986.158203125 m 2
 2397.71289062 986.158203125 2506.52636719 1094.97167969 2506.52636719 1229 c 0
 2506.52636719 1363.02832031 2397.71289062 1471.84179688 2263.68457031 1471.84179688 c 2
 740.868164062 1471.84179688 l 1
 775.586914062 1731.57226562 868.057617188 1920.578125 1018.12304688 2040.63085938 c 0
 1394.20117188 2341.49316406 2156.1796875 2225.43359375 2964.79199219 1821.12792969 c 0
 2997.41992188 1804.81347656 3034.22558594 1795.63183594 3073.15820312 1795.63183594 c 0
 3207.18652344 1795.63183594 3316 1904.4453125 3316 2038.47363281 c 0
 3316 2133.56933594 3261.22167969 2215.97167969 3181.52441406 2255.81933594 c 0
 2891.10253906 2401.03027344 2242.19140625 2695.76660156 1601.85839844 2695.76660156 c 0
 1274.2109375 2695.76660156 962.510742188 2618.02636719 715.0625 2420.06738281 c 0
 463.013671875 2218.42871094 240 1861.37304688 240 1229 c 0
 240 968.717773438 276.821289062 614.149414062 468.420898438 313.604492188 c 0
 669.141601562 -1.248046875 1028.97363281 -237.766601562 1601.85839844 -237.766601562 c 0
 1821.36328125 -237.766601562 2050.41015625 -203.390625 2285.07226562 -142.439453125 c 0
 2578.37890625 -66.255859375 2880.88964844 51.86328125 3181.52441406 202.180664062 c 0
 3261.22167969 242.028320312 3316 324.430664062 3316 419.526367188 c 0
 3316 553.5546875 3207.18652344 662.368164062 3073.15820312 662.368164062 c 0
 3034.22558594 662.368164062 2997.41992188 653.186523438 2964.79199219 636.872070312 c 0
 2650.79785156 479.875 2102.28417969 247.91796875 1601.85839844 247.91796875 c 0
 1349.27441406 247.91796875 1154.42480469 308.328125 1018.12304688 417.369140625 c 0
 918.0078125 497.4609375 785.44140625 652.705078125 740.868164062 986.158203125 c 1
 2263.68457031 986.158203125 l 2
EndSplineSet
Validated: 41
EndChar

StartChar: xo.kata
Encoding: 12457 12457 8
Width: 2528
Flags: HW
LayerCount: 2
Fore
SplineSet
240 1741 m 1
 2288 1741 l 1
 2288 1331.40039062 l 1
 649.599609375 1331.40039062 l 1
 649.599609375 102.599609375 l 1
 2288 102.599609375 l 1
 2288 -307 l 1
 240 -307 l 1
 240 1741 l 1
EndSplineSet
Validated: 1
EndChar

StartChar: o.kata
Encoding: 12458 12458 9
Width: 3556
Flags: HW
LayerCount: 2
Fore
SplineSet
3315.99316406 2040.31738281 m 0
 3315.99804688 2039.69238281 3315.85839844 2038.86523438 3315.85839844 2038.23925781 c 0
 3315.85839844 1999.30664062 3306.67675781 1962.50097656 3290.36230469 1929.87207031 c 0
 3250.51367188 1850.17480469 3168.01660156 1795.7734375 3072.921875 1795.7734375 c 0
 3033.98828125 1795.7734375 2997.18359375 1804.95507812 2964.5546875 1821.26953125 c 0
 2345.9375 2130.578125 1734.70019531 2267.08203125 1341.84375 2185.23730469 c 0
 1145.41503906 2144.31445312 1005.85253906 2061.421875 901.842773438 1918.40820312 c 0
 797.83203125 1775.39355469 725.68359375 1557.28613281 725.68359375 1229 c 0
 725.68359375 900.713867188 797.83203125 682.607421875 901.842773438 539.592773438 c 0
 1005.85253906 396.579101562 1145.41503906 313.686523438 1341.84375 272.763671875 c 0
 1734.70019531 190.918945312 2345.9375 327.422851562 2964.5546875 636.731445312 c 0
 2997.18359375 653.045898438 3034.08300781 662.604492188 3073.015625 662.604492188 c 0
 3168.11132812 662.604492188 3250.51367188 607.826171875 3290.36230469 528.12890625 c 0
 3306.67578125 495.500976562 3316.23535156 458.6015625 3316.23535156 419.66796875 c 0
 3316.23535156 324.573242188 3261.45703125 242.170898438 3181.75976562 202.322265625 c 0
 2505.22070312 -135.947265625 1821.29785156 -323.233398438 1242.78710938 -202.709960938 c 0
 953.532226562 -142.448242188 688.357421875 7.3828125 509.051757812 253.927734375 c 0
 329.747070312 500.47265625 240 828.760742188 240 1229 c 0
 240 1629.23925781 329.747070312 1957.52832031 509.051757812 2204.07324219 c 0
 688.357421875 2450.61816406 953.532226562 2600.44921875 1242.78710938 2660.7109375 c 0
 1821.29785156 2781.234375 2505.22070312 2593.94824219 3181.75976562 2255.67871094 c 0
 3260.93164062 2216.09277344 3315.27734375 2134.61914062 3315.99316406 2040.31738281 c 0
EndSplineSet
Validated: 33
EndChar

StartChar: ka.kata
Encoding: 12459 12459 10
Width: 4480
Flags: HW
LayerCount: 2
Fore
SplineSet
1290.00195312 3229 m 0
 1576.20410156 3229 1810.953125 3158.56152344 1987.25195312 3017.83203125 c 0
 2163.54980469 2877.1015625 2270.69238281 2668.97753906 2313.78417969 2441.95214844 c 0
 2399.55761719 1990.06347656 2267.27148438 1456.2265625 2027.55957031 927.711914062 c 1
 1451.19628906 -651.287109375 l 2
 1425.57421875 -721.481445312 1362.99121094 -771.111328125 1289.93066406 -771.111328125 c 0
 1267.15136719 -771.111328125 1245.36132812 -766.096679688 1225.421875 -757.329101562 c 0
 1161.46875 -729.206054688 1116.25097656 -660.515625 1116.25097656 -580.325195312 c 0
 1116.25097656 -555.323242188 1120.8203125 -531.405273438 1128.80859375 -509.520507812 c 1
 1128.63476562 -509.553710938 1707.64257812 1076.24902344 1707.64257812 1076.24902344 c 2
 1709.41699219 1081.11132812 1711.39941406 1085.94824219 1713.51953125 1090.60351562 c 0
 1934.69824219 1576.13183594 2032.30761719 2055.8671875 1973.78222656 2364.20507812 c 0
 1944.51953125 2518.37402344 1885.24511719 2627.91210938 1782.97949219 2709.54589844 c 0
 1708.40039062 2769.078125 1605.078125 2815.18847656 1463.65234375 2835.85839844 c 1
 1463.65234375 1640.68945312 l 2
 1463.65234375 1535.49609375 1385.84277344 1450.09277344 1290.00195312 1450.09277344 c 0
 1194.16210938 1450.09277344 1116.3515625 1535.49609375 1116.3515625 1640.68945312 c 1
 1116.3515625 2835.85839844 l 1
 974.926757812 2815.18847656 871.602539062 2769.078125 797.022460938 2709.54589844 c 0
 694.756835938 2627.91210938 635.485351562 2518.37402344 606.22265625 2364.20507812 c 0
 547.697265625 2055.8671875 645.306640625 1576.13183594 866.485351562 1090.60351562 c 0
 878.151367188 1064.99414062 884.716796875 1036.10742188 884.716796875 1005.55078125 c 0
 884.716796875 930.9140625 845.81640625 866.166015625 788.826171875 834.889648438 c 0
 765.495117188 822.0859375 739.176757812 814.87890625 711.336914062 814.87890625 c 0
 643.3359375 814.87890625 584.344726562 857.577148438 555.850585938 920.127929688 c 0
 313.961914062 1451.11621094 180.037109375 1987.90234375 266.219726562 2441.95214844 c 0
 309.311523438 2668.97753906 416.453125 2877.1015625 592.750976562 3017.83203125 c 0
 769.048828125 3158.56152344 1003.80078125 3229 1290.00195312 3229 c 0
2440 -571 m 1
 2440 1229 l 1
 2800 1229 l 1
 2800 -211 l 1
 3880 -211 l 1
 3880 1229 l 1
 4240 1229 l 1
 4240 629 4240 29 4240 -571 c 1
 2440 -571 l 1
EndSplineSet
Validated: 33
EndChar

StartChar: ga.kata
Encoding: 12460 12460 11
Width: 4480
Flags: HW
LayerCount: 2
Fore
SplineSet
1289.99804688 3229 m 0
 1576.19921875 3229 1810.95117188 3158.56152344 1987.24902344 3017.83203125 c 0
 2163.546875 2877.1015625 2270.68847656 2668.97753906 2313.78027344 2441.95214844 c 0
 2399.96289062 1987.90234375 2266.03808594 1451.11621094 2024.15039062 920.127929688 c 0
 1995.65527344 857.577148438 1936.6640625 814.87890625 1868.66308594 814.87890625 c 0
 1840.82421875 814.87890625 1814.50488281 822.0859375 1791.17382812 834.889648438 c 0
 1734.18457031 866.166015625 1695.28320312 930.9140625 1695.28320312 1005.55078125 c 0
 1695.28320312 1036.10742188 1701.84863281 1064.99414062 1713.51464844 1090.60351562 c 0
 1934.69335938 1576.13183594 2032.30273438 2055.8671875 1973.77734375 2364.20507812 c 0
 1944.51464844 2518.37402344 1885.24316406 2627.91210938 1782.97753906 2709.54589844 c 0
 1708.39746094 2769.078125 1605.07421875 2815.18847656 1463.6484375 2835.85839844 c 1
 1463.6484375 1640.68945312 l 1
 1463.6484375 1535.49609375 1385.83789062 1450.09277344 1289.99804688 1450.09277344 c 0
 1194.15722656 1450.09277344 1116.34765625 1535.49609375 1116.34765625 1640.68945312 c 2
 1116.34765625 2835.85839844 l 1
 974.921875 2815.18847656 871.599609375 2769.078125 797.020507812 2709.54589844 c 0
 694.754882812 2627.91210938 635.48046875 2518.37402344 606.217773438 2364.20507812 c 0
 547.692382812 2055.8671875 645.301757812 1576.13183594 866.48046875 1090.60351562 c 0
 868.600585938 1085.94824219 870.583007812 1081.11132812 872.357421875 1076.24902344 c 2
 872.357421875 1076.24902344 1451.36523438 -509.553710938 1451.19140625 -509.520507812 c 1
 1459.1796875 -531.405273438 1463.74902344 -555.323242188 1463.74902344 -580.325195312 c 0
 1463.74902344 -660.515625 1418.53125 -729.206054688 1354.578125 -757.329101562 c 0
 1334.63867188 -766.096679688 1312.84863281 -771.111328125 1290.06933594 -771.111328125 c 0
 1217.00878906 -771.111328125 1154.42578125 -721.481445312 1128.80371094 -651.287109375 c 2
 552.440429688 927.711914062 l 1
 312.728515625 1456.2265625 180.442382812 1990.06347656 266.215820312 2441.95214844 c 0
 309.307617188 2668.97753906 416.450195312 2877.1015625 592.748046875 3017.83203125 c 0
 769.046875 3158.56152344 1003.796875 3229 1289.99804688 3229 c 0
2440 -571 m 1
 2440 1229 l 1
 2800 1229 l 1
 2800 -211 l 1
 3880 -211 l 1
 3880 1229 l 1
 4240 1229 l 1
 4240 629 4240 29 4240 -571 c 1
 2440 -571 l 1
EndSplineSet
Validated: 33
EndChar

StartChar: ki.kata
Encoding: 12461 12461 12
Width: 4480
Flags: HW
LayerCount: 2
Fore
SplineSet
1290.00195312 3229 m 0
 1576.20410156 3229 1810.953125 3158.56152344 1987.25195312 3017.83203125 c 0
 2163.54980469 2877.1015625 2270.69238281 2668.97753906 2313.78417969 2441.95214844 c 0
 2399.55761719 1990.06347656 2267.27148438 1456.2265625 2027.55957031 927.711914062 c 1
 1451.19628906 -651.287109375 l 2
 1425.57421875 -721.481445312 1362.99121094 -771.111328125 1289.93066406 -771.111328125 c 0
 1267.15136719 -771.111328125 1245.36132812 -766.096679688 1225.421875 -757.329101562 c 0
 1161.46875 -729.206054688 1116.25097656 -660.515625 1116.25097656 -580.325195312 c 0
 1116.25097656 -555.323242188 1120.8203125 -531.405273438 1128.80859375 -509.520507812 c 1
 1128.63476562 -509.553710938 1707.64257812 1076.24902344 1707.64257812 1076.24902344 c 2
 1709.41699219 1081.11132812 1711.39941406 1085.94824219 1713.51953125 1090.60351562 c 0
 1934.69824219 1576.13183594 2032.30761719 2055.8671875 1973.78222656 2364.20507812 c 0
 1944.51953125 2518.37402344 1885.24511719 2627.91210938 1782.97949219 2709.54589844 c 0
 1708.40039062 2769.078125 1605.078125 2815.18847656 1463.65234375 2835.85839844 c 1
 1463.65234375 1640.68945312 l 2
 1463.65234375 1535.49609375 1385.84277344 1450.09277344 1290.00195312 1450.09277344 c 0
 1194.16210938 1450.09277344 1116.3515625 1535.49609375 1116.3515625 1640.68945312 c 1
 1116.3515625 2835.85839844 l 1
 974.926757812 2815.18847656 871.602539062 2769.078125 797.022460938 2709.54589844 c 0
 694.756835938 2627.91210938 635.485351562 2518.37402344 606.22265625 2364.20507812 c 0
 547.697265625 2055.8671875 645.306640625 1576.13183594 866.485351562 1090.60351562 c 0
 878.151367188 1064.99414062 884.716796875 1036.10742188 884.716796875 1005.55078125 c 0
 884.716796875 930.9140625 845.81640625 866.166015625 788.826171875 834.889648438 c 0
 765.495117188 822.0859375 739.176757812 814.87890625 711.336914062 814.87890625 c 0
 643.3359375 814.87890625 584.344726562 857.577148438 555.850585938 920.127929688 c 0
 313.961914062 1451.11621094 180.037109375 1987.90234375 266.219726562 2441.95214844 c 0
 309.311523438 2668.97753906 416.453125 2877.1015625 592.750976562 3017.83203125 c 0
 769.048828125 3158.56152344 1003.80078125 3229 1290.00195312 3229 c 0
2440 -571 m 1
 2440 1229 l 1
 2800 1229 l 1
 2800 -211 l 1
 3160 -211 l 1
 3160 1229 l 1
 3520 1229 l 1
 3520 -211 l 1
 3880 -211 l 1
 3880 1229 l 1
 4240 1229 l 1
 4240 -571 l 1
 2440 -571 l 1
EndSplineSet
Validated: 33
EndChar

StartChar: gi.kata
Encoding: 12462 12462 13
Width: 4480
Flags: HW
LayerCount: 2
Fore
SplineSet
1289.99804688 3229 m 0
 1576.19921875 3229 1810.95117188 3158.56152344 1987.24902344 3017.83203125 c 0
 2163.546875 2877.1015625 2270.68847656 2668.97753906 2313.78027344 2441.95214844 c 0
 2399.96289062 1987.90234375 2266.03808594 1451.11621094 2024.15039062 920.127929688 c 0
 1995.65527344 857.577148438 1936.6640625 814.87890625 1868.66308594 814.87890625 c 0
 1840.82421875 814.87890625 1814.50488281 822.0859375 1791.17382812 834.889648438 c 0
 1734.18457031 866.166015625 1695.28320312 930.9140625 1695.28320312 1005.55078125 c 0
 1695.28320312 1036.10742188 1701.84863281 1064.99414062 1713.51464844 1090.60351562 c 0
 1934.69335938 1576.13183594 2032.30273438 2055.8671875 1973.77734375 2364.20507812 c 0
 1944.51464844 2518.37402344 1885.24316406 2627.91210938 1782.97753906 2709.54589844 c 0
 1708.39746094 2769.078125 1605.07421875 2815.18847656 1463.6484375 2835.85839844 c 1
 1463.6484375 1640.68945312 l 1
 1463.6484375 1535.49609375 1385.83789062 1450.09277344 1289.99804688 1450.09277344 c 0
 1194.15722656 1450.09277344 1116.34765625 1535.49609375 1116.34765625 1640.68945312 c 2
 1116.34765625 2835.85839844 l 1
 974.921875 2815.18847656 871.599609375 2769.078125 797.020507812 2709.54589844 c 0
 694.754882812 2627.91210938 635.48046875 2518.37402344 606.217773438 2364.20507812 c 0
 547.692382812 2055.8671875 645.301757812 1576.13183594 866.48046875 1090.60351562 c 0
 868.600585938 1085.94824219 870.583007812 1081.11132812 872.357421875 1076.24902344 c 2
 872.357421875 1076.24902344 1451.36523438 -509.553710938 1451.19140625 -509.520507812 c 1
 1459.1796875 -531.405273438 1463.74902344 -555.323242188 1463.74902344 -580.325195312 c 0
 1463.74902344 -660.515625 1418.53125 -729.206054688 1354.578125 -757.329101562 c 0
 1334.63867188 -766.096679688 1312.84863281 -771.111328125 1290.06933594 -771.111328125 c 0
 1217.00878906 -771.111328125 1154.42578125 -721.481445312 1128.80371094 -651.287109375 c 2
 552.440429688 927.711914062 l 1
 312.728515625 1456.2265625 180.442382812 1990.06347656 266.215820312 2441.95214844 c 0
 309.307617188 2668.97753906 416.450195312 2877.1015625 592.748046875 3017.83203125 c 0
 769.046875 3158.56152344 1003.796875 3229 1289.99804688 3229 c 0
2440 -571 m 1
 2440 1229 l 1
 2800 1229 l 1
 2800 -211 l 1
 3160 -211 l 1
 3160 1229 l 1
 3520 1229 l 1
 3520 -211 l 1
 3880 -211 l 1
 3880 1229 l 1
 4240 1229 l 1
 4240 -571 l 1
 2440 -571 l 1
EndSplineSet
Validated: 33
EndChar

StartChar: ku.kata
Encoding: 12463 12463 14
Width: 4480
Flags: HW
LayerCount: 2
Fore
SplineSet
1290.00195312 3229 m 0
 1576.20410156 3229 1810.953125 3158.56152344 1987.25195312 3017.83203125 c 0
 2163.54980469 2877.1015625 2270.69238281 2668.97753906 2313.78417969 2441.95214844 c 0
 2399.55761719 1990.06347656 2267.27148438 1456.2265625 2027.55957031 927.711914062 c 1
 1451.19628906 -651.287109375 l 2
 1425.57421875 -721.481445312 1362.99121094 -771.111328125 1289.93066406 -771.111328125 c 0
 1267.15136719 -771.111328125 1245.36132812 -766.096679688 1225.421875 -757.329101562 c 0
 1161.46875 -729.206054688 1116.25097656 -660.515625 1116.25097656 -580.325195312 c 0
 1116.25097656 -555.323242188 1120.8203125 -531.405273438 1128.80859375 -509.520507812 c 1
 1128.63476562 -509.553710938 1707.64257812 1076.24902344 1707.64257812 1076.24902344 c 2
 1709.41699219 1081.11132812 1711.39941406 1085.94824219 1713.51953125 1090.60351562 c 0
 1934.69824219 1576.13183594 2032.30761719 2055.8671875 1973.78222656 2364.20507812 c 0
 1944.51953125 2518.37402344 1885.24511719 2627.91210938 1782.97949219 2709.54589844 c 0
 1708.40039062 2769.078125 1605.078125 2815.18847656 1463.65234375 2835.85839844 c 1
 1463.65234375 1640.68945312 l 2
 1463.65234375 1535.49609375 1385.84277344 1450.09277344 1290.00195312 1450.09277344 c 0
 1194.16210938 1450.09277344 1116.3515625 1535.49609375 1116.3515625 1640.68945312 c 1
 1116.3515625 2835.85839844 l 1
 974.926757812 2815.18847656 871.602539062 2769.078125 797.022460938 2709.54589844 c 0
 694.756835938 2627.91210938 635.485351562 2518.37402344 606.22265625 2364.20507812 c 0
 547.697265625 2055.8671875 645.306640625 1576.13183594 866.485351562 1090.60351562 c 0
 878.151367188 1064.99414062 884.716796875 1036.10742188 884.716796875 1005.55078125 c 0
 884.716796875 930.9140625 845.81640625 866.166015625 788.826171875 834.889648438 c 0
 765.495117188 822.0859375 739.176757812 814.87890625 711.336914062 814.87890625 c 0
 643.3359375 814.87890625 584.344726562 857.577148438 555.850585938 920.127929688 c 0
 313.961914062 1451.11621094 180.037109375 1987.90234375 266.219726562 2441.95214844 c 0
 309.311523438 2668.97753906 416.453125 2877.1015625 592.750976562 3017.83203125 c 0
 769.048828125 3158.56152344 1003.80078125 3229 1290.00195312 3229 c 0
4240 1229 m 1
 4240 -571 l 1
 3880 -571 l 1
 3880 869 l 1
 2800 869 l 1
 2800 -571 l 1
 2440 -571 l 1
 2440 1229 l 1
 4240 1229 l 1
EndSplineSet
Validated: 33
EndChar

StartChar: gu.kata
Encoding: 12464 12464 15
Width: 4480
Flags: HW
LayerCount: 2
Fore
SplineSet
1289.99804688 3229 m 0
 1576.19921875 3229 1810.95117188 3158.56152344 1987.24902344 3017.83203125 c 0
 2163.546875 2877.1015625 2270.68847656 2668.97753906 2313.78027344 2441.95214844 c 0
 2399.96289062 1987.90234375 2266.03808594 1451.11621094 2024.15039062 920.127929688 c 0
 1995.65527344 857.577148438 1936.6640625 814.87890625 1868.66308594 814.87890625 c 0
 1840.82421875 814.87890625 1814.50488281 822.0859375 1791.17382812 834.889648438 c 0
 1734.18457031 866.166015625 1695.28320312 930.9140625 1695.28320312 1005.55078125 c 0
 1695.28320312 1036.10742188 1701.84863281 1064.99414062 1713.51464844 1090.60351562 c 0
 1934.69335938 1576.13183594 2032.30273438 2055.8671875 1973.77734375 2364.20507812 c 0
 1944.51464844 2518.37402344 1885.24316406 2627.91210938 1782.97753906 2709.54589844 c 0
 1708.39746094 2769.078125 1605.07421875 2815.18847656 1463.6484375 2835.85839844 c 1
 1463.6484375 1640.68945312 l 1
 1463.6484375 1535.49609375 1385.83789062 1450.09277344 1289.99804688 1450.09277344 c 0
 1194.15722656 1450.09277344 1116.34765625 1535.49609375 1116.34765625 1640.68945312 c 2
 1116.34765625 2835.85839844 l 1
 974.921875 2815.18847656 871.599609375 2769.078125 797.020507812 2709.54589844 c 0
 694.754882812 2627.91210938 635.48046875 2518.37402344 606.217773438 2364.20507812 c 0
 547.692382812 2055.8671875 645.301757812 1576.13183594 866.48046875 1090.60351562 c 0
 868.600585938 1085.94824219 870.583007812 1081.11132812 872.357421875 1076.24902344 c 2
 872.357421875 1076.24902344 1451.36523438 -509.553710938 1451.19140625 -509.520507812 c 1
 1459.1796875 -531.405273438 1463.74902344 -555.323242188 1463.74902344 -580.325195312 c 0
 1463.74902344 -660.515625 1418.53125 -729.206054688 1354.578125 -757.329101562 c 0
 1334.63867188 -766.096679688 1312.84863281 -771.111328125 1290.06933594 -771.111328125 c 0
 1217.00878906 -771.111328125 1154.42578125 -721.481445312 1128.80371094 -651.287109375 c 2
 552.440429688 927.711914062 l 1
 312.728515625 1456.2265625 180.442382812 1990.06347656 266.215820312 2441.95214844 c 0
 309.307617188 2668.97753906 416.450195312 2877.1015625 592.748046875 3017.83203125 c 0
 769.046875 3158.56152344 1003.796875 3229 1289.99804688 3229 c 0
4240 1229 m 1
 4240 -571 l 1
 3880 -571 l 1
 3880 869 l 1
 2800 869 l 1
 2800 -571 l 1
 2440 -571 l 1
 2440 1229 l 1
 4240 1229 l 1
EndSplineSet
Validated: 33
EndChar

StartChar: ke.kata
Encoding: 12465 12465 16
Width: 4480
Flags: HW
LayerCount: 2
Fore
SplineSet
1290.00195312 3229 m 0
 1576.20410156 3229 1810.953125 3158.56152344 1987.25195312 3017.83203125 c 0
 2163.54980469 2877.1015625 2270.69238281 2668.97753906 2313.78417969 2441.95214844 c 0
 2399.55761719 1990.06347656 2267.27148438 1456.2265625 2027.55957031 927.711914062 c 1
 1451.19628906 -651.287109375 l 2
 1425.57421875 -721.481445312 1362.99121094 -771.111328125 1289.93066406 -771.111328125 c 0
 1267.15136719 -771.111328125 1245.36132812 -766.096679688 1225.421875 -757.329101562 c 0
 1161.46875 -729.206054688 1116.25097656 -660.515625 1116.25097656 -580.325195312 c 0
 1116.25097656 -555.323242188 1120.8203125 -531.405273438 1128.80859375 -509.520507812 c 1
 1128.63476562 -509.553710938 1707.64257812 1076.24902344 1707.64257812 1076.24902344 c 2
 1709.41699219 1081.11132812 1711.39941406 1085.94824219 1713.51953125 1090.60351562 c 0
 1934.69824219 1576.13183594 2032.30761719 2055.8671875 1973.78222656 2364.20507812 c 0
 1944.51953125 2518.37402344 1885.24511719 2627.91210938 1782.97949219 2709.54589844 c 0
 1708.40039062 2769.078125 1605.078125 2815.18847656 1463.65234375 2835.85839844 c 1
 1463.65234375 1640.68945312 l 2
 1463.65234375 1535.49609375 1385.84277344 1450.09277344 1290.00195312 1450.09277344 c 0
 1194.16210938 1450.09277344 1116.3515625 1535.49609375 1116.3515625 1640.68945312 c 1
 1116.3515625 2835.85839844 l 1
 974.926757812 2815.18847656 871.602539062 2769.078125 797.022460938 2709.54589844 c 0
 694.756835938 2627.91210938 635.485351562 2518.37402344 606.22265625 2364.20507812 c 0
 547.697265625 2055.8671875 645.306640625 1576.13183594 866.485351562 1090.60351562 c 0
 878.151367188 1064.99414062 884.716796875 1036.10742188 884.716796875 1005.55078125 c 0
 884.716796875 930.9140625 845.81640625 866.166015625 788.826171875 834.889648438 c 0
 765.495117188 822.0859375 739.176757812 814.87890625 711.336914062 814.87890625 c 0
 643.3359375 814.87890625 584.344726562 857.577148438 555.850585938 920.127929688 c 0
 313.961914062 1451.11621094 180.037109375 1987.90234375 266.219726562 2441.95214844 c 0
 309.311523438 2668.97753906 416.453125 2877.1015625 592.750976562 3017.83203125 c 0
 769.048828125 3158.56152344 1003.80078125 3229 1290.00195312 3229 c 0
2440 1229 m 1
 4240 1229 l 1
 4240 869 l 1
 2800 869 l 1
 2800 509 l 1
 4240 509 l 1
 4240 149 l 1
 2800 149 l 1
 2800 -211 l 1
 4240 -211 l 1
 4240 -571 l 1
 2440 -571 l 1
 2440 1229 l 1
EndSplineSet
Validated: 33
EndChar

StartChar: ge.kata
Encoding: 12466 12466 17
Width: 4480
Flags: HW
LayerCount: 2
Fore
SplineSet
1289.99804688 3229 m 0
 1576.19921875 3229 1810.95117188 3158.56152344 1987.24902344 3017.83203125 c 0
 2163.546875 2877.1015625 2270.68847656 2668.97753906 2313.78027344 2441.95214844 c 0
 2399.96289062 1987.90234375 2266.03808594 1451.11621094 2024.15039062 920.127929688 c 0
 1995.65527344 857.577148438 1936.6640625 814.87890625 1868.66308594 814.87890625 c 0
 1840.82421875 814.87890625 1814.50488281 822.0859375 1791.17382812 834.889648438 c 0
 1734.18457031 866.166015625 1695.28320312 930.9140625 1695.28320312 1005.55078125 c 0
 1695.28320312 1036.10742188 1701.84863281 1064.99414062 1713.51464844 1090.60351562 c 0
 1934.69335938 1576.13183594 2032.30273438 2055.8671875 1973.77734375 2364.20507812 c 0
 1944.51464844 2518.37402344 1885.24316406 2627.91210938 1782.97753906 2709.54589844 c 0
 1708.39746094 2769.078125 1605.07421875 2815.18847656 1463.6484375 2835.85839844 c 1
 1463.6484375 1640.68945312 l 1
 1463.6484375 1535.49609375 1385.83789062 1450.09277344 1289.99804688 1450.09277344 c 0
 1194.15722656 1450.09277344 1116.34765625 1535.49609375 1116.34765625 1640.68945312 c 2
 1116.34765625 2835.85839844 l 1
 974.921875 2815.18847656 871.599609375 2769.078125 797.020507812 2709.54589844 c 0
 694.754882812 2627.91210938 635.48046875 2518.37402344 606.217773438 2364.20507812 c 0
 547.692382812 2055.8671875 645.301757812 1576.13183594 866.48046875 1090.60351562 c 0
 868.600585938 1085.94824219 870.583007812 1081.11132812 872.357421875 1076.24902344 c 2
 872.357421875 1076.24902344 1451.36523438 -509.553710938 1451.19140625 -509.520507812 c 1
 1459.1796875 -531.405273438 1463.74902344 -555.323242188 1463.74902344 -580.325195312 c 0
 1463.74902344 -660.515625 1418.53125 -729.206054688 1354.578125 -757.329101562 c 0
 1334.63867188 -766.096679688 1312.84863281 -771.111328125 1290.06933594 -771.111328125 c 0
 1217.00878906 -771.111328125 1154.42578125 -721.481445312 1128.80371094 -651.287109375 c 2
 552.440429688 927.711914062 l 1
 312.728515625 1456.2265625 180.442382812 1990.06347656 266.215820312 2441.95214844 c 0
 309.307617188 2668.97753906 416.450195312 2877.1015625 592.748046875 3017.83203125 c 0
 769.046875 3158.56152344 1003.796875 3229 1289.99804688 3229 c 0
2440 1229 m 1
 4240 1229 l 1
 4240 869 l 1
 2800 869 l 1
 2800 509 l 1
 4240 509 l 1
 4240 149 l 1
 2800 149 l 1
 2800 -211 l 1
 4240 -211 l 1
 4240 -571 l 1
 2440 -571 l 1
 2440 1229 l 1
EndSplineSet
Validated: 33
EndChar

StartChar: ko.kata
Encoding: 12467 12467 18
Width: 4480
Flags: HW
LayerCount: 2
Fore
SplineSet
1290.00195312 3229 m 0
 1576.20410156 3229 1810.953125 3158.56152344 1987.25195312 3017.83203125 c 0
 2163.54980469 2877.1015625 2270.69238281 2668.97753906 2313.78417969 2441.95214844 c 0
 2399.55761719 1990.06347656 2267.27148438 1456.2265625 2027.55957031 927.711914062 c 1
 1451.19628906 -651.287109375 l 2
 1425.57421875 -721.481445312 1362.99121094 -771.111328125 1289.93066406 -771.111328125 c 0
 1267.15136719 -771.111328125 1245.36132812 -766.096679688 1225.421875 -757.329101562 c 0
 1161.46875 -729.206054688 1116.25097656 -660.515625 1116.25097656 -580.325195312 c 0
 1116.25097656 -555.323242188 1120.8203125 -531.405273438 1128.80859375 -509.520507812 c 1
 1128.63476562 -509.553710938 1707.64257812 1076.24902344 1707.64257812 1076.24902344 c 2
 1709.41699219 1081.11132812 1711.39941406 1085.94824219 1713.51953125 1090.60351562 c 0
 1934.69824219 1576.13183594 2032.30761719 2055.8671875 1973.78222656 2364.20507812 c 0
 1944.51953125 2518.37402344 1885.24511719 2627.91210938 1782.97949219 2709.54589844 c 0
 1708.40039062 2769.078125 1605.078125 2815.18847656 1463.65234375 2835.85839844 c 1
 1463.65234375 1640.68945312 l 2
 1463.65234375 1535.49609375 1385.84277344 1450.09277344 1290.00195312 1450.09277344 c 0
 1194.16210938 1450.09277344 1116.3515625 1535.49609375 1116.3515625 1640.68945312 c 1
 1116.3515625 2835.85839844 l 1
 974.926757812 2815.18847656 871.602539062 2769.078125 797.022460938 2709.54589844 c 0
 694.756835938 2627.91210938 635.485351562 2518.37402344 606.22265625 2364.20507812 c 0
 547.697265625 2055.8671875 645.306640625 1576.13183594 866.485351562 1090.60351562 c 0
 878.151367188 1064.99414062 884.716796875 1036.10742188 884.716796875 1005.55078125 c 0
 884.716796875 930.9140625 845.81640625 866.166015625 788.826171875 834.889648438 c 0
 765.495117188 822.0859375 739.176757812 814.87890625 711.336914062 814.87890625 c 0
 643.3359375 814.87890625 584.344726562 857.577148438 555.850585938 920.127929688 c 0
 313.961914062 1451.11621094 180.037109375 1987.90234375 266.219726562 2441.95214844 c 0
 309.311523438 2668.97753906 416.453125 2877.1015625 592.750976562 3017.83203125 c 0
 769.048828125 3158.56152344 1003.80078125 3229 1290.00195312 3229 c 0
2440 1229 m 1
 4240 1229 l 1
 4240 869 l 1
 2800 869 l 1
 2800 -211 l 1
 4240 -211 l 1
 4240 -571 l 1
 2440 -571 l 1
 2440 1229 l 1
EndSplineSet
Validated: 33
EndChar

StartChar: go.kata
Encoding: 12468 12468 19
Width: 4480
Flags: HW
LayerCount: 2
Fore
SplineSet
1289.99804688 3229 m 0
 1576.19921875 3229 1810.95117188 3158.56152344 1987.24902344 3017.83203125 c 0
 2163.546875 2877.1015625 2270.68847656 2668.97753906 2313.78027344 2441.95214844 c 0
 2399.96289062 1987.90234375 2266.03808594 1451.11621094 2024.15039062 920.127929688 c 0
 1995.65527344 857.577148438 1936.6640625 814.87890625 1868.66308594 814.87890625 c 0
 1840.82421875 814.87890625 1814.50488281 822.0859375 1791.17382812 834.889648438 c 0
 1734.18457031 866.166015625 1695.28320312 930.9140625 1695.28320312 1005.55078125 c 0
 1695.28320312 1036.10742188 1701.84863281 1064.99414062 1713.51464844 1090.60351562 c 0
 1934.69335938 1576.13183594 2032.30273438 2055.8671875 1973.77734375 2364.20507812 c 0
 1944.51464844 2518.37402344 1885.24316406 2627.91210938 1782.97753906 2709.54589844 c 0
 1708.39746094 2769.078125 1605.07421875 2815.18847656 1463.6484375 2835.85839844 c 1
 1463.6484375 1640.68945312 l 1
 1463.6484375 1535.49609375 1385.83789062 1450.09277344 1289.99804688 1450.09277344 c 0
 1194.15722656 1450.09277344 1116.34765625 1535.49609375 1116.34765625 1640.68945312 c 2
 1116.34765625 2835.85839844 l 1
 974.921875 2815.18847656 871.599609375 2769.078125 797.020507812 2709.54589844 c 0
 694.754882812 2627.91210938 635.48046875 2518.37402344 606.217773438 2364.20507812 c 0
 547.692382812 2055.8671875 645.301757812 1576.13183594 866.48046875 1090.60351562 c 0
 868.600585938 1085.94824219 870.583007812 1081.11132812 872.357421875 1076.24902344 c 2
 872.357421875 1076.24902344 1451.36523438 -509.553710938 1451.19140625 -509.520507812 c 1
 1459.1796875 -531.405273438 1463.74902344 -555.323242188 1463.74902344 -580.325195312 c 0
 1463.74902344 -660.515625 1418.53125 -729.206054688 1354.578125 -757.329101562 c 0
 1334.63867188 -766.096679688 1312.84863281 -771.111328125 1290.06933594 -771.111328125 c 0
 1217.00878906 -771.111328125 1154.42578125 -721.481445312 1128.80371094 -651.287109375 c 2
 552.440429688 927.711914062 l 1
 312.728515625 1456.2265625 180.442382812 1990.06347656 266.215820312 2441.95214844 c 0
 309.307617188 2668.97753906 416.450195312 2877.1015625 592.748046875 3017.83203125 c 0
 769.046875 3158.56152344 1003.796875 3229 1289.99804688 3229 c 0
2440 1229 m 1
 4240 1229 l 1
 4240 869 l 1
 2800 869 l 1
 2800 -211 l 1
 4240 -211 l 1
 4240 -571 l 1
 2440 -571 l 1
 2440 1229 l 1
EndSplineSet
Validated: 33
EndChar

StartChar: sa.kata
Encoding: 12469 12469 20
Width: 4478
Flags: HW
LayerCount: 2
Fore
SplineSet
1278.39355469 -770.573242188 m 0
 1259.87792969 -769.211914062 1241.90136719 -764.575195312 1225.42089844 -757.328125 c 0
 1161.46777344 -729.206054688 1116.42285156 -660.482421875 1116.42285156 -580.291015625 c 0
 1116.42285156 -555.2890625 1120.81835938 -531.404296875 1128.80761719 -509.518554688 c 2
 1128.80761719 -509.518554688 1707.671875 1076.32421875 1707.64257812 1076.25 c 1
 1709.41699219 1081.11230469 1711.39941406 1085.94824219 1713.52050781 1090.60351562 c 0
 1830.44726562 1347.27929688 1912.80859375 1602.31640625 1955.85546875 1831.28710938 c 1
 624.149414062 1831.28710938 l 1
 667.196289062 1602.31640625 749.55859375 1347.27929688 866.485351562 1090.60351562 c 0
 878.151367188 1064.99414062 884.987304688 1036.03320312 884.987304688 1005.4765625 c 0
 884.987304688 930.83984375 845.81640625 866.166015625 788.827148438 834.890625 c 0
 765.495117188 822.0859375 739.109375 814.583007812 711.26953125 814.583007812 c 0
 643.268554688 814.583007812 584.344726562 857.577148438 555.850585938 920.127929688 c 0
 313.961914062 1451.1171875 180.037109375 1987.90234375 266.220703125 2441.953125 c 0
 309.311523438 2668.97753906 416.453125 2877.1015625 592.750976562 3017.83203125 c 0
 769.048828125 3158.56152344 1003.80175781 3229 1290.00292969 3229 c 0
 1576.20410156 3229 1810.95507812 3158.56152344 1987.25390625 3017.83203125 c 0
 2163.55175781 2877.1015625 2270.69238281 2668.97753906 2313.78417969 2441.953125 c 0
 2399.55664062 1990.06445312 2267.27246094 1456.22851562 2027.56152344 927.71484375 c 1
 2027.56152344 927.71484375 1451.41894531 -651.1796875 1451.19726562 -651.286132812 c 0
 1425.57519531 -721.48046875 1363.21386719 -771.004882812 1290.15234375 -771.004882812 c 0
 1286.20117188 -771.004882812 1282.27929688 -770.859375 1278.39355469 -770.573242188 c 0
1989.70117188 2212.48144531 m 1
 1987.8984375 2266.6015625 1982.66699219 2317.40527344 1973.78320312 2364.20605469 c 0
 1944.52050781 2518.375 1885.24609375 2627.91210938 1782.98046875 2709.54589844 c 0
 1680.71386719 2791.17871094 1524.75195312 2847.80566406 1290.00292969 2847.80566406 c 0
 1055.25292969 2847.80566406 899.290039062 2791.17871094 797.024414062 2709.54589844 c 0
 694.758789062 2627.91210938 635.484375 2518.375 606.221679688 2364.20605469 c 0
 597.337890625 2317.40527344 592.106445312 2266.6015625 590.303710938 2212.48144531 c 1
 1989.70117188 2212.48144531 l 1
2440 -571 m 1
 2440 1229 l 1
 2800 1229 l 1
 2800 -211 l 1
 3880 -211 l 1
 3880 1229 l 1
 4240 1229 l 1
 4240 629 4240 29 4240 -571 c 1
 2440 -571 l 1
EndSplineSet
Validated: 33
EndChar

StartChar: za.kata
Encoding: 12470 12470 21
Width: 4478
Flags: HW
LayerCount: 2
Fore
SplineSet
1301.60644531 -770.573242188 m 0
 1297.72070312 -770.859375 1293.79882812 -771.004882812 1289.84765625 -771.004882812 c 0
 1216.78613281 -771.004882812 1154.42480469 -721.48046875 1128.80273438 -651.286132812 c 0
 1128.58105469 -651.1796875 552.438476562 927.71484375 552.438476562 927.71484375 c 1
 312.727539062 1456.22851562 180.443359375 1990.06445312 266.215820312 2441.953125 c 0
 309.307617188 2668.97753906 416.448242188 2877.1015625 592.74609375 3017.83203125 c 0
 769.044921875 3158.56152344 1003.79589844 3229 1289.99707031 3229 c 0
 1576.19824219 3229 1810.95117188 3158.56152344 1987.24902344 3017.83203125 c 0
 2163.546875 2877.1015625 2270.68847656 2668.97753906 2313.77929688 2441.953125 c 0
 2399.96289062 1987.90234375 2266.03808594 1451.1171875 2024.14941406 920.127929688 c 0
 1995.65527344 857.577148438 1936.73144531 814.583007812 1868.73046875 814.583007812 c 0
 1840.890625 814.583007812 1814.50488281 822.0859375 1791.17285156 834.890625 c 0
 1734.18359375 866.166015625 1695.01269531 930.83984375 1695.01269531 1005.4765625 c 0
 1695.01269531 1036.03320312 1701.84863281 1064.99414062 1713.51464844 1090.60351562 c 0
 1830.44140625 1347.27929688 1912.80371094 1602.31640625 1955.85058594 1831.28710938 c 1
 624.14453125 1831.28710938 l 1
 667.19140625 1602.31640625 749.552734375 1347.27929688 866.479492188 1090.60351562 c 0
 868.600585938 1085.94824219 870.583007812 1081.11230469 872.357421875 1076.25 c 1
 872.328125 1076.32421875 1451.19238281 -509.518554688 1451.19238281 -509.518554688 c 2
 1459.18164062 -531.404296875 1463.57714844 -555.2890625 1463.57714844 -580.291015625 c 0
 1463.57714844 -660.482421875 1418.53222656 -729.206054688 1354.57910156 -757.328125 c 0
 1338.09863281 -764.575195312 1320.12207031 -769.211914062 1301.60644531 -770.573242188 c 0
590.298828125 2212.48144531 m 1
 1989.69628906 2212.48144531 l 1
 1987.89355469 2266.6015625 1982.66210938 2317.40527344 1973.77832031 2364.20605469 c 0
 1944.515625 2518.375 1885.24121094 2627.91210938 1782.97558594 2709.54589844 c 0
 1680.70996094 2791.17871094 1524.74707031 2847.80566406 1289.99707031 2847.80566406 c 0
 1055.24804688 2847.80566406 899.28515625 2791.17871094 797.01953125 2709.54589844 c 0
 694.75390625 2627.91210938 635.479492188 2518.375 606.216796875 2364.20605469 c 0
 597.333007812 2317.40527344 592.1015625 2266.6015625 590.298828125 2212.48144531 c 1
2440 -571 m 1
 2440 1229 l 1
 2800 1229 l 1
 2800 -211 l 1
 3880 -211 l 1
 3880 1229 l 1
 4240 1229 l 1
 4240 629 4240 29 4240 -571 c 1
 2440 -571 l 1
EndSplineSet
Validated: 33
EndChar

StartChar: si.kata
Encoding: 12471 12471 22
Width: 4480
Flags: W
HStem: -571 360<2800 3160 3520 3880>
VStem: 240 331.579<1568.46 2552.67> 1124.21 331.578<-747.901 -666.48 1319.61 2801.52> 2440 360<-211 1229> 3160 360<-211 1229> 3880 360<-211 1229>
LayerCount: 2
Fore
SplineSet
2440 -571 m 1
 2440 1229 l 1
 2800 1229 l 1
 2800 -211 l 1
 3160 -211 l 1
 3160 1229 l 1
 3520 1229 l 1
 3520 -211 l 1
 3880 -211 l 1
 3880 1229 l 1
 4240 1229 l 1
 4240 -571 l 1
 2440 -571 l 1
1289.04589844 -770.997070312 m 0
 1262.04199219 -770.815429688 1236.37402344 -762.977539062 1213.88476562 -749.430664062 c 0
 1160.54199219 -717.299804688 1124.04394531 -652.40234375 1124.04394531 -577.647460938 c 0
 1124.04394531 -545.751953125 1130.95410156 -515.573242188 1142.71582031 -489.046875 c 1
 1142.44921875 -489.125 1816.39550781 1030.33691406 1816.39550781 1030.33691406 c 1
 1501.796875 905.231445312 1196.18847656 855.362304688 924.608398438 921.30859375 c 0
 727.131835938 969.260742188 546.095703125 1088.48632812 423.682617188 1284.66992188 c 0
 301.270507812 1480.85351562 240 1742.08300781 240 2060.56542969 c 0
 240 2379.04882812 301.270507812 2640.27832031 423.682617188 2836.4609375 c 0
 546.095703125 3032.64453125 727.131835938 3151.87011719 924.608398438 3199.82226562 c 0
 1319.55957031 3295.72558594 1786.47753906 3146.69628906 2248.35351562 2877.52539062 c 0
 2302.76367188 2845.81640625 2340.16113281 2780.24707031 2340.16113281 2704.57617188 c 0
 2340.16113281 2673.59667969 2333.63476562 2644.234375 2322.49707031 2618.27050781 c 0
 2295.29199219 2554.85351562 2239.03613281 2511.26367188 2174.11425781 2511.26367188 c 0
 2147.53417969 2511.26367188 2122.34277344 2518.87109375 2100.06738281 2531.85253906 c 0
 1876.79980469 2661.96777344 1654.95800781 2753.62011719 1455.7890625 2801.52246094 c 1
 1455.7890625 1319.60839844 l 1
 1654.95800781 1367.51074219 1876.79980469 1459.16308594 2100.06738281 1589.27832031 c 0
 2122.33398438 1602.24511719 2147.44726562 1609.54199219 2174.01074219 1609.54199219 c 0
 2265.52148438 1609.54199219 2339.81738281 1522.94726562 2339.81738281 1416.28613281 c 0
 2339.81738281 1384.40917969 2333.2421875 1354.2421875 2321.49414062 1327.72558594 c 1
 2321.43261719 1327.80761719 1437.28417969 -666.48046875 1437.28417969 -666.48046875 c 2
 1409.71679688 -728.653320312 1354.03710938 -771.194335938 1289.90039062 -771.194335938 c 0
 1289.57617188 -771.194335938 1289.37011719 -770.999023438 1289.04589844 -770.997070312 c 0
1124.2109375 1281.94628906 m 1
 1124.2109375 2839.18457031 l 1
 1077.13476562 2837.17871094 1032.94335938 2831.35839844 992.234375 2821.47265625 c 0
 858.131835938 2788.90917969 762.8515625 2722.94921875 691.842773438 2609.1484375 c 0
 620.834960938 2495.34765625 571.579101562 2321.79296875 571.579101562 2060.56542969 c 0
 571.579101562 1799.33789062 620.834960938 1625.78320312 691.842773438 1511.98242188 c 0
 762.8515625 1398.18164062 858.131835938 1332.22167969 992.234375 1299.65820312 c 0
 1032.94335938 1289.7734375 1077.13476562 1283.95214844 1124.2109375 1281.94628906 c 1
EndSplineSet
Validated: 33
EndChar

StartChar: zi.kata
Encoding: 12472 12472 23
Width: 4480
Flags: HW
LayerCount: 2
Fore
SplineSet
1291.11523438 -770.997070312 m 0
 1290.79101562 -770.999023438 1290.58496094 -771.194335938 1290.26074219 -771.194335938 c 0
 1226.12402344 -771.194335938 1170.44433594 -728.653320312 1142.87695312 -666.48046875 c 2
 1142.87695312 -666.48046875 258.728515625 1327.80761719 258.666992188 1327.72558594 c 1
 246.918945312 1354.2421875 240.34375 1384.40917969 240.34375 1416.28613281 c 0
 240.34375 1522.94726562 314.638671875 1609.54199219 406.150390625 1609.54199219 c 0
 432.713867188 1609.54199219 457.827148438 1602.24511719 480.09375 1589.27832031 c 0
 703.361328125 1459.16308594 925.203125 1367.51074219 1124.37207031 1319.60839844 c 1
 1124.37207031 2801.52246094 l 1
 925.203125 2753.62011719 703.361328125 2661.96777344 480.09375 2531.85253906 c 0
 457.818359375 2518.87109375 432.626953125 2511.26367188 406.046875 2511.26367188 c 0
 341.125 2511.26367188 284.869140625 2554.85351562 257.6640625 2618.27050781 c 0
 246.526367188 2644.234375 240 2673.59667969 240 2704.57617188 c 0
 240 2780.24707031 277.397460938 2845.81640625 331.807617188 2877.52539062 c 0
 793.68359375 3146.69628906 1260.6015625 3295.72558594 1655.55273438 3199.82226562 c 0
 1853.02929688 3151.87011719 2034.06542969 3032.64453125 2156.47851562 2836.4609375 c 0
 2278.890625 2640.27832031 2340.16113281 2379.04882812 2340.16113281 2060.56542969 c 0
 2340.16113281 1742.08300781 2278.890625 1480.85351562 2156.47851562 1284.66992188 c 0
 2034.06542969 1088.48632812 1853.02929688 969.260742188 1655.55273438 921.30859375 c 0
 1383.97265625 855.362304688 1078.36425781 905.231445312 763.765625 1030.33691406 c 1
 763.765625 1030.33691406 1437.71191406 -489.125 1437.4453125 -489.046875 c 1
 1449.20605469 -515.573242188 1456.1171875 -545.751953125 1456.1171875 -577.647460938 c 0
 1456.1171875 -652.40234375 1419.61816406 -717.299804688 1366.27636719 -749.430664062 c 0
 1343.78710938 -762.977539062 1318.11914062 -770.815429688 1291.11523438 -770.997070312 c 0
1455.95019531 1281.94628906 m 1
 1503.02636719 1283.95214844 1547.21777344 1289.7734375 1587.92675781 1299.65820312 c 0
 1722.02929688 1332.22167969 1817.30957031 1398.18164062 1888.31738281 1511.98242188 c 0
 1959.32617188 1625.78320312 2008.58203125 1799.33789062 2008.58203125 2060.56542969 c 0
 2008.58203125 2321.79296875 1959.32617188 2495.34765625 1888.31738281 2609.1484375 c 0
 1817.30957031 2722.94921875 1722.02929688 2788.90917969 1587.92675781 2821.47265625 c 0
 1547.21777344 2831.35839844 1503.02636719 2837.17871094 1455.95019531 2839.18457031 c 1
 1455.95019531 1281.94628906 l 1
2440.16113281 -571 m 1
 2440.16113281 1229 l 1
 2800.16113281 1229 l 1
 2800.16113281 -211 l 1
 3160.16113281 -211 l 1
 3160.16113281 1229 l 1
 3520.16113281 1229 l 1
 3520.16113281 -211 l 1
 3880.16113281 -211 l 1
 3880.16113281 1229 l 1
 4240.16113281 1229 l 1
 4240.16113281 -211 l 1
 4240.16113281 -571 l 1
 2440.16113281 -571 l 1
EndSplineSet
Validated: 33
EndChar

StartChar: su.kata
Encoding: 12473 12473 24
Width: 4478
Flags: HW
LayerCount: 2
Fore
SplineSet
1278.39355469 -770.573242188 m 0
 1259.87792969 -769.211914062 1241.90136719 -764.575195312 1225.42089844 -757.328125 c 0
 1161.46777344 -729.206054688 1116.42285156 -660.482421875 1116.42285156 -580.291015625 c 0
 1116.42285156 -555.2890625 1120.81835938 -531.404296875 1128.80761719 -509.518554688 c 2
 1128.80761719 -509.518554688 1707.671875 1076.32421875 1707.64257812 1076.25 c 1
 1709.41699219 1081.11230469 1711.39941406 1085.94824219 1713.52050781 1090.60351562 c 0
 1830.44726562 1347.27929688 1912.80859375 1602.31640625 1955.85546875 1831.28710938 c 1
 624.149414062 1831.28710938 l 1
 667.196289062 1602.31640625 749.55859375 1347.27929688 866.485351562 1090.60351562 c 0
 878.151367188 1064.99414062 884.987304688 1036.03320312 884.987304688 1005.4765625 c 0
 884.987304688 930.83984375 845.81640625 866.166015625 788.827148438 834.890625 c 0
 765.495117188 822.0859375 739.109375 814.583007812 711.26953125 814.583007812 c 0
 643.268554688 814.583007812 584.344726562 857.577148438 555.850585938 920.127929688 c 0
 313.961914062 1451.1171875 180.037109375 1987.90234375 266.220703125 2441.953125 c 0
 309.311523438 2668.97753906 416.453125 2877.1015625 592.750976562 3017.83203125 c 0
 769.048828125 3158.56152344 1003.80175781 3229 1290.00292969 3229 c 0
 1576.20410156 3229 1810.95507812 3158.56152344 1987.25390625 3017.83203125 c 0
 2163.55175781 2877.1015625 2270.69238281 2668.97753906 2313.78417969 2441.953125 c 0
 2399.55664062 1990.06445312 2267.27246094 1456.22851562 2027.56152344 927.71484375 c 1
 2027.56152344 927.71484375 1451.41894531 -651.1796875 1451.19726562 -651.286132812 c 0
 1425.57519531 -721.48046875 1363.21386719 -771.004882812 1290.15234375 -771.004882812 c 0
 1286.20117188 -771.004882812 1282.27929688 -770.859375 1278.39355469 -770.573242188 c 0
1989.70117188 2212.48144531 m 1
 1987.8984375 2266.6015625 1982.66699219 2317.40527344 1973.78320312 2364.20605469 c 0
 1944.52050781 2518.375 1885.24609375 2627.91210938 1782.98046875 2709.54589844 c 0
 1680.71386719 2791.17871094 1524.75195312 2847.80566406 1290.00292969 2847.80566406 c 0
 1055.25292969 2847.80566406 899.290039062 2791.17871094 797.024414062 2709.54589844 c 0
 694.758789062 2627.91210938 635.484375 2518.375 606.221679688 2364.20605469 c 0
 597.337890625 2317.40527344 592.106445312 2266.6015625 590.303710938 2212.48144531 c 1
 1989.70117188 2212.48144531 l 1
4240 1229 m 1
 4240 -571 l 1
 3880 -571 l 1
 3880 869 l 1
 2800 869 l 1
 2800 -571 l 1
 2440 -571 l 1
 2440 29 2440 629 2440 1229 c 1
 4240 1229 l 1
EndSplineSet
Validated: 33
EndChar

StartChar: zu.kata
Encoding: 12474 12474 25
Width: 4478
Flags: HW
LayerCount: 2
Fore
SplineSet
1301.60644531 -770.573242188 m 0
 1297.72070312 -770.859375 1293.79882812 -771.004882812 1289.84765625 -771.004882812 c 0
 1216.78613281 -771.004882812 1154.42480469 -721.48046875 1128.80273438 -651.286132812 c 0
 1128.58105469 -651.1796875 552.438476562 927.71484375 552.438476562 927.71484375 c 1
 312.727539062 1456.22851562 180.443359375 1990.06445312 266.215820312 2441.953125 c 0
 309.307617188 2668.97753906 416.448242188 2877.1015625 592.74609375 3017.83203125 c 0
 769.044921875 3158.56152344 1003.79589844 3229 1289.99707031 3229 c 0
 1576.19824219 3229 1810.95117188 3158.56152344 1987.24902344 3017.83203125 c 0
 2163.546875 2877.1015625 2270.68847656 2668.97753906 2313.77929688 2441.953125 c 0
 2399.96289062 1987.90234375 2266.03808594 1451.1171875 2024.14941406 920.127929688 c 0
 1995.65527344 857.577148438 1936.73144531 814.583007812 1868.73046875 814.583007812 c 0
 1840.890625 814.583007812 1814.50488281 822.0859375 1791.17285156 834.890625 c 0
 1734.18359375 866.166015625 1695.01269531 930.83984375 1695.01269531 1005.4765625 c 0
 1695.01269531 1036.03320312 1701.84863281 1064.99414062 1713.51464844 1090.60351562 c 0
 1830.44140625 1347.27929688 1912.80371094 1602.31640625 1955.85058594 1831.28710938 c 1
 624.14453125 1831.28710938 l 1
 667.19140625 1602.31640625 749.552734375 1347.27929688 866.479492188 1090.60351562 c 0
 868.600585938 1085.94824219 870.583007812 1081.11230469 872.357421875 1076.25 c 1
 872.328125 1076.32421875 1451.19238281 -509.518554688 1451.19238281 -509.518554688 c 2
 1459.18164062 -531.404296875 1463.57714844 -555.2890625 1463.57714844 -580.291015625 c 0
 1463.57714844 -660.482421875 1418.53222656 -729.206054688 1354.57910156 -757.328125 c 0
 1338.09863281 -764.575195312 1320.12207031 -769.211914062 1301.60644531 -770.573242188 c 0
590.298828125 2212.48144531 m 1
 1989.69628906 2212.48144531 l 1
 1987.89355469 2266.6015625 1982.66210938 2317.40527344 1973.77832031 2364.20605469 c 0
 1944.515625 2518.375 1885.24121094 2627.91210938 1782.97558594 2709.54589844 c 0
 1680.70996094 2791.17871094 1524.74707031 2847.80566406 1289.99707031 2847.80566406 c 0
 1055.24804688 2847.80566406 899.28515625 2791.17871094 797.01953125 2709.54589844 c 0
 694.75390625 2627.91210938 635.479492188 2518.375 606.216796875 2364.20605469 c 0
 597.333007812 2317.40527344 592.1015625 2266.6015625 590.298828125 2212.48144531 c 1
4240 1229 m 1
 4240 -571 l 1
 3880 -571 l 1
 3880 869 l 1
 2800 869 l 1
 2800 -571 l 1
 2440 -571 l 1
 2440 29 2440 629 2440 1229 c 1
 4240 1229 l 1
EndSplineSet
Validated: 33
EndChar

StartChar: se.kata
Encoding: 12475 12475 26
Width: 4478
Flags: HW
LayerCount: 2
Fore
SplineSet
1278.39355469 -770.573242188 m 0
 1259.87792969 -769.211914062 1241.90136719 -764.575195312 1225.42089844 -757.328125 c 0
 1161.46777344 -729.206054688 1116.42285156 -660.482421875 1116.42285156 -580.291015625 c 0
 1116.42285156 -555.2890625 1120.81835938 -531.404296875 1128.80761719 -509.518554688 c 2
 1128.80761719 -509.518554688 1707.671875 1076.32421875 1707.64257812 1076.25 c 1
 1709.41699219 1081.11230469 1711.39941406 1085.94824219 1713.52050781 1090.60351562 c 0
 1830.44726562 1347.27929688 1912.80859375 1602.31640625 1955.85546875 1831.28710938 c 1
 624.149414062 1831.28710938 l 1
 667.196289062 1602.31640625 749.55859375 1347.27929688 866.485351562 1090.60351562 c 0
 878.151367188 1064.99414062 884.987304688 1036.03320312 884.987304688 1005.4765625 c 0
 884.987304688 930.83984375 845.81640625 866.166015625 788.827148438 834.890625 c 0
 765.495117188 822.0859375 739.109375 814.583007812 711.26953125 814.583007812 c 0
 643.268554688 814.583007812 584.344726562 857.577148438 555.850585938 920.127929688 c 0
 313.961914062 1451.1171875 180.037109375 1987.90234375 266.220703125 2441.953125 c 0
 309.311523438 2668.97753906 416.453125 2877.1015625 592.750976562 3017.83203125 c 0
 769.048828125 3158.56152344 1003.80175781 3229 1290.00292969 3229 c 0
 1576.20410156 3229 1810.95507812 3158.56152344 1987.25390625 3017.83203125 c 0
 2163.55175781 2877.1015625 2270.69238281 2668.97753906 2313.78417969 2441.953125 c 0
 2399.55664062 1990.06445312 2267.27246094 1456.22851562 2027.56152344 927.71484375 c 1
 2027.56152344 927.71484375 1451.41894531 -651.1796875 1451.19726562 -651.286132812 c 0
 1425.57519531 -721.48046875 1363.21386719 -771.004882812 1290.15234375 -771.004882812 c 0
 1286.20117188 -771.004882812 1282.27929688 -770.859375 1278.39355469 -770.573242188 c 0
1989.70117188 2212.48144531 m 1
 1987.8984375 2266.6015625 1982.66699219 2317.40527344 1973.78320312 2364.20605469 c 0
 1944.52050781 2518.375 1885.24609375 2627.91210938 1782.98046875 2709.54589844 c 0
 1680.71386719 2791.17871094 1524.75195312 2847.80566406 1290.00292969 2847.80566406 c 0
 1055.25292969 2847.80566406 899.290039062 2791.17871094 797.024414062 2709.54589844 c 0
 694.758789062 2627.91210938 635.484375 2518.375 606.221679688 2364.20605469 c 0
 597.337890625 2317.40527344 592.106445312 2266.6015625 590.303710938 2212.48144531 c 1
 1989.70117188 2212.48144531 l 1
2440 1229 m 1
 4240 1229 l 1
 4240 869 l 1
 2800 869 l 1
 2800 509 l 1
 4240 509 l 1
 4240 149 l 1
 2800 149 l 1
 2800 -211 l 1
 4240 -211 l 1
 4240 -571 l 1
 2440 -571 l 1
 2440 1229 l 1
EndSplineSet
Validated: 33
EndChar

StartChar: ze.kata
Encoding: 12476 12476 27
Width: 4478
Flags: HW
LayerCount: 2
Fore
SplineSet
1301.60644531 -770.573242188 m 0
 1297.72070312 -770.859375 1293.79882812 -771.004882812 1289.84765625 -771.004882812 c 0
 1216.78613281 -771.004882812 1154.42480469 -721.48046875 1128.80273438 -651.286132812 c 0
 1128.58105469 -651.1796875 552.438476562 927.71484375 552.438476562 927.71484375 c 1
 312.727539062 1456.22851562 180.443359375 1990.06445312 266.215820312 2441.953125 c 0
 309.307617188 2668.97753906 416.448242188 2877.1015625 592.74609375 3017.83203125 c 0
 769.044921875 3158.56152344 1003.79589844 3229 1289.99707031 3229 c 0
 1576.19824219 3229 1810.95117188 3158.56152344 1987.24902344 3017.83203125 c 0
 2163.546875 2877.1015625 2270.68847656 2668.97753906 2313.77929688 2441.953125 c 0
 2399.96289062 1987.90234375 2266.03808594 1451.1171875 2024.14941406 920.127929688 c 0
 1995.65527344 857.577148438 1936.73144531 814.583007812 1868.73046875 814.583007812 c 0
 1840.890625 814.583007812 1814.50488281 822.0859375 1791.17285156 834.890625 c 0
 1734.18359375 866.166015625 1695.01269531 930.83984375 1695.01269531 1005.4765625 c 0
 1695.01269531 1036.03320312 1701.84863281 1064.99414062 1713.51464844 1090.60351562 c 0
 1830.44140625 1347.27929688 1912.80371094 1602.31640625 1955.85058594 1831.28710938 c 1
 624.14453125 1831.28710938 l 1
 667.19140625 1602.31640625 749.552734375 1347.27929688 866.479492188 1090.60351562 c 0
 868.600585938 1085.94824219 870.583007812 1081.11230469 872.357421875 1076.25 c 1
 872.328125 1076.32421875 1451.19238281 -509.518554688 1451.19238281 -509.518554688 c 2
 1459.18164062 -531.404296875 1463.57714844 -555.2890625 1463.57714844 -580.291015625 c 0
 1463.57714844 -660.482421875 1418.53222656 -729.206054688 1354.57910156 -757.328125 c 0
 1338.09863281 -764.575195312 1320.12207031 -769.211914062 1301.60644531 -770.573242188 c 0
590.298828125 2212.48144531 m 1
 1989.69628906 2212.48144531 l 1
 1987.89355469 2266.6015625 1982.66210938 2317.40527344 1973.77832031 2364.20605469 c 0
 1944.515625 2518.375 1885.24121094 2627.91210938 1782.97558594 2709.54589844 c 0
 1680.70996094 2791.17871094 1524.74707031 2847.80566406 1289.99707031 2847.80566406 c 0
 1055.24804688 2847.80566406 899.28515625 2791.17871094 797.01953125 2709.54589844 c 0
 694.75390625 2627.91210938 635.479492188 2518.375 606.216796875 2364.20605469 c 0
 597.333007812 2317.40527344 592.1015625 2266.6015625 590.298828125 2212.48144531 c 1
2440 1229 m 1
 4240 1229 l 1
 4240 869 l 1
 2800 869 l 1
 2800 509 l 1
 4240 509 l 1
 4240 149 l 1
 2800 149 l 1
 2800 -211 l 1
 4240 -211 l 1
 4240 -571 l 1
 2440 -571 l 1
 2440 1229 l 1
EndSplineSet
Validated: 33
EndChar

StartChar: so.kata
Encoding: 12477 12477 28
Width: 4478
Flags: HW
LayerCount: 2
Fore
SplineSet
1278.39355469 -770.573242188 m 0
 1259.87792969 -769.211914062 1241.90136719 -764.575195312 1225.42089844 -757.328125 c 0
 1161.46777344 -729.206054688 1116.42285156 -660.482421875 1116.42285156 -580.291015625 c 0
 1116.42285156 -555.2890625 1120.81835938 -531.404296875 1128.80761719 -509.518554688 c 2
 1128.80761719 -509.518554688 1707.671875 1076.32421875 1707.64257812 1076.25 c 1
 1709.41699219 1081.11230469 1711.39941406 1085.94824219 1713.52050781 1090.60351562 c 0
 1830.44726562 1347.27929688 1912.80859375 1602.31640625 1955.85546875 1831.28710938 c 1
 624.149414062 1831.28710938 l 1
 667.196289062 1602.31640625 749.55859375 1347.27929688 866.485351562 1090.60351562 c 0
 878.151367188 1064.99414062 884.987304688 1036.03320312 884.987304688 1005.4765625 c 0
 884.987304688 930.83984375 845.81640625 866.166015625 788.827148438 834.890625 c 0
 765.495117188 822.0859375 739.109375 814.583007812 711.26953125 814.583007812 c 0
 643.268554688 814.583007812 584.344726562 857.577148438 555.850585938 920.127929688 c 0
 313.961914062 1451.1171875 180.037109375 1987.90234375 266.220703125 2441.953125 c 0
 309.311523438 2668.97753906 416.453125 2877.1015625 592.750976562 3017.83203125 c 0
 769.048828125 3158.56152344 1003.80175781 3229 1290.00292969 3229 c 0
 1576.20410156 3229 1810.95507812 3158.56152344 1987.25390625 3017.83203125 c 0
 2163.55175781 2877.1015625 2270.69238281 2668.97753906 2313.78417969 2441.953125 c 0
 2399.55664062 1990.06445312 2267.27246094 1456.22851562 2027.56152344 927.71484375 c 1
 2027.56152344 927.71484375 1451.41894531 -651.1796875 1451.19726562 -651.286132812 c 0
 1425.57519531 -721.48046875 1363.21386719 -771.004882812 1290.15234375 -771.004882812 c 0
 1286.20117188 -771.004882812 1282.27929688 -770.859375 1278.39355469 -770.573242188 c 0
1989.70117188 2212.48144531 m 1
 1987.8984375 2266.6015625 1982.66699219 2317.40527344 1973.78320312 2364.20605469 c 0
 1944.52050781 2518.375 1885.24609375 2627.91210938 1782.98046875 2709.54589844 c 0
 1680.71386719 2791.17871094 1524.75195312 2847.80566406 1290.00292969 2847.80566406 c 0
 1055.25292969 2847.80566406 899.290039062 2791.17871094 797.024414062 2709.54589844 c 0
 694.758789062 2627.91210938 635.484375 2518.375 606.221679688 2364.20605469 c 0
 597.337890625 2317.40527344 592.106445312 2266.6015625 590.303710938 2212.48144531 c 1
 1989.70117188 2212.48144531 l 1
2440 1229 m 1
 4240 1229 l 1
 4240 869 l 1
 2800 869 l 1
 2800 -211 l 1
 4240 -211 l 1
 4240 -571 l 1
 3640 -571 3040 -571 2440 -571 c 1
 2440 1229 l 1
EndSplineSet
Validated: 33
EndChar

StartChar: zo.kata
Encoding: 12478 12478 29
Width: 4478
Flags: HW
LayerCount: 2
Fore
SplineSet
1301.60644531 -770.573242188 m 0
 1297.72070312 -770.859375 1293.79882812 -771.004882812 1289.84765625 -771.004882812 c 0
 1216.78613281 -771.004882812 1154.42480469 -721.48046875 1128.80273438 -651.286132812 c 0
 1128.58105469 -651.1796875 552.438476562 927.71484375 552.438476562 927.71484375 c 1
 312.727539062 1456.22851562 180.443359375 1990.06445312 266.215820312 2441.953125 c 0
 309.307617188 2668.97753906 416.448242188 2877.1015625 592.74609375 3017.83203125 c 0
 769.044921875 3158.56152344 1003.79589844 3229 1289.99707031 3229 c 0
 1576.19824219 3229 1810.95117188 3158.56152344 1987.24902344 3017.83203125 c 0
 2163.546875 2877.1015625 2270.68847656 2668.97753906 2313.77929688 2441.953125 c 0
 2399.96289062 1987.90234375 2266.03808594 1451.1171875 2024.14941406 920.127929688 c 0
 1995.65527344 857.577148438 1936.73144531 814.583007812 1868.73046875 814.583007812 c 0
 1840.890625 814.583007812 1814.50488281 822.0859375 1791.17285156 834.890625 c 0
 1734.18359375 866.166015625 1695.01269531 930.83984375 1695.01269531 1005.4765625 c 0
 1695.01269531 1036.03320312 1701.84863281 1064.99414062 1713.51464844 1090.60351562 c 0
 1830.44140625 1347.27929688 1912.80371094 1602.31640625 1955.85058594 1831.28710938 c 1
 624.14453125 1831.28710938 l 1
 667.19140625 1602.31640625 749.552734375 1347.27929688 866.479492188 1090.60351562 c 0
 868.600585938 1085.94824219 870.583007812 1081.11230469 872.357421875 1076.25 c 1
 872.328125 1076.32421875 1451.19238281 -509.518554688 1451.19238281 -509.518554688 c 2
 1459.18164062 -531.404296875 1463.57714844 -555.2890625 1463.57714844 -580.291015625 c 0
 1463.57714844 -660.482421875 1418.53222656 -729.206054688 1354.57910156 -757.328125 c 0
 1338.09863281 -764.575195312 1320.12207031 -769.211914062 1301.60644531 -770.573242188 c 0
590.298828125 2212.48144531 m 1
 1989.69628906 2212.48144531 l 1
 1987.89355469 2266.6015625 1982.66210938 2317.40527344 1973.77832031 2364.20605469 c 0
 1944.515625 2518.375 1885.24121094 2627.91210938 1782.97558594 2709.54589844 c 0
 1680.70996094 2791.17871094 1524.74707031 2847.80566406 1289.99707031 2847.80566406 c 0
 1055.24804688 2847.80566406 899.28515625 2791.17871094 797.01953125 2709.54589844 c 0
 694.75390625 2627.91210938 635.479492188 2518.375 606.216796875 2364.20605469 c 0
 597.333007812 2317.40527344 592.1015625 2266.6015625 590.298828125 2212.48144531 c 1
2440 1229 m 1
 4240 1229 l 1
 4240 869 l 1
 2800 869 l 1
 2800 -211 l 1
 4240 -211 l 1
 4240 -571 l 1
 3640 -571 3040 -571 2440 -571 c 1
 2440 1229 l 1
EndSplineSet
Validated: 33
EndChar

StartChar: ta.kata
Encoding: 12479 12479 30
Width: 4478
Flags: HW
LayerCount: 2
Fore
SplineSet
1278.39355469 3228.57324219 m 0
 1282.27929688 3228.859375 1286.20117188 3229.00488281 1290.15234375 3229.00488281 c 0
 1363.21386719 3229.00488281 1425.57519531 3179.48046875 1451.19726562 3109.28613281 c 0
 1451.41894531 3109.1796875 2027.56152344 1530.28515625 2027.56152344 1530.28515625 c 1
 2267.27246094 1001.77148438 2399.55664062 467.935546875 2313.78417969 16.0478515625 c 0
 2270.69238281 -210.977539062 2163.55175781 -419.1015625 1987.25390625 -559.831054688 c 0
 1810.95507812 -700.561523438 1576.20410156 -771 1290.00292969 -771 c 0
 1003.80175781 -771 769.048828125 -700.561523438 592.750976562 -559.831054688 c 0
 416.453125 -419.1015625 309.311523438 -210.977539062 266.220703125 16.0478515625 c 0
 180.037109375 470.09765625 313.961914062 1006.8828125 555.850585938 1537.87207031 c 0
 584.344726562 1600.42285156 643.268554688 1643.41699219 711.26953125 1643.41699219 c 0
 739.109375 1643.41699219 765.495117188 1635.9140625 788.827148438 1623.109375 c 0
 845.81640625 1591.83398438 884.987304688 1527.16015625 884.987304688 1452.5234375 c 0
 884.987304688 1421.96679688 878.151367188 1393.00585938 866.485351562 1367.39648438 c 0
 749.55859375 1110.72070312 667.196289062 855.68359375 624.149414062 626.712890625 c 1
 1955.85546875 626.712890625 l 1
 1912.80859375 855.68359375 1830.44726562 1110.72070312 1713.52050781 1367.39648438 c 0
 1711.39941406 1372.05175781 1709.41699219 1376.88769531 1707.64257812 1381.75 c 1
 1707.671875 1381.67578125 1128.80761719 2967.51855469 1128.80761719 2967.51855469 c 2
 1120.81835938 2989.40429688 1116.42285156 3013.2890625 1116.42285156 3038.29101562 c 0
 1116.42285156 3118.48242188 1161.46777344 3187.20605469 1225.42089844 3215.328125 c 0
 1241.90136719 3222.57617188 1259.87792969 3227.21191406 1278.39355469 3228.57324219 c 0
1989.70117188 245.518554688 m 1
 590.303710938 245.518554688 l 1
 592.106445312 191.3984375 597.337890625 140.595703125 606.221679688 93.7939453125 c 0
 635.484375 -60.375 694.758789062 -169.912109375 797.024414062 -251.545898438 c 0
 899.290039062 -333.178710938 1055.25292969 -389.805664062 1290.00292969 -389.805664062 c 0
 1524.75195312 -389.805664062 1680.71386719 -333.178710938 1782.98046875 -251.545898438 c 0
 1885.24609375 -169.912109375 1944.52050781 -60.375 1973.78320312 93.7939453125 c 0
 1982.66699219 140.595703125 1987.8984375 191.3984375 1989.70117188 245.518554688 c 1
2440 -571 m 1
 2440 1229 l 1
 2800 1229 l 1
 2800 -211 l 1
 3880 -211 l 1
 3880 1229 l 1
 4240 1229 l 1
 4240 629 4240 29 4240 -571 c 1
 2440 -571 l 1
EndSplineSet
Validated: 33
EndChar

StartChar: da.kata
Encoding: 12480 12480 31
Width: 4478
Flags: HW
LayerCount: 2
Fore
SplineSet
1301.60644531 3228.57324219 m 0
 1320.12207031 3227.21191406 1338.09863281 3222.57617188 1354.57910156 3215.328125 c 0
 1418.53222656 3187.20605469 1463.57714844 3118.48242188 1463.57714844 3038.29101562 c 0
 1463.57714844 3013.2890625 1459.18164062 2989.40429688 1451.19238281 2967.51855469 c 2
 1451.19238281 2967.51855469 872.328125 1381.67578125 872.357421875 1381.75 c 1
 870.583007812 1376.88769531 868.600585938 1372.05175781 866.479492188 1367.39648438 c 0
 749.552734375 1110.72070312 667.19140625 855.68359375 624.14453125 626.712890625 c 1
 1955.85058594 626.712890625 l 1
 1912.80371094 855.68359375 1830.44140625 1110.72070312 1713.51464844 1367.39648438 c 0
 1701.84863281 1393.00585938 1695.01269531 1421.96679688 1695.01269531 1452.5234375 c 0
 1695.01269531 1527.16015625 1734.18359375 1591.83398438 1791.17285156 1623.109375 c 0
 1814.50488281 1635.9140625 1840.890625 1643.41699219 1868.73046875 1643.41699219 c 0
 1936.73144531 1643.41699219 1995.65527344 1600.42285156 2024.14941406 1537.87207031 c 0
 2266.03808594 1006.8828125 2399.96289062 470.09765625 2313.77929688 16.0478515625 c 0
 2270.68847656 -210.977539062 2163.546875 -419.1015625 1987.24902344 -559.831054688 c 0
 1810.95117188 -700.561523438 1576.19824219 -771 1289.99707031 -771 c 0
 1003.79589844 -771 769.044921875 -700.561523438 592.74609375 -559.831054688 c 0
 416.448242188 -419.1015625 309.307617188 -210.977539062 266.215820312 16.0478515625 c 0
 180.443359375 467.935546875 312.727539062 1001.77148438 552.438476562 1530.28515625 c 1
 552.438476562 1530.28515625 1128.58105469 3109.1796875 1128.80273438 3109.28613281 c 0
 1154.42480469 3179.48046875 1216.78613281 3229.00488281 1289.84765625 3229.00488281 c 0
 1293.79882812 3229.00488281 1297.72070312 3228.859375 1301.60644531 3228.57324219 c 0
590.298828125 245.518554688 m 1
 592.1015625 191.3984375 597.333007812 140.595703125 606.216796875 93.7939453125 c 0
 635.479492188 -60.375 694.75390625 -169.912109375 797.01953125 -251.545898438 c 0
 899.28515625 -333.178710938 1055.24804688 -389.805664062 1289.99707031 -389.805664062 c 0
 1524.74707031 -389.805664062 1680.70996094 -333.178710938 1782.97558594 -251.545898438 c 0
 1885.24121094 -169.912109375 1944.515625 -60.375 1973.77832031 93.7939453125 c 0
 1982.66210938 140.595703125 1987.89355469 191.3984375 1989.69628906 245.518554688 c 1
 590.298828125 245.518554688 l 1
2440 -571 m 1
 2440 1229 l 1
 2800 1229 l 1
 2800 -211 l 1
 3880 -211 l 1
 3880 1229 l 1
 4240 1229 l 1
 4240 629 4240 29 4240 -571 c 1
 2440 -571 l 1
EndSplineSet
Validated: 33
EndChar

StartChar: ti.kata
Encoding: 12481 12481 32
Width: 4480
Flags: HW
LayerCount: 2
Fore
SplineSet
2440 -571 m 1
 2440 1229 l 1
 2800 1229 l 1
 2800 -211 l 1
 3160 -211 l 1
 3160 1229 l 1
 3520 1229 l 1
 3520 -211 l 1
 3880 -211 l 1
 3880 1229 l 1
 4240 1229 l 1
 4240 -571 l 1
 2440 -571 l 1
1289.04589844 3228.99707031 m 0
 1289.37011719 3228.99902344 1289.57617188 3229.19433594 1289.90039062 3229.19433594 c 0
 1354.03710938 3229.19433594 1409.71679688 3186.65332031 1437.28417969 3124.48046875 c 2
 1437.28417969 3124.48046875 2321.43261719 1130.19238281 2321.49414062 1130.27441406 c 1
 2333.2421875 1103.7578125 2339.81738281 1073.59179688 2339.81738281 1041.71484375 c 0
 2339.81738281 935.053710938 2265.52148438 848.458007812 2174.01074219 848.458007812 c 0
 2147.44726562 848.458007812 2122.33398438 855.754882812 2100.06738281 868.721679688 c 0
 1876.79980469 998.836914062 1654.95800781 1090.48925781 1455.7890625 1138.39160156 c 1
 1455.7890625 -343.522460938 l 1
 1654.95800781 -295.620117188 1876.79980469 -203.967773438 2100.06738281 -73.8525390625 c 0
 2122.34277344 -60.8701171875 2147.53417969 -53.263671875 2174.11425781 -53.263671875 c 0
 2239.03613281 -53.263671875 2295.29199219 -96.853515625 2322.49707031 -160.270507812 c 0
 2333.63476562 -186.234375 2340.16113281 -215.595703125 2340.16113281 -246.576171875 c 0
 2340.16113281 -322.24609375 2302.76367188 -387.81640625 2248.35351562 -419.525390625 c 0
 1786.47753906 -688.696289062 1319.55957031 -837.725585938 924.608398438 -741.822265625 c 0
 727.131835938 -693.870117188 546.095703125 -574.64453125 423.682617188 -378.4609375 c 0
 301.270507812 -182.27734375 240 78.9521484375 240 397.434570312 c 0
 240 715.916992188 301.270507812 977.146484375 423.682617188 1173.33007812 c 0
 546.095703125 1369.51367188 727.131835938 1488.73925781 924.608398438 1536.69140625 c 0
 1196.18847656 1602.63769531 1501.796875 1552.76855469 1816.39550781 1427.66308594 c 1
 1816.39550781 1427.66308594 1142.44921875 2947.125 1142.71582031 2947.046875 c 1
 1130.95410156 2973.57324219 1124.04394531 3003.75195312 1124.04394531 3035.64746094 c 0
 1124.04394531 3110.40234375 1160.54199219 3175.30078125 1213.88476562 3207.43164062 c 0
 1236.37402344 3220.97753906 1262.04199219 3228.81542969 1289.04589844 3228.99707031 c 0
1124.2109375 1176.05371094 m 1
 1077.13476562 1174.04785156 1032.94335938 1168.2265625 992.234375 1158.34179688 c 0
 858.131835938 1125.77832031 762.8515625 1059.81835938 691.842773438 946.017578125 c 0
 620.834960938 832.216796875 571.579101562 658.662109375 571.579101562 397.434570312 c 0
 571.579101562 136.20703125 620.834960938 -37.34765625 691.842773438 -151.1484375 c 0
 762.8515625 -264.94921875 858.131835938 -330.909179688 992.234375 -363.47265625 c 0
 1032.94335938 -373.357421875 1077.13476562 -379.178710938 1124.2109375 -381.184570312 c 1
 1124.2109375 1176.05371094 l 1
EndSplineSet
Validated: 33
EndChar

StartChar: di.kata
Encoding: 12482 12482 33
Width: 4480
Flags: HW
LayerCount: 2
Fore
SplineSet
1291.11523438 3228.99707031 m 0
 1318.11914062 3228.81542969 1343.78710938 3220.97753906 1366.27636719 3207.43164062 c 0
 1419.61816406 3175.30078125 1456.1171875 3110.40234375 1456.1171875 3035.64746094 c 0
 1456.1171875 3003.75292969 1449.20605469 2973.57324219 1437.4453125 2947.046875 c 1
 1437.71191406 2947.125 763.765625 1427.66308594 763.765625 1427.66308594 c 1
 1078.36425781 1552.76855469 1383.97265625 1602.63769531 1655.55273438 1536.69140625 c 0
 1853.02929688 1488.73925781 2034.06542969 1369.51367188 2156.47851562 1173.33007812 c 0
 2278.890625 977.146484375 2340.16113281 715.916992188 2340.16113281 397.434570312 c 0
 2340.16113281 78.9521484375 2278.890625 -182.27734375 2156.47851562 -378.4609375 c 0
 2034.06542969 -574.64453125 1853.02929688 -693.870117188 1655.55273438 -741.822265625 c 0
 1260.6015625 -837.725585938 793.68359375 -688.696289062 331.807617188 -419.525390625 c 0
 277.397460938 -387.81640625 240 -322.24609375 240 -246.576171875 c 0
 240 -215.595703125 246.526367188 -186.234375 257.6640625 -160.270507812 c 0
 284.869140625 -96.853515625 341.125 -53.263671875 406.046875 -53.263671875 c 0
 432.626953125 -53.263671875 457.818359375 -60.8701171875 480.09375 -73.8525390625 c 0
 703.361328125 -203.967773438 925.203125 -295.620117188 1124.37207031 -343.522460938 c 1
 1124.37207031 1138.39160156 l 1
 925.203125 1090.48925781 703.361328125 998.836914062 480.09375 868.721679688 c 0
 457.827148438 855.754882812 432.713867188 848.458007812 406.150390625 848.458007812 c 0
 314.638671875 848.458007812 240.34375 935.053710938 240.34375 1041.71484375 c 0
 240.34375 1073.59179688 246.918945312 1103.7578125 258.666992188 1130.27441406 c 1
 258.728515625 1130.19238281 1142.87695312 3124.48046875 1142.87695312 3124.48046875 c 2
 1170.44433594 3186.65332031 1226.12402344 3229.19433594 1290.26074219 3229.19433594 c 0
 1290.58496094 3229.19433594 1290.79101562 3228.99902344 1291.11523438 3228.99707031 c 0
1455.95019531 1176.05371094 m 1
 1455.95019531 -381.184570312 l 1
 1503.02636719 -379.178710938 1547.21777344 -373.357421875 1587.92675781 -363.47265625 c 0
 1722.02929688 -330.909179688 1817.30957031 -264.94921875 1888.31738281 -151.1484375 c 0
 1959.32617188 -37.34765625 2008.58203125 136.20703125 2008.58203125 397.434570312 c 0
 2008.58203125 658.662109375 1959.32617188 832.216796875 1888.31738281 946.017578125 c 0
 1817.30957031 1059.81835938 1722.02929688 1125.77832031 1587.92675781 1158.34179688 c 0
 1547.21777344 1168.2265625 1503.02636719 1174.04785156 1455.95019531 1176.05371094 c 1
2440.16113281 -571 m 1
 2440.16113281 1229 l 1
 2800.16113281 1229 l 1
 2800.16113281 -211 l 1
 3160.16113281 -211 l 1
 3160.16113281 1229 l 1
 3520.16113281 1229 l 1
 3520.16113281 -211 l 1
 3880.16113281 -211 l 1
 3880.16113281 1229 l 1
 4240.16113281 1229 l 1
 4240.16113281 -211 l 1
 4240.16113281 -571 l 1
 2440.16113281 -571 l 1
EndSplineSet
Validated: 33
EndChar

StartChar: xtu.kata
Encoding: 12483 12483 34
Width: 2624
Flags: HW
LayerCount: 2
Fore
SplineSet
1097.75585938 -771 m 1
 240 1084.61132812 l 1
 240 1513.48925781 l 1
 1955.51074219 1513.48925781 l 1
 1955.51074219 1942.3671875 l 1
 240 1942.3671875 l 1
 240 3229 l 1
 2384.38867188 3229 l 1
 2384.38867188 2800.12207031 l 1
 668.877929688 2800.12207031 l 1
 668.877929688 2371.24414062 l 1
 2384.38867188 2371.24414062 l 1
 2384.38867188 1084.61132812 l 1
 668.877929688 1084.61132812 l 1
 1526.6328125 -771 l 1
 1097.75585938 -771 l 1
EndSplineSet
Validated: 1
EndChar

StartChar: tu.kata
Encoding: 12484 12484 35
Width: 4480
Flags: HW
LayerCount: 2
Fore
SplineSet
4240 1229 m 1
 4240 -571 l 1
 3880 -571 l 1
 3880 869 l 1
 2800 869 l 1
 2800 -571 l 1
 2440 -571 l 1
 2440 29 2440 629 2440 1229 c 1
 4240 1229 l 1
1173.54492188 3228.9921875 m 0
 1509.03710938 3230.22558594 1880.29589844 3092.02050781 2248.35351562 2877.52441406 c 0
 2302.76367188 2845.81640625 2339.90332031 2780.17089844 2339.90332031 2704.5 c 0
 2339.90332031 2673.52050781 2333.63476562 2644.23339844 2322.49707031 2618.27050781 c 0
 2295.29199219 2554.85253906 2238.97167969 2511.56445312 2174.04980469 2511.56445312 c 0
 2147.46972656 2511.56445312 2122.34277344 2518.87011719 2100.06738281 2531.8515625 c 0
 1677.73339844 2777.97851562 1260.44042969 2886.59863281 992.235351562 2821.47167969 c 0
 858.1328125 2788.90917969 762.8515625 2722.94824219 691.842773438 2609.14746094 c 0
 640.041992188 2526.12988281 599.845703125 2411.25878906 581.875 2253.80175781 c 1
 1621.57910156 2253.80175781 l 1
 1713.08007812 2253.80175781 1787.36816406 2167.21582031 1787.36816406 2060.56542969 c 0
 1787.36816406 1953.91503906 1713.08007812 1867.328125 1621.57910156 1867.328125 c 2
 581.875 1867.328125 l 1
 599.845703125 1709.87207031 640.041992188 1595.00195312 691.842773438 1511.98339844 c 0
 762.8515625 1398.18261719 858.1328125 1332.22265625 992.235351562 1299.65917969 c 0
 1260.44042969 1234.53320312 1677.73339844 1343.15136719 2100.06738281 1589.27832031 c 0
 2122.33398438 1602.24511719 2147.50878906 1609.45996094 2174.07226562 1609.45996094 c 0
 2265.58300781 1609.45996094 2339.87792969 1522.86425781 2339.87792969 1416.203125 c 0
 2339.87792969 1384.32617188 2333.2421875 1354.2421875 2321.49414062 1327.72558594 c 2
 2321.49414062 1327.72558594 1437.21679688 -666.168945312 1437.28417969 -666.479492188 c 0
 1409.71679688 -728.653320312 1353.96972656 -770.883789062 1289.83300781 -770.883789062 c 0
 1262.46875 -770.883789062 1236.64355469 -763.139648438 1213.88476562 -749.430664062 c 0
 1160.54199219 -717.299804688 1124.31054688 -652.323242188 1124.31054688 -577.568359375 c 0
 1124.31054688 -545.672851562 1130.95410156 -515.572265625 1142.71582031 -489.044921875 c 2
 1816.39453125 1030.3359375 l 1
 1501.796875 905.23046875 1196.18847656 855.362304688 924.608398438 921.30859375 c 0
 727.131835938 969.260742188 546.095703125 1088.48632812 423.682617188 1284.66992188 c 0
 301.270507812 1480.85253906 240 1742.08203125 240 2060.56542969 c 0
 240 2379.04785156 301.270507812 2640.27832031 423.682617188 2836.46191406 c 0
 546.095703125 3032.64453125 727.131835938 3151.87109375 924.608398438 3199.82226562 c 0
 1004.83300781 3219.30273438 1088.02734375 3228.67773438 1173.54492188 3228.9921875 c 0
EndSplineSet
Validated: 33
EndChar

StartChar: du.kata
Encoding: 12485 12485 36
Width: 4479
Flags: HW
LayerCount: 2
Fore
SplineSet
4239.90332031 1229 m 1
 4239.90332031 -571 l 1
 3879.90332031 -571 l 1
 3879.90332031 869 l 1
 2799.90332031 869 l 1
 2799.90332031 -571 l 1
 2439.90332031 -571 l 1
 2439.90332031 29 2439.90332031 629 2439.90332031 1229 c 1
 4239.90332031 1229 l 1
1406.35839844 3228.9921875 m 0
 1491.87597656 3228.67773438 1575.0703125 3219.30273438 1655.29492188 3199.82226562 c 0
 1852.77148438 3151.87109375 2033.80761719 3032.64453125 2156.22070312 2836.46191406 c 0
 2278.6328125 2640.27832031 2339.90332031 2379.04785156 2339.90332031 2060.56542969 c 0
 2339.90332031 1742.08203125 2278.6328125 1480.85253906 2156.22070312 1284.66992188 c 0
 2033.80761719 1088.48632812 1852.77148438 969.260742188 1655.29492188 921.30859375 c 0
 1383.71484375 855.362304688 1078.10644531 905.23046875 763.508789062 1030.3359375 c 1
 1437.1875 -489.044921875 l 2
 1448.94921875 -515.572265625 1455.59277344 -545.672851562 1455.59277344 -577.568359375 c 0
 1455.59277344 -652.323242188 1419.36132812 -717.299804688 1366.01855469 -749.430664062 c 0
 1343.25976562 -763.139648438 1317.43457031 -770.883789062 1290.0703125 -770.883789062 c 0
 1225.93359375 -770.883789062 1170.18652344 -728.653320312 1142.61914062 -666.479492188 c 0
 1142.68652344 -666.168945312 258.409179688 1327.72558594 258.409179688 1327.72558594 c 2
 246.661132812 1354.2421875 240.024414062 1384.32617188 240.024414062 1416.203125 c 0
 240.024414062 1522.86425781 314.3203125 1609.45996094 405.831054688 1609.45996094 c 0
 432.39453125 1609.45996094 457.569335938 1602.24511719 479.8359375 1589.27832031 c 0
 902.169921875 1343.15136719 1319.46289062 1234.53320312 1587.66796875 1299.65917969 c 0
 1721.77050781 1332.22265625 1817.05175781 1398.18261719 1888.06054688 1511.98339844 c 0
 1939.86132812 1595.00195312 1980.05761719 1709.87207031 1998.02832031 1867.328125 c 1
 958.32421875 1867.328125 l 2
 866.822265625 1867.328125 792.53515625 1953.91503906 792.53515625 2060.56542969 c 0
 792.53515625 2167.21582031 866.822265625 2253.80175781 958.32421875 2253.80175781 c 1
 1998.02832031 2253.80175781 l 1
 1980.05761719 2411.25878906 1939.86132812 2526.12988281 1888.06054688 2609.14746094 c 0
 1817.05175781 2722.94824219 1721.77050781 2788.90917969 1587.66796875 2821.47167969 c 0
 1319.46289062 2886.59863281 902.169921875 2777.97851562 479.8359375 2531.8515625 c 0
 457.560546875 2518.87011719 432.43359375 2511.56445312 405.853515625 2511.56445312 c 0
 340.931640625 2511.56445312 284.611328125 2554.85253906 257.40625 2618.27050781 c 0
 246.268554688 2644.23339844 240 2673.52050781 240 2704.5 c 0
 240 2780.17089844 277.139648438 2845.81640625 331.549804688 2877.52441406 c 0
 699.607421875 3092.02050781 1070.86621094 3230.22558594 1406.35839844 3228.9921875 c 0
EndSplineSet
Validated: 33
EndChar

StartChar: te.kata
Encoding: 12486 12486 37
Width: 4478
Flags: HW
LayerCount: 2
Fore
SplineSet
1278.39355469 3228.57324219 m 0
 1282.27929688 3228.859375 1286.20117188 3229.00488281 1290.15234375 3229.00488281 c 0
 1363.21386719 3229.00488281 1425.57519531 3179.48046875 1451.19726562 3109.28613281 c 0
 1451.41894531 3109.1796875 2027.56152344 1530.28515625 2027.56152344 1530.28515625 c 1
 2267.27246094 1001.77148438 2399.55664062 467.935546875 2313.78417969 16.0478515625 c 0
 2270.69238281 -210.977539062 2163.55175781 -419.1015625 1987.25390625 -559.831054688 c 0
 1810.95507812 -700.561523438 1576.20410156 -771 1290.00292969 -771 c 0
 1003.80175781 -771 769.048828125 -700.561523438 592.750976562 -559.831054688 c 0
 416.453125 -419.1015625 309.311523438 -210.977539062 266.220703125 16.0478515625 c 0
 180.037109375 470.09765625 313.961914062 1006.8828125 555.850585938 1537.87207031 c 0
 584.344726562 1600.42285156 643.268554688 1643.41699219 711.26953125 1643.41699219 c 0
 739.109375 1643.41699219 765.495117188 1635.9140625 788.827148438 1623.109375 c 0
 845.81640625 1591.83398438 884.987304688 1527.16015625 884.987304688 1452.5234375 c 0
 884.987304688 1421.96679688 878.151367188 1393.00585938 866.485351562 1367.39648438 c 0
 749.55859375 1110.72070312 667.196289062 855.68359375 624.149414062 626.712890625 c 1
 1955.85546875 626.712890625 l 1
 1912.80859375 855.68359375 1830.44726562 1110.72070312 1713.52050781 1367.39648438 c 0
 1711.39941406 1372.05175781 1709.41699219 1376.88769531 1707.64257812 1381.75 c 1
 1707.671875 1381.67578125 1128.80761719 2967.51855469 1128.80761719 2967.51855469 c 2
 1120.81835938 2989.40429688 1116.42285156 3013.2890625 1116.42285156 3038.29101562 c 0
 1116.42285156 3118.48242188 1161.46777344 3187.20605469 1225.42089844 3215.328125 c 0
 1241.90136719 3222.57617188 1259.87792969 3227.21191406 1278.39355469 3228.57324219 c 0
1989.70117188 245.518554688 m 1
 590.303710938 245.518554688 l 1
 592.106445312 191.3984375 597.337890625 140.595703125 606.221679688 93.7939453125 c 0
 635.484375 -60.375 694.758789062 -169.912109375 797.024414062 -251.545898438 c 0
 899.290039062 -333.178710938 1055.25292969 -389.805664062 1290.00292969 -389.805664062 c 0
 1524.75195312 -389.805664062 1680.71386719 -333.178710938 1782.98046875 -251.545898438 c 0
 1885.24609375 -169.912109375 1944.52050781 -60.375 1973.78320312 93.7939453125 c 0
 1982.66699219 140.595703125 1987.8984375 191.3984375 1989.70117188 245.518554688 c 1
2440 1229 m 1
 4240 1229 l 1
 4240 869 l 1
 2800 869 l 1
 2800 509 l 1
 4240 509 l 1
 4240 149 l 1
 2800 149 l 1
 2800 -211 l 1
 4240 -211 l 1
 4240 -571 l 1
 2440 -571 l 1
 2440 1229 l 1
EndSplineSet
Validated: 33
EndChar

StartChar: de.kata
Encoding: 12487 12487 38
Width: 4478
Flags: HW
LayerCount: 2
Fore
SplineSet
1301.60644531 3228.57324219 m 0
 1320.12207031 3227.21191406 1338.09863281 3222.57617188 1354.57910156 3215.328125 c 0
 1418.53222656 3187.20605469 1463.57714844 3118.48242188 1463.57714844 3038.29101562 c 0
 1463.57714844 3013.2890625 1459.18164062 2989.40429688 1451.19238281 2967.51855469 c 2
 1451.19238281 2967.51855469 872.328125 1381.67578125 872.357421875 1381.75 c 1
 870.583007812 1376.88769531 868.600585938 1372.05175781 866.479492188 1367.39648438 c 0
 749.552734375 1110.72070312 667.19140625 855.68359375 624.14453125 626.712890625 c 1
 1955.85058594 626.712890625 l 1
 1912.80371094 855.68359375 1830.44140625 1110.72070312 1713.51464844 1367.39648438 c 0
 1701.84863281 1393.00585938 1695.01269531 1421.96679688 1695.01269531 1452.5234375 c 0
 1695.01269531 1527.16015625 1734.18359375 1591.83398438 1791.17285156 1623.109375 c 0
 1814.50488281 1635.9140625 1840.890625 1643.41699219 1868.73046875 1643.41699219 c 0
 1936.73144531 1643.41699219 1995.65527344 1600.42285156 2024.14941406 1537.87207031 c 0
 2266.03808594 1006.8828125 2399.96289062 470.09765625 2313.77929688 16.0478515625 c 0
 2270.68847656 -210.977539062 2163.546875 -419.1015625 1987.24902344 -559.831054688 c 0
 1810.95117188 -700.561523438 1576.19824219 -771 1289.99707031 -771 c 0
 1003.79589844 -771 769.044921875 -700.561523438 592.74609375 -559.831054688 c 0
 416.448242188 -419.1015625 309.307617188 -210.977539062 266.215820312 16.0478515625 c 0
 180.443359375 467.935546875 312.727539062 1001.77148438 552.438476562 1530.28515625 c 1
 552.438476562 1530.28515625 1128.58105469 3109.1796875 1128.80273438 3109.28613281 c 0
 1154.42480469 3179.48046875 1216.78613281 3229.00488281 1289.84765625 3229.00488281 c 0
 1293.79882812 3229.00488281 1297.72070312 3228.859375 1301.60644531 3228.57324219 c 0
590.298828125 245.518554688 m 1
 592.1015625 191.3984375 597.333007812 140.595703125 606.216796875 93.7939453125 c 0
 635.479492188 -60.375 694.75390625 -169.912109375 797.01953125 -251.545898438 c 0
 899.28515625 -333.178710938 1055.24804688 -389.805664062 1289.99707031 -389.805664062 c 0
 1524.74707031 -389.805664062 1680.70996094 -333.178710938 1782.97558594 -251.545898438 c 0
 1885.24121094 -169.912109375 1944.515625 -60.375 1973.77832031 93.7939453125 c 0
 1982.66210938 140.595703125 1987.89355469 191.3984375 1989.69628906 245.518554688 c 1
 590.298828125 245.518554688 l 1
2440 1229 m 1
 4240 1229 l 1
 4240 869 l 1
 2800 869 l 1
 2800 509 l 1
 4240 509 l 1
 4240 149 l 1
 2800 149 l 1
 2800 -211 l 1
 4240 -211 l 1
 4240 -571 l 1
 2440 -571 l 1
 2440 1229 l 1
EndSplineSet
Validated: 33
EndChar

StartChar: to.kata
Encoding: 12488 12488 39
Width: 4478
Flags: HW
LayerCount: 2
Fore
SplineSet
1278.39355469 3228.57324219 m 0
 1282.27929688 3228.859375 1286.20117188 3229.00488281 1290.15234375 3229.00488281 c 0
 1363.21386719 3229.00488281 1425.57519531 3179.48046875 1451.19726562 3109.28613281 c 0
 1451.41894531 3109.1796875 2027.56152344 1530.28515625 2027.56152344 1530.28515625 c 1
 2267.27246094 1001.77148438 2399.55664062 467.935546875 2313.78417969 16.0478515625 c 0
 2270.69238281 -210.977539062 2163.55175781 -419.1015625 1987.25390625 -559.831054688 c 0
 1810.95507812 -700.561523438 1576.20410156 -771 1290.00292969 -771 c 0
 1003.80175781 -771 769.048828125 -700.561523438 592.750976562 -559.831054688 c 0
 416.453125 -419.1015625 309.311523438 -210.977539062 266.220703125 16.0478515625 c 0
 180.037109375 470.09765625 313.961914062 1006.8828125 555.850585938 1537.87207031 c 0
 584.344726562 1600.42285156 643.268554688 1643.41699219 711.26953125 1643.41699219 c 0
 739.109375 1643.41699219 765.495117188 1635.9140625 788.827148438 1623.109375 c 0
 845.81640625 1591.83398438 884.987304688 1527.16015625 884.987304688 1452.5234375 c 0
 884.987304688 1421.96679688 878.151367188 1393.00585938 866.485351562 1367.39648438 c 0
 749.55859375 1110.72070312 667.196289062 855.68359375 624.149414062 626.712890625 c 1
 1955.85546875 626.712890625 l 1
 1912.80859375 855.68359375 1830.44726562 1110.72070312 1713.52050781 1367.39648438 c 0
 1711.39941406 1372.05175781 1709.41699219 1376.88769531 1707.64257812 1381.75 c 1
 1707.671875 1381.67578125 1128.80761719 2967.51855469 1128.80761719 2967.51855469 c 2
 1120.81835938 2989.40429688 1116.42285156 3013.2890625 1116.42285156 3038.29101562 c 0
 1116.42285156 3118.48242188 1161.46777344 3187.20605469 1225.42089844 3215.328125 c 0
 1241.90136719 3222.57617188 1259.87792969 3227.21191406 1278.39355469 3228.57324219 c 0
1989.70117188 245.518554688 m 1
 590.303710938 245.518554688 l 1
 592.106445312 191.3984375 597.337890625 140.595703125 606.221679688 93.7939453125 c 0
 635.484375 -60.375 694.758789062 -169.912109375 797.024414062 -251.545898438 c 0
 899.290039062 -333.178710938 1055.25292969 -389.805664062 1290.00292969 -389.805664062 c 0
 1524.75195312 -389.805664062 1680.71386719 -333.178710938 1782.98046875 -251.545898438 c 0
 1885.24609375 -169.912109375 1944.52050781 -60.375 1973.78320312 93.7939453125 c 0
 1982.66699219 140.595703125 1987.8984375 191.3984375 1989.70117188 245.518554688 c 1
2440 1229 m 1
 4240 1229 l 1
 4240 869 l 1
 2800 869 l 1
 2800 -211 l 1
 4240 -211 l 1
 4240 -571 l 1
 3640 -571 3040 -571 2440 -571 c 1
 2440 1229 l 1
EndSplineSet
Validated: 33
EndChar

StartChar: do.kata
Encoding: 12489 12489 40
Width: 4478
Flags: HW
LayerCount: 2
Fore
SplineSet
1301.60644531 3228.57324219 m 0
 1320.12207031 3227.21191406 1338.09863281 3222.57617188 1354.57910156 3215.328125 c 0
 1418.53222656 3187.20605469 1463.57714844 3118.48242188 1463.57714844 3038.29101562 c 0
 1463.57714844 3013.2890625 1459.18164062 2989.40429688 1451.19238281 2967.51855469 c 2
 1451.19238281 2967.51855469 872.328125 1381.67578125 872.357421875 1381.75 c 1
 870.583007812 1376.88769531 868.600585938 1372.05175781 866.479492188 1367.39648438 c 0
 749.552734375 1110.72070312 667.19140625 855.68359375 624.14453125 626.712890625 c 1
 1955.85058594 626.712890625 l 1
 1912.80371094 855.68359375 1830.44140625 1110.72070312 1713.51464844 1367.39648438 c 0
 1701.84863281 1393.00585938 1695.01269531 1421.96679688 1695.01269531 1452.5234375 c 0
 1695.01269531 1527.16015625 1734.18359375 1591.83398438 1791.17285156 1623.109375 c 0
 1814.50488281 1635.9140625 1840.890625 1643.41699219 1868.73046875 1643.41699219 c 0
 1936.73144531 1643.41699219 1995.65527344 1600.42285156 2024.14941406 1537.87207031 c 0
 2266.03808594 1006.8828125 2399.96289062 470.09765625 2313.77929688 16.0478515625 c 0
 2270.68847656 -210.977539062 2163.546875 -419.1015625 1987.24902344 -559.831054688 c 0
 1810.95117188 -700.561523438 1576.19824219 -771 1289.99707031 -771 c 0
 1003.79589844 -771 769.044921875 -700.561523438 592.74609375 -559.831054688 c 0
 416.448242188 -419.1015625 309.307617188 -210.977539062 266.215820312 16.0478515625 c 0
 180.443359375 467.935546875 312.727539062 1001.77148438 552.438476562 1530.28515625 c 1
 552.438476562 1530.28515625 1128.58105469 3109.1796875 1128.80273438 3109.28613281 c 0
 1154.42480469 3179.48046875 1216.78613281 3229.00488281 1289.84765625 3229.00488281 c 0
 1293.79882812 3229.00488281 1297.72070312 3228.859375 1301.60644531 3228.57324219 c 0
590.298828125 245.518554688 m 1
 592.1015625 191.3984375 597.333007812 140.595703125 606.216796875 93.7939453125 c 0
 635.479492188 -60.375 694.75390625 -169.912109375 797.01953125 -251.545898438 c 0
 899.28515625 -333.178710938 1055.24804688 -389.805664062 1289.99707031 -389.805664062 c 0
 1524.74707031 -389.805664062 1680.70996094 -333.178710938 1782.97558594 -251.545898438 c 0
 1885.24121094 -169.912109375 1944.515625 -60.375 1973.77832031 93.7939453125 c 0
 1982.66210938 140.595703125 1987.89355469 191.3984375 1989.69628906 245.518554688 c 1
 590.298828125 245.518554688 l 1
2440 1229 m 1
 4240 1229 l 1
 4240 869 l 1
 2800 869 l 1
 2800 -211 l 1
 4240 -211 l 1
 4240 -571 l 1
 3640 -571 3040 -571 2440 -571 c 1
 2440 1229 l 1
EndSplineSet
Validated: 33
EndChar

StartChar: na.kata
Encoding: 12490 12490 41
Width: 4480
Flags: HW
LayerCount: 2
Fore
SplineSet
977.120117188 3229 m 0
 1109.03320312 3229 1236.32910156 3171.77832031 1314.98242188 3080.734375 c 0
 1393.63671875 2989.69042969 1429.63769531 2880.19921875 1450.79882812 2766.63085938 c 0
 1493.12207031 2539.49511719 1476.32421875 2277.12304688 1463.28808594 2020.58789062 c 0
 1450.25097656 1764.05273438 1440.97558594 1513.35351562 1470.35449219 1355.6875 c 0
 1485.04296875 1276.85449219 1509.33691406 1226.01074219 1527.64355469 1204.8203125 c 0
 1545.94921875 1183.63085938 1552.27929688 1176.71875 1602.87792969 1176.71875 c 0
 1711.88378906 1176.71875 1776.58496094 1211.31445312 1839.78125 1289.03710938 c 0
 1902.9765625 1366.76074219 1955.328125 1497.07519531 1978.47460938 1667.87695312 c 0
 2024.76757812 2009.48144531 1954.10449219 2500.5 1755.01464844 2990.21289062 c 0
 1746.82910156 3010.34863281 1742.13867188 3032.39648438 1742.13867188 3055.45605469 c 0
 1742.13867188 3128.13671875 1786.94433594 3190.4375 1850.42480469 3216.23242188 c 0
 1870.56445312 3224.41601562 1892.61816406 3229.10644531 1915.68359375 3229.10644531 c 0
 1988.38085938 3229.10644531 2050.69726562 3184.31152344 2076.49804688 3120.84765625 c 0
 2294.57910156 2584.42089844 2380.35644531 2049.296875 2322.35644531 1621.296875 c 0
 2293.35644531 1407.296875 2228.37792969 1216.94238281 2109.06054688 1070.19726562 c 0
 1989.74414062 923.452148438 1806.75097656 829.779296875 1602.87792969 829.779296875 c 0
 1470.96484375 829.779296875 1343.66894531 887.000976562 1265.015625 978.044921875 c 0
 1186.36230469 1069.08886719 1150.36132812 1178.58007812 1129.19921875 1292.1484375 c 0
 1086.87695312 1519.28515625 1103.67382812 1781.65625 1116.70996094 2038.19140625 c 0
 1129.74707031 2294.7265625 1139.02246094 2545.42578125 1109.64453125 2703.09179688 c 0
 1094.95507812 2781.92480469 1070.66113281 2832.76757812 1052.35449219 2853.95703125 c 0
 1034.04882812 2875.14746094 1027.71875 2882.06054688 977.120117188 2882.06054688 c 0
 868.114257812 2882.06054688 803.413085938 2847.46484375 740.216796875 2769.7421875 c 0
 677.021484375 2692.01953125 624.669921875 2561.70410156 601.5234375 2390.90234375 c 0
 555.231445312 2049.29785156 625.893554688 1558.27929688 824.983398438 1068.56640625 c 0
 825.275390625 1067.84960938 825.568359375 1067.11523438 825.8515625 1066.39257812 c 2
 825.8515625 1066.39257812 1451.76757812 -534.411132812 1451.60742188 -534.38671875 c 1
 1459.24804688 -553.932617188 1463.60253906 -575.223632812 1463.60253906 -597.461914062 c 0
 1463.60253906 -670.96484375 1417.77832031 -733.850585938 1353.15820312 -759.099609375 c 0
 1333.60644531 -766.73828125 1312.31054688 -771.091796875 1290.06738281 -771.091796875 c 0
 1216.546875 -771.091796875 1153.64550781 -725.278320312 1128.390625 -660.673828125 c 2
 502.716796875 939.89453125 l 1
 285.223632812 1475.66308594 199.711914062 2010.00488281 257.641601562 2437.48242188 c 0
 286.641601562 2651.48242188 351.62109375 2841.83691406 470.9375 2988.58203125 c 0
 590.25390625 3135.32714844 773.248046875 3229 977.120117188 3229 c 0
2440 -571 m 1
 2440 1229 l 1
 2800 1229 l 1
 2800 -211 l 1
 3880 -211 l 1
 3880 1229 l 1
 4240 1229 l 1
 4240 -571 l 1
 2440 -571 l 1
EndSplineSet
Validated: 33
EndChar

StartChar: ni.kata
Encoding: 12491 12491 42
Width: 4480
Flags: W
HStem: -571 360<2800 3160 3520 3880> 829.779 346.939<1497.17 1815.77> 2882.06 346.939<764.23 1082.82>
VStem: 1128.39 335.212<-748.659 -660.674 1187.31 2866.32> 1742.14 334.359<2898.41 3206.49> 2440 360<-211 1229> 3160 360<-211 1229> 3880 360<-211 1229>
LayerCount: 2
Fore
SplineSet
977.120117188 3229 m 0
 1109.03320312 3229 1236.32910156 3171.77832031 1314.98242188 3080.734375 c 0
 1393.63671875 2989.69042969 1429.63769531 2880.19921875 1450.79882812 2766.63085938 c 0
 1493.12207031 2539.49511719 1476.32421875 2277.12304688 1463.28808594 2020.58789062 c 0
 1450.25097656 1764.05273438 1440.97558594 1513.35351562 1470.35449219 1355.6875 c 0
 1485.04296875 1276.85449219 1509.33691406 1226.01074219 1527.64355469 1204.8203125 c 0
 1545.94921875 1183.63085938 1552.27929688 1176.71875 1602.87792969 1176.71875 c 0
 1711.88378906 1176.71875 1776.58496094 1211.31445312 1839.78125 1289.03710938 c 0
 1902.9765625 1366.76074219 1955.328125 1497.07519531 1978.47460938 1667.87695312 c 0
 2024.76757812 2009.48144531 1954.10449219 2500.5 1755.01464844 2990.21289062 c 0
 1746.82910156 3010.34863281 1742.13867188 3032.39648438 1742.13867188 3055.45605469 c 0
 1742.13867188 3128.13671875 1786.94433594 3190.4375 1850.42480469 3216.23242188 c 0
 1870.56445312 3224.41601562 1892.61816406 3229.10644531 1915.68359375 3229.10644531 c 0
 1988.38085938 3229.10644531 2050.69726562 3184.31152344 2076.49804688 3120.84765625 c 0
 2294.57910156 2584.42089844 2380.35644531 2049.296875 2322.35644531 1621.296875 c 0
 2293.35644531 1407.296875 2228.37792969 1216.94238281 2109.06054688 1070.19726562 c 0
 1989.74414062 923.452148438 1806.75097656 829.779296875 1602.87792969 829.779296875 c 0
 1470.96484375 829.779296875 1343.66894531 887.000976562 1265.015625 978.044921875 c 0
 1186.36230469 1069.08886719 1150.36132812 1178.58007812 1129.19921875 1292.1484375 c 0
 1086.87695312 1519.28515625 1103.67382812 1781.65625 1116.70996094 2038.19140625 c 0
 1129.74707031 2294.7265625 1139.02246094 2545.42578125 1109.64453125 2703.09179688 c 0
 1094.95507812 2781.92480469 1070.66113281 2832.76757812 1052.35449219 2853.95703125 c 0
 1034.04882812 2875.14746094 1027.71875 2882.06054688 977.120117188 2882.06054688 c 0
 868.114257812 2882.06054688 803.413085938 2847.46484375 740.216796875 2769.7421875 c 0
 677.021484375 2692.01953125 624.669921875 2561.70410156 601.5234375 2390.90234375 c 0
 555.231445312 2049.29785156 625.893554688 1558.27929688 824.983398438 1068.56640625 c 0
 825.275390625 1067.84960938 825.568359375 1067.11523438 825.8515625 1066.39257812 c 2
 825.8515625 1066.39257812 1451.76757812 -534.411132812 1451.60742188 -534.38671875 c 1
 1459.24804688 -553.932617188 1463.60253906 -575.223632812 1463.60253906 -597.461914062 c 0
 1463.60253906 -670.96484375 1417.77832031 -733.850585938 1353.15820312 -759.099609375 c 0
 1333.60644531 -766.73828125 1312.31054688 -771.091796875 1290.06738281 -771.091796875 c 0
 1216.546875 -771.091796875 1153.64550781 -725.278320312 1128.390625 -660.673828125 c 2
 502.716796875 939.89453125 l 1
 285.223632812 1475.66308594 199.711914062 2010.00488281 257.641601562 2437.48242188 c 0
 286.641601562 2651.48242188 351.62109375 2841.83691406 470.9375 2988.58203125 c 0
 590.25390625 3135.32714844 773.248046875 3229 977.120117188 3229 c 0
2440 -571 m 1
 2440 1229 l 1
 2800 1229 l 1
 2800 -211 l 1
 3160 -211 l 1
 3160 1229 l 1
 3520 1229 l 1
 3520 -211 l 1
 3880 -211 l 1
 3880 1229 l 1
 4240 1229 l 1
 4240 -571 l 1
 2440 -571 l 1
EndSplineSet
Validated: 33
EndChar

StartChar: nu.kata
Encoding: 12492 12492 43
Width: 4480
Flags: HW
LayerCount: 2
Fore
SplineSet
977.120117188 3229 m 0
 1109.03320312 3229 1236.32910156 3171.77832031 1314.98242188 3080.734375 c 0
 1393.63671875 2989.69042969 1429.63769531 2880.19921875 1450.79882812 2766.63085938 c 0
 1493.12207031 2539.49511719 1476.32421875 2277.12304688 1463.28808594 2020.58789062 c 0
 1450.25097656 1764.05273438 1440.97558594 1513.35351562 1470.35449219 1355.6875 c 0
 1485.04296875 1276.85449219 1509.33691406 1226.01074219 1527.64355469 1204.8203125 c 0
 1545.94921875 1183.63085938 1552.27929688 1176.71875 1602.87792969 1176.71875 c 0
 1711.88378906 1176.71875 1776.58496094 1211.31445312 1839.78125 1289.03710938 c 0
 1902.9765625 1366.76074219 1955.328125 1497.07519531 1978.47460938 1667.87695312 c 0
 2024.76757812 2009.48144531 1954.10449219 2500.5 1755.01464844 2990.21289062 c 0
 1746.82910156 3010.34863281 1742.13867188 3032.39648438 1742.13867188 3055.45605469 c 0
 1742.13867188 3128.13671875 1786.94433594 3190.4375 1850.42480469 3216.23242188 c 0
 1870.56445312 3224.41601562 1892.61816406 3229.10644531 1915.68359375 3229.10644531 c 0
 1988.38085938 3229.10644531 2050.69726562 3184.31152344 2076.49804688 3120.84765625 c 0
 2294.57910156 2584.42089844 2380.35644531 2049.296875 2322.35644531 1621.296875 c 0
 2293.35644531 1407.296875 2228.37792969 1216.94238281 2109.06054688 1070.19726562 c 0
 1989.74414062 923.452148438 1806.75097656 829.779296875 1602.87792969 829.779296875 c 0
 1470.96484375 829.779296875 1343.66894531 887.000976562 1265.015625 978.044921875 c 0
 1186.36230469 1069.08886719 1150.36132812 1178.58007812 1129.19921875 1292.1484375 c 0
 1086.87695312 1519.28515625 1103.67382812 1781.65625 1116.70996094 2038.19140625 c 0
 1129.74707031 2294.7265625 1139.02246094 2545.42578125 1109.64453125 2703.09179688 c 0
 1094.95507812 2781.92480469 1070.66113281 2832.76757812 1052.35449219 2853.95703125 c 0
 1034.04882812 2875.14746094 1027.71875 2882.06054688 977.120117188 2882.06054688 c 0
 868.114257812 2882.06054688 803.413085938 2847.46484375 740.216796875 2769.7421875 c 0
 677.021484375 2692.01953125 624.669921875 2561.70410156 601.5234375 2390.90234375 c 0
 555.231445312 2049.29785156 625.893554688 1558.27929688 824.983398438 1068.56640625 c 0
 825.275390625 1067.84960938 825.568359375 1067.11523438 825.8515625 1066.39257812 c 2
 825.8515625 1066.39257812 1451.76757812 -534.411132812 1451.60742188 -534.38671875 c 1
 1459.24804688 -553.932617188 1463.60253906 -575.223632812 1463.60253906 -597.461914062 c 0
 1463.60253906 -670.96484375 1417.77832031 -733.850585938 1353.15820312 -759.099609375 c 0
 1333.60644531 -766.73828125 1312.31054688 -771.091796875 1290.06738281 -771.091796875 c 0
 1216.546875 -771.091796875 1153.64550781 -725.278320312 1128.390625 -660.673828125 c 2
 502.716796875 939.89453125 l 1
 285.223632812 1475.66308594 199.711914062 2010.00488281 257.641601562 2437.48242188 c 0
 286.641601562 2651.48242188 351.62109375 2841.83691406 470.9375 2988.58203125 c 0
 590.25390625 3135.32714844 773.248046875 3229 977.120117188 3229 c 0
4240 1229 m 1
 4240 -571 l 1
 3880 -571 l 1
 3880 869 l 1
 2800 869 l 1
 2800 -571 l 1
 2440 -571 l 1
 2440 1229 l 1
 4240 1229 l 1
EndSplineSet
Validated: 33
EndChar

StartChar: ne.kata
Encoding: 12493 12493 44
Width: 4480
Flags: HW
LayerCount: 2
Fore
SplineSet
977.120117188 3229 m 0
 1109.03320312 3229 1236.32910156 3171.77832031 1314.98242188 3080.734375 c 0
 1393.63671875 2989.69042969 1429.63769531 2880.19921875 1450.79882812 2766.63085938 c 0
 1493.12207031 2539.49511719 1476.32421875 2277.12304688 1463.28808594 2020.58789062 c 0
 1450.25097656 1764.05273438 1440.97558594 1513.35351562 1470.35449219 1355.6875 c 0
 1485.04296875 1276.85449219 1509.33691406 1226.01074219 1527.64355469 1204.8203125 c 0
 1545.94921875 1183.63085938 1552.27929688 1176.71875 1602.87792969 1176.71875 c 0
 1711.88378906 1176.71875 1776.58496094 1211.31445312 1839.78125 1289.03710938 c 0
 1902.9765625 1366.76074219 1955.328125 1497.07519531 1978.47460938 1667.87695312 c 0
 2024.76757812 2009.48144531 1954.10449219 2500.5 1755.01464844 2990.21289062 c 0
 1746.82910156 3010.34863281 1742.13867188 3032.39648438 1742.13867188 3055.45605469 c 0
 1742.13867188 3128.13671875 1786.94433594 3190.4375 1850.42480469 3216.23242188 c 0
 1870.56445312 3224.41601562 1892.61816406 3229.10644531 1915.68359375 3229.10644531 c 0
 1988.38085938 3229.10644531 2050.69726562 3184.31152344 2076.49804688 3120.84765625 c 0
 2294.57910156 2584.42089844 2380.35644531 2049.296875 2322.35644531 1621.296875 c 0
 2293.35644531 1407.296875 2228.37792969 1216.94238281 2109.06054688 1070.19726562 c 0
 1989.74414062 923.452148438 1806.75097656 829.779296875 1602.87792969 829.779296875 c 0
 1470.96484375 829.779296875 1343.66894531 887.000976562 1265.015625 978.044921875 c 0
 1186.36230469 1069.08886719 1150.36132812 1178.58007812 1129.19921875 1292.1484375 c 0
 1086.87695312 1519.28515625 1103.67382812 1781.65625 1116.70996094 2038.19140625 c 0
 1129.74707031 2294.7265625 1139.02246094 2545.42578125 1109.64453125 2703.09179688 c 0
 1094.95507812 2781.92480469 1070.66113281 2832.76757812 1052.35449219 2853.95703125 c 0
 1034.04882812 2875.14746094 1027.71875 2882.06054688 977.120117188 2882.06054688 c 0
 868.114257812 2882.06054688 803.413085938 2847.46484375 740.216796875 2769.7421875 c 0
 677.021484375 2692.01953125 624.669921875 2561.70410156 601.5234375 2390.90234375 c 0
 555.231445312 2049.29785156 625.893554688 1558.27929688 824.983398438 1068.56640625 c 0
 825.275390625 1067.84960938 825.568359375 1067.11523438 825.8515625 1066.39257812 c 2
 825.8515625 1066.39257812 1451.76757812 -534.411132812 1451.60742188 -534.38671875 c 1
 1459.24804688 -553.932617188 1463.60253906 -575.223632812 1463.60253906 -597.461914062 c 0
 1463.60253906 -670.96484375 1417.77832031 -733.850585938 1353.15820312 -759.099609375 c 0
 1333.60644531 -766.73828125 1312.31054688 -771.091796875 1290.06738281 -771.091796875 c 0
 1216.546875 -771.091796875 1153.64550781 -725.278320312 1128.390625 -660.673828125 c 2
 502.716796875 939.89453125 l 1
 285.223632812 1475.66308594 199.711914062 2010.00488281 257.641601562 2437.48242188 c 0
 286.641601562 2651.48242188 351.62109375 2841.83691406 470.9375 2988.58203125 c 0
 590.25390625 3135.32714844 773.248046875 3229 977.120117188 3229 c 0
2440 1229 m 1
 4240 1229 l 1
 4240 869 l 1
 2800 869 l 1
 2800 509 l 1
 4240 509 l 1
 4240 149 l 1
 2800 149 l 1
 2800 -211 l 1
 4240 -211 l 1
 4240 -571 l 1
 2440 -571 l 1
 2440 1229 l 1
EndSplineSet
Validated: 33
EndChar

StartChar: no.kata
Encoding: 12494 12494 45
Width: 4480
Flags: HW
LayerCount: 2
Fore
SplineSet
977.120117188 3229 m 0
 1109.03320312 3229 1236.32910156 3171.77832031 1314.98242188 3080.734375 c 0
 1393.63671875 2989.69042969 1429.63769531 2880.19921875 1450.79882812 2766.63085938 c 0
 1493.12207031 2539.49511719 1476.32421875 2277.12304688 1463.28808594 2020.58789062 c 0
 1450.25097656 1764.05273438 1440.97558594 1513.35351562 1470.35449219 1355.6875 c 0
 1485.04296875 1276.85449219 1509.33691406 1226.01074219 1527.64355469 1204.8203125 c 0
 1545.94921875 1183.63085938 1552.27929688 1176.71875 1602.87792969 1176.71875 c 0
 1711.88378906 1176.71875 1776.58496094 1211.31445312 1839.78125 1289.03710938 c 0
 1902.9765625 1366.76074219 1955.328125 1497.07519531 1978.47460938 1667.87695312 c 0
 2024.76757812 2009.48144531 1954.10449219 2500.5 1755.01464844 2990.21289062 c 0
 1746.82910156 3010.34863281 1742.13867188 3032.39648438 1742.13867188 3055.45605469 c 0
 1742.13867188 3128.13671875 1786.94433594 3190.4375 1850.42480469 3216.23242188 c 0
 1870.56445312 3224.41601562 1892.61816406 3229.10644531 1915.68359375 3229.10644531 c 0
 1988.38085938 3229.10644531 2050.69726562 3184.31152344 2076.49804688 3120.84765625 c 0
 2294.57910156 2584.42089844 2380.35644531 2049.296875 2322.35644531 1621.296875 c 0
 2293.35644531 1407.296875 2228.37792969 1216.94238281 2109.06054688 1070.19726562 c 0
 1989.74414062 923.452148438 1806.75097656 829.779296875 1602.87792969 829.779296875 c 0
 1470.96484375 829.779296875 1343.66894531 887.000976562 1265.015625 978.044921875 c 0
 1186.36230469 1069.08886719 1150.36132812 1178.58007812 1129.19921875 1292.1484375 c 0
 1086.87695312 1519.28515625 1103.67382812 1781.65625 1116.70996094 2038.19140625 c 0
 1129.74707031 2294.7265625 1139.02246094 2545.42578125 1109.64453125 2703.09179688 c 0
 1094.95507812 2781.92480469 1070.66113281 2832.76757812 1052.35449219 2853.95703125 c 0
 1034.04882812 2875.14746094 1027.71875 2882.06054688 977.120117188 2882.06054688 c 0
 868.114257812 2882.06054688 803.413085938 2847.46484375 740.216796875 2769.7421875 c 0
 677.021484375 2692.01953125 624.669921875 2561.70410156 601.5234375 2390.90234375 c 0
 555.231445312 2049.29785156 625.893554688 1558.27929688 824.983398438 1068.56640625 c 0
 825.275390625 1067.84960938 825.568359375 1067.11523438 825.8515625 1066.39257812 c 2
 825.8515625 1066.39257812 1451.76757812 -534.411132812 1451.60742188 -534.38671875 c 1
 1459.24804688 -553.932617188 1463.60253906 -575.223632812 1463.60253906 -597.461914062 c 0
 1463.60253906 -670.96484375 1417.77832031 -733.850585938 1353.15820312 -759.099609375 c 0
 1333.60644531 -766.73828125 1312.31054688 -771.091796875 1290.06738281 -771.091796875 c 0
 1216.546875 -771.091796875 1153.64550781 -725.278320312 1128.390625 -660.673828125 c 2
 502.716796875 939.89453125 l 1
 285.223632812 1475.66308594 199.711914062 2010.00488281 257.641601562 2437.48242188 c 0
 286.641601562 2651.48242188 351.62109375 2841.83691406 470.9375 2988.58203125 c 0
 590.25390625 3135.32714844 773.248046875 3229 977.120117188 3229 c 0
2440 1229 m 1
 4240 1229 l 1
 4240 869 l 1
 2800 869 l 1
 2800 -211 l 1
 4240 -211 l 1
 4240 -571 l 1
 2440 -571 l 1
 2440 1229 l 1
EndSplineSet
Validated: 33
EndChar

StartChar: ha.kata
Encoding: 12495 12495 46
Width: 4478
Flags: HW
LayerCount: 2
Fore
SplineSet
4238.99023438 -571 m 1
 2438.99023438 -571 l 1
 2438.99023438 1229 l 1
 2798.99023438 1229 l 1
 2798.99023438 -211 l 1
 3878.99023438 -211 l 1
 3878.99023438 1229 l 1
 4238.99023438 1229 l 1
 4238.99023438 -571 l 1
1696.36816406 1078.46386719 m 0
 1642.82617188 959.233398438 1730.34082031 822.713867188 1862.06152344 822.713867188 c 0
 1935.81835938 822.713867188 1999.36035156 866.795898438 2027.75488281 930.028320312 c 0
 2128.15917969 1153.61425781 2337.20507812 1663.80957031 2337.20507812 2164.79589844 c 0
 2337.20507812 2329.06054688 2320.44140625 2782.17675781 1949.70507812 3045.33203125 c 0
 1795.55957031 3154.74804688 1582.62695312 3229 1288.60253906 3229 c 0
 1108.8828125 3229 686.60546875 3205.3125 431.692382812 2850.52636719 c 0
 293.233398438 2657.82128906 240 2418.65917969 240 2164.79589844 c 0
 240 1918.72753906 292.676757812 1501.82714844 549.450195312 930.028320312 c 0
 577.845703125 866.795898438 641.38671875 822.713867188 715.143554688 822.713867188 c 0
 846.8671875 822.713867188 934.377929688 959.235351562 880.836914062 1078.46386719 c 0
 821.6875 1210.18261719 603.065429688 1707.13964844 603.065429688 2164.79589844 c 0
 603.065429688 2368.61425781 647.703125 2529.015625 726.733398438 2639.00976562 c 0
 786.41796875 2722.078125 892.768554688 2817.08398438 1107.0703125 2852.16113281 c 1
 1107.0703125 -589.467773438 l 2
 1107.0703125 -689.658203125 1188.41210938 -771 1288.60253906 -771 c 0
 1388.79296875 -771 1470.13476562 -689.658203125 1470.13476562 -589.467773438 c 2
 1470.13476562 2852.16113281 l 1
 1683.26367188 2817.27636719 1790.06347656 2723.08398438 1850.47167969 2639.00976562 c 0
 1929.50195312 2529.015625 1974.13964844 2368.61425781 1974.13964844 2164.79589844 c 0
 1974.13964844 1971.13476562 1932.15722656 1603.53417969 1696.36816406 1078.46386719 c 0
EndSplineSet
Validated: 41
EndChar

StartChar: ba.kata
Encoding: 12496 12496 47
Width: 4480
Flags: HW
LayerCount: 2
Fore
SplineSet
1289.99804688 -771 m 0
 1003.796875 -771 769.046875 -700.561523438 592.748046875 -559.83203125 c 0
 416.450195312 -419.1015625 309.307617188 -210.977539062 266.215820312 16.0478515625 c 0
 180.442382812 467.936523438 312.728515625 1001.7734375 552.440429688 1530.28808594 c 1
 1128.80371094 3109.28710938 l 2
 1154.42578125 3179.48046875 1217.00878906 3229.11132812 1290.06933594 3229.11132812 c 0
 1312.84863281 3229.11132812 1334.63867188 3224.09667969 1354.578125 3215.32910156 c 0
 1418.53125 3187.20605469 1463.74902344 3118.515625 1463.74902344 3038.32519531 c 0
 1463.74902344 3013.32324219 1459.1796875 2989.40527344 1451.19140625 2967.52050781 c 1
 1451.36523438 2967.55371094 872.357421875 1381.75097656 872.357421875 1381.75097656 c 2
 870.583007812 1376.88867188 868.600585938 1372.05175781 866.48046875 1367.39648438 c 0
 645.301757812 881.868164062 547.692382812 402.1328125 606.217773438 93.794921875 c 0
 635.48046875 -60.3740234375 694.754882812 -169.912109375 797.020507812 -251.545898438 c 0
 871.599609375 -311.078125 974.921875 -357.188476562 1116.34765625 -377.858398438 c 1
 1116.34765625 817.310546875 l 2
 1116.34765625 922.50390625 1194.15722656 1007.90722656 1289.99804688 1007.90722656 c 0
 1385.83789062 1007.90722656 1463.6484375 922.50390625 1463.6484375 817.310546875 c 1
 1463.6484375 -377.858398438 l 1
 1605.07421875 -357.188476562 1708.39746094 -311.078125 1782.97753906 -251.545898438 c 0
 1885.24316406 -169.912109375 1944.51464844 -60.3740234375 1973.77734375 93.794921875 c 0
 2032.30273438 402.1328125 1934.69335938 881.868164062 1713.51464844 1367.39648438 c 0
 1701.84863281 1393.00585938 1695.28320312 1421.89257812 1695.28320312 1452.44921875 c 0
 1695.28320312 1527.0859375 1734.18457031 1591.83398438 1791.17382812 1623.11035156 c 0
 1814.50488281 1635.9140625 1840.82421875 1643.12109375 1868.66308594 1643.12109375 c 0
 1936.6640625 1643.12109375 1995.65527344 1600.42285156 2024.15039062 1537.87207031 c 0
 2266.03808594 1006.88378906 2399.96289062 470.09765625 2313.78027344 16.0478515625 c 0
 2270.68847656 -210.977539062 2163.546875 -419.1015625 1987.24902344 -559.83203125 c 0
 1810.95117188 -700.561523438 1576.19921875 -771 1289.99804688 -771 c 0
2440 -571 m 1
 2440 1229 l 1
 2800 1229 l 1
 2800 -211 l 1
 3880 -211 l 1
 3880 1229 l 1
 4240 1229 l 1
 4240 629 4240 29 4240 -571 c 1
 2440 -571 l 1
EndSplineSet
Validated: 33
EndChar

StartChar: pa.kata
Encoding: 12497 12497 48
Width: 4480
Flags: HW
LayerCount: 2
Fore
SplineSet
1290.00195312 -771 m 0
 1003.80078125 -771 769.048828125 -700.561523438 592.750976562 -559.83203125 c 0
 416.453125 -419.1015625 309.311523438 -210.977539062 266.219726562 16.0478515625 c 0
 180.037109375 470.09765625 313.961914062 1006.88378906 555.850585938 1537.87207031 c 0
 584.344726562 1600.42285156 643.3359375 1643.12109375 711.336914062 1643.12109375 c 0
 739.176757812 1643.12109375 765.495117188 1635.9140625 788.826171875 1623.11035156 c 0
 845.81640625 1591.83398438 884.716796875 1527.0859375 884.716796875 1452.44921875 c 0
 884.716796875 1421.89257812 878.151367188 1393.00585938 866.485351562 1367.39648438 c 0
 645.306640625 881.868164062 547.697265625 402.1328125 606.22265625 93.794921875 c 0
 635.485351562 -60.3740234375 694.756835938 -169.912109375 797.022460938 -251.545898438 c 0
 871.602539062 -311.078125 974.926757812 -357.188476562 1116.3515625 -377.858398438 c 1
 1116.3515625 817.310546875 l 1
 1116.3515625 922.50390625 1194.16210938 1007.90722656 1290.00195312 1007.90722656 c 0
 1385.84277344 1007.90722656 1463.65234375 922.50390625 1463.65234375 817.310546875 c 2
 1463.65234375 -377.858398438 l 1
 1605.078125 -357.188476562 1708.40039062 -311.078125 1782.97949219 -251.545898438 c 0
 1885.24511719 -169.912109375 1944.51953125 -60.3740234375 1973.78222656 93.794921875 c 0
 2032.30761719 402.1328125 1934.69824219 881.868164062 1713.51953125 1367.39648438 c 0
 1711.39941406 1372.05175781 1709.41699219 1376.88867188 1707.64257812 1381.75097656 c 2
 1707.64257812 1381.75097656 1128.63476562 2967.55371094 1128.80859375 2967.52050781 c 1
 1120.8203125 2989.40527344 1116.25097656 3013.32324219 1116.25097656 3038.32519531 c 0
 1116.25097656 3118.515625 1161.46875 3187.20605469 1225.421875 3215.32910156 c 0
 1245.36132812 3224.09667969 1267.15136719 3229.11132812 1289.93066406 3229.11132812 c 0
 1362.99121094 3229.11132812 1425.57421875 3179.48046875 1451.19628906 3109.28710938 c 2
 2027.55957031 1530.28808594 l 1
 2267.27148438 1001.7734375 2399.55761719 467.936523438 2313.78417969 16.0478515625 c 0
 2270.69238281 -210.977539062 2163.54980469 -419.1015625 1987.25195312 -559.83203125 c 0
 1810.953125 -700.561523438 1576.20410156 -771 1290.00195312 -771 c 0
2440 -571 m 1
 2440 1229 l 1
 2800 1229 l 1
 2800 -211 l 1
 3880 -211 l 1
 3880 1229 l 1
 4240 1229 l 1
 4240 629 4240 29 4240 -571 c 1
 2440 -571 l 1
EndSplineSet
Validated: 33
EndChar

StartChar: hi.kata
Encoding: 12498 12498 49
Width: 4478
Flags: W
HStem: -571 360<2798.99 3158.99 3518.99 3878.99> 2852.16 376.839<858.92 1107.07 1470.13 1711.76>
VStem: 240 363.065<1592.6 2584> 1107.07 363.064<-744.703 -589.468> 1974.14 363.065<1596.49 2583.71> 2438.99 360<-211 1229> 3158.99 360<-211 1229> 3878.99 360<-211 1229>
LayerCount: 2
Fore
SplineSet
1696.36816406 1078.46386719 m 0
 1642.82617188 959.233398438 1730.34082031 822.713867188 1862.06152344 822.713867188 c 0
 1935.81835938 822.713867188 1999.36035156 866.795898438 2027.75488281 930.028320312 c 0
 2128.15917969 1153.61425781 2337.20507812 1663.80957031 2337.20507812 2164.79589844 c 0
 2337.20507812 2329.06054688 2320.44140625 2782.17675781 1949.70507812 3045.33203125 c 0
 1795.55957031 3154.74804688 1582.62695312 3229 1288.60253906 3229 c 0
 1108.8828125 3229 686.60546875 3205.3125 431.692382812 2850.52636719 c 0
 293.233398438 2657.82128906 240 2418.65917969 240 2164.79589844 c 0
 240 1918.72753906 292.676757812 1501.82714844 549.450195312 930.028320312 c 0
 577.845703125 866.795898438 641.38671875 822.713867188 715.143554688 822.713867188 c 0
 846.8671875 822.713867188 934.377929688 959.235351562 880.836914062 1078.46386719 c 0
 821.6875 1210.18261719 603.065429688 1707.13964844 603.065429688 2164.79589844 c 0
 603.065429688 2368.61425781 647.703125 2529.015625 726.733398438 2639.00976562 c 0
 786.41796875 2722.078125 892.768554688 2817.08398438 1107.0703125 2852.16113281 c 1
 1107.0703125 -589.467773438 l 2
 1107.0703125 -689.658203125 1188.41210938 -771 1288.60253906 -771 c 0
 1388.79296875 -771 1470.13476562 -689.658203125 1470.13476562 -589.467773438 c 2
 1470.13476562 2852.16113281 l 1
 1683.26367188 2817.27636719 1790.06347656 2723.08398438 1850.47167969 2639.00976562 c 0
 1929.50195312 2529.015625 1974.13964844 2368.61425781 1974.13964844 2164.79589844 c 0
 1974.13964844 1971.13476562 1932.15722656 1603.53417969 1696.36816406 1078.46386719 c 0
2438.99023438 -571 m 1
 2438.99023438 1229 l 1
 2798.99023438 1229 l 1
 2798.99023438 -211 l 1
 3158.99023438 -211 l 1
 3158.99023438 1229 l 1
 3518.99023438 1229 l 1
 3518.99023438 -211 l 1
 3878.99023438 -211 l 1
 3878.99023438 1229 l 1
 4238.99023438 1229 l 1
 4238.99023438 -571 l 1
 2438.99023438 -571 l 1
EndSplineSet
Validated: 41
EndChar

StartChar: bi.kata
Encoding: 12499 12499 50
Width: 4480
Flags: HW
LayerCount: 2
Fore
SplineSet
1289.99804688 -771 m 0
 1003.796875 -771 769.046875 -700.561523438 592.748046875 -559.83203125 c 0
 416.450195312 -419.1015625 309.307617188 -210.977539062 266.215820312 16.0478515625 c 0
 180.442382812 467.936523438 312.728515625 1001.7734375 552.440429688 1530.28808594 c 1
 1128.80371094 3109.28710938 l 2
 1154.42578125 3179.48046875 1217.00878906 3229.11132812 1290.06933594 3229.11132812 c 0
 1312.84863281 3229.11132812 1334.63867188 3224.09667969 1354.578125 3215.32910156 c 0
 1418.53125 3187.20605469 1463.74902344 3118.515625 1463.74902344 3038.32519531 c 0
 1463.74902344 3013.32324219 1459.1796875 2989.40527344 1451.19140625 2967.52050781 c 1
 1451.36523438 2967.55371094 872.357421875 1381.75097656 872.357421875 1381.75097656 c 2
 870.583007812 1376.88867188 868.600585938 1372.05175781 866.48046875 1367.39648438 c 0
 645.301757812 881.868164062 547.692382812 402.1328125 606.217773438 93.794921875 c 0
 635.48046875 -60.3740234375 694.754882812 -169.912109375 797.020507812 -251.545898438 c 0
 871.599609375 -311.078125 974.921875 -357.188476562 1116.34765625 -377.858398438 c 1
 1116.34765625 817.310546875 l 2
 1116.34765625 922.50390625 1194.15722656 1007.90722656 1289.99804688 1007.90722656 c 0
 1385.83789062 1007.90722656 1463.6484375 922.50390625 1463.6484375 817.310546875 c 1
 1463.6484375 -377.858398438 l 1
 1605.07421875 -357.188476562 1708.39746094 -311.078125 1782.97753906 -251.545898438 c 0
 1885.24316406 -169.912109375 1944.51464844 -60.3740234375 1973.77734375 93.794921875 c 0
 2032.30273438 402.1328125 1934.69335938 881.868164062 1713.51464844 1367.39648438 c 0
 1701.84863281 1393.00585938 1695.28320312 1421.89257812 1695.28320312 1452.44921875 c 0
 1695.28320312 1527.0859375 1734.18457031 1591.83398438 1791.17382812 1623.11035156 c 0
 1814.50488281 1635.9140625 1840.82421875 1643.12109375 1868.66308594 1643.12109375 c 0
 1936.6640625 1643.12109375 1995.65527344 1600.42285156 2024.15039062 1537.87207031 c 0
 2266.03808594 1006.88378906 2399.96289062 470.09765625 2313.78027344 16.0478515625 c 0
 2270.68847656 -210.977539062 2163.546875 -419.1015625 1987.24902344 -559.83203125 c 0
 1810.95117188 -700.561523438 1576.19921875 -771 1289.99804688 -771 c 0
2440 -571 m 1
 2440 1229 l 1
 2800 1229 l 1
 2800 -211 l 1
 3160 -211 l 1
 3160 1229 l 1
 3520 1229 l 1
 3520 -211 l 1
 3880 -211 l 1
 3880 1229 l 1
 4240 1229 l 1
 4240 -571 l 1
 2440 -571 l 1
EndSplineSet
Validated: 33
EndChar

StartChar: pi.kata
Encoding: 12500 12500 51
Width: 4480
Flags: HW
LayerCount: 2
Fore
SplineSet
1290.00195312 -771 m 0
 1003.80078125 -771 769.048828125 -700.561523438 592.750976562 -559.83203125 c 0
 416.453125 -419.1015625 309.311523438 -210.977539062 266.219726562 16.0478515625 c 0
 180.037109375 470.09765625 313.961914062 1006.88378906 555.850585938 1537.87207031 c 0
 584.344726562 1600.42285156 643.3359375 1643.12109375 711.336914062 1643.12109375 c 0
 739.176757812 1643.12109375 765.495117188 1635.9140625 788.826171875 1623.11035156 c 0
 845.81640625 1591.83398438 884.716796875 1527.0859375 884.716796875 1452.44921875 c 0
 884.716796875 1421.89257812 878.151367188 1393.00585938 866.485351562 1367.39648438 c 0
 645.306640625 881.868164062 547.697265625 402.1328125 606.22265625 93.794921875 c 0
 635.485351562 -60.3740234375 694.756835938 -169.912109375 797.022460938 -251.545898438 c 0
 871.602539062 -311.078125 974.926757812 -357.188476562 1116.3515625 -377.858398438 c 1
 1116.3515625 817.310546875 l 1
 1116.3515625 922.50390625 1194.16210938 1007.90722656 1290.00195312 1007.90722656 c 0
 1385.84277344 1007.90722656 1463.65234375 922.50390625 1463.65234375 817.310546875 c 2
 1463.65234375 -377.858398438 l 1
 1605.078125 -357.188476562 1708.40039062 -311.078125 1782.97949219 -251.545898438 c 0
 1885.24511719 -169.912109375 1944.51953125 -60.3740234375 1973.78222656 93.794921875 c 0
 2032.30761719 402.1328125 1934.69824219 881.868164062 1713.51953125 1367.39648438 c 0
 1711.39941406 1372.05175781 1709.41699219 1376.88867188 1707.64257812 1381.75097656 c 2
 1707.64257812 1381.75097656 1128.63476562 2967.55371094 1128.80859375 2967.52050781 c 1
 1120.8203125 2989.40527344 1116.25097656 3013.32324219 1116.25097656 3038.32519531 c 0
 1116.25097656 3118.515625 1161.46875 3187.20605469 1225.421875 3215.32910156 c 0
 1245.36132812 3224.09667969 1267.15136719 3229.11132812 1289.93066406 3229.11132812 c 0
 1362.99121094 3229.11132812 1425.57421875 3179.48046875 1451.19628906 3109.28710938 c 2
 2027.55957031 1530.28808594 l 1
 2267.27148438 1001.7734375 2399.55761719 467.936523438 2313.78417969 16.0478515625 c 0
 2270.69238281 -210.977539062 2163.54980469 -419.1015625 1987.25195312 -559.83203125 c 0
 1810.953125 -700.561523438 1576.20410156 -771 1290.00195312 -771 c 0
2440 -571 m 1
 2440 1229 l 1
 2800 1229 l 1
 2800 -211 l 1
 3160 -211 l 1
 3160 1229 l 1
 3520 1229 l 1
 3520 -211 l 1
 3880 -211 l 1
 3880 1229 l 1
 4240 1229 l 1
 4240 -571 l 1
 2440 -571 l 1
EndSplineSet
Validated: 33
EndChar

StartChar: hu.kata
Encoding: 12501 12501 52
Width: 4480
Flags: HW
LayerCount: 2
Fore
SplineSet
1290 3229 m 0
 1385.84082031 3229 1463.65039062 3143.59667969 1463.65039062 3038.40234375 c 2
 1463.65039062 -377.969726562 l 1
 1605.14648438 -357.309570312 1708.375 -311.09765625 1782.97753906 -251.545898438 c 0
 1885.24316406 -169.912109375 1944.51660156 -60.375 1973.77929688 93.7939453125 c 0
 2032.3046875 402.131835938 1934.6953125 881.868164062 1713.51660156 1367.39648438 c 0
 1701.85058594 1393.00488281 1695.015625 1421.96582031 1695.015625 1452.52246094 c 0
 1695.015625 1527.15917969 1734.18652344 1591.83398438 1791.17578125 1623.109375 c 0
 1814.50683594 1635.9140625 1840.89257812 1643.41601562 1868.73242188 1643.41601562 c 0
 1936.73339844 1643.41601562 1995.65722656 1600.42285156 2024.15136719 1537.87207031 c 0
 2266.0390625 1006.8828125 2399.96289062 470.098632812 2313.77929688 16.048828125 c 0
 2270.68847656 -210.9765625 2163.54785156 -419.1015625 1987.25 -559.831054688 c 0
 1810.95214844 -700.561523438 1576.20117188 -771 1290 -771 c 0
 1003.79980469 -771 769.048828125 -700.561523438 592.750976562 -559.831054688 c 0
 416.453125 -419.1015625 309.311523438 -210.9765625 266.219726562 16.048828125 c 0
 180.037109375 470.098632812 313.961914062 1006.8828125 555.849609375 1537.87207031 c 0
 584.34375 1600.42285156 643.334960938 1643.12011719 711.3359375 1643.12011719 c 0
 739.174804688 1643.12011719 765.494140625 1635.9140625 788.825195312 1623.109375 c 0
 845.814453125 1591.83398438 884.715820312 1527.0859375 884.715820312 1452.44921875 c 0
 884.715820312 1421.89257812 878.150390625 1393.00488281 866.484375 1367.39648438 c 0
 645.305664062 881.868164062 547.6953125 402.131835938 606.220703125 93.7939453125 c 0
 635.483398438 -60.375 694.7578125 -169.912109375 797.0234375 -251.545898438 c 0
 871.625976562 -311.09765625 974.853515625 -357.309570312 1116.35058594 -377.969726562 c 1
 1116.35058594 3038.40234375 l 1
 1116.35058594 3143.59667969 1194.16015625 3229 1290 3229 c 0
4240 1229 m 1
 4240 -571 l 1
 3880 -571 l 1
 3880 869 l 1
 2800 869 l 1
 2800 -571 l 1
 2440 -571 l 1
 2440 1229 l 1
 4240 1229 l 1
EndSplineSet
Validated: 33
EndChar

StartChar: bu.kata
Encoding: 12502 12502 53
Width: 4480
Flags: HW
LayerCount: 2
Fore
SplineSet
1289.99804688 -771 m 0
 1003.796875 -771 769.046875 -700.561523438 592.748046875 -559.83203125 c 0
 416.450195312 -419.1015625 309.307617188 -210.977539062 266.215820312 16.0478515625 c 0
 180.442382812 467.936523438 312.728515625 1001.7734375 552.440429688 1530.28808594 c 1
 1128.80371094 3109.28710938 l 2
 1154.42578125 3179.48046875 1217.00878906 3229.11132812 1290.06933594 3229.11132812 c 0
 1312.84863281 3229.11132812 1334.63867188 3224.09667969 1354.578125 3215.32910156 c 0
 1418.53125 3187.20605469 1463.74902344 3118.515625 1463.74902344 3038.32519531 c 0
 1463.74902344 3013.32324219 1459.1796875 2989.40527344 1451.19140625 2967.52050781 c 1
 1451.36523438 2967.55371094 872.357421875 1381.75097656 872.357421875 1381.75097656 c 2
 870.583007812 1376.88867188 868.600585938 1372.05175781 866.48046875 1367.39648438 c 0
 645.301757812 881.868164062 547.692382812 402.1328125 606.217773438 93.794921875 c 0
 635.48046875 -60.3740234375 694.754882812 -169.912109375 797.020507812 -251.545898438 c 0
 871.599609375 -311.078125 974.921875 -357.188476562 1116.34765625 -377.858398438 c 1
 1116.34765625 817.310546875 l 2
 1116.34765625 922.50390625 1194.15722656 1007.90722656 1289.99804688 1007.90722656 c 0
 1385.83789062 1007.90722656 1463.6484375 922.50390625 1463.6484375 817.310546875 c 1
 1463.6484375 -377.858398438 l 1
 1605.07421875 -357.188476562 1708.39746094 -311.078125 1782.97753906 -251.545898438 c 0
 1885.24316406 -169.912109375 1944.51464844 -60.3740234375 1973.77734375 93.794921875 c 0
 2032.30273438 402.1328125 1934.69335938 881.868164062 1713.51464844 1367.39648438 c 0
 1701.84863281 1393.00585938 1695.28320312 1421.89257812 1695.28320312 1452.44921875 c 0
 1695.28320312 1527.0859375 1734.18457031 1591.83398438 1791.17382812 1623.11035156 c 0
 1814.50488281 1635.9140625 1840.82421875 1643.12109375 1868.66308594 1643.12109375 c 0
 1936.6640625 1643.12109375 1995.65527344 1600.42285156 2024.15039062 1537.87207031 c 0
 2266.03808594 1006.88378906 2399.96289062 470.09765625 2313.78027344 16.0478515625 c 0
 2270.68847656 -210.977539062 2163.546875 -419.1015625 1987.24902344 -559.83203125 c 0
 1810.95117188 -700.561523438 1576.19921875 -771 1289.99804688 -771 c 0
4240 1229 m 1
 4240 -571 l 1
 3880 -571 l 1
 3880 869 l 1
 2800 869 l 1
 2800 -571 l 1
 2440 -571 l 1
 2440 1229 l 1
 4240 1229 l 1
EndSplineSet
Validated: 33
EndChar

StartChar: pu.kata
Encoding: 12503 12503 54
Width: 4480
Flags: HW
LayerCount: 2
Fore
SplineSet
1290.00195312 -771 m 0
 1003.80078125 -771 769.048828125 -700.561523438 592.750976562 -559.83203125 c 0
 416.453125 -419.1015625 309.311523438 -210.977539062 266.219726562 16.0478515625 c 0
 180.037109375 470.09765625 313.961914062 1006.88378906 555.850585938 1537.87207031 c 0
 584.344726562 1600.42285156 643.3359375 1643.12109375 711.336914062 1643.12109375 c 0
 739.176757812 1643.12109375 765.495117188 1635.9140625 788.826171875 1623.11035156 c 0
 845.81640625 1591.83398438 884.716796875 1527.0859375 884.716796875 1452.44921875 c 0
 884.716796875 1421.89257812 878.151367188 1393.00585938 866.485351562 1367.39648438 c 0
 645.306640625 881.868164062 547.697265625 402.1328125 606.22265625 93.794921875 c 0
 635.485351562 -60.3740234375 694.756835938 -169.912109375 797.022460938 -251.545898438 c 0
 871.602539062 -311.078125 974.926757812 -357.188476562 1116.3515625 -377.858398438 c 1
 1116.3515625 817.310546875 l 1
 1116.3515625 922.50390625 1194.16210938 1007.90722656 1290.00195312 1007.90722656 c 0
 1385.84277344 1007.90722656 1463.65234375 922.50390625 1463.65234375 817.310546875 c 2
 1463.65234375 -377.858398438 l 1
 1605.078125 -357.188476562 1708.40039062 -311.078125 1782.97949219 -251.545898438 c 0
 1885.24511719 -169.912109375 1944.51953125 -60.3740234375 1973.78222656 93.794921875 c 0
 2032.30761719 402.1328125 1934.69824219 881.868164062 1713.51953125 1367.39648438 c 0
 1711.39941406 1372.05175781 1709.41699219 1376.88867188 1707.64257812 1381.75097656 c 2
 1707.64257812 1381.75097656 1128.63476562 2967.55371094 1128.80859375 2967.52050781 c 1
 1120.8203125 2989.40527344 1116.25097656 3013.32324219 1116.25097656 3038.32519531 c 0
 1116.25097656 3118.515625 1161.46875 3187.20605469 1225.421875 3215.32910156 c 0
 1245.36132812 3224.09667969 1267.15136719 3229.11132812 1289.93066406 3229.11132812 c 0
 1362.99121094 3229.11132812 1425.57421875 3179.48046875 1451.19628906 3109.28710938 c 2
 2027.55957031 1530.28808594 l 1
 2267.27148438 1001.7734375 2399.55761719 467.936523438 2313.78417969 16.0478515625 c 0
 2270.69238281 -210.977539062 2163.54980469 -419.1015625 1987.25195312 -559.83203125 c 0
 1810.953125 -700.561523438 1576.20410156 -771 1290.00195312 -771 c 0
4240 1229 m 1
 4240 -571 l 1
 3880 -571 l 1
 3880 869 l 1
 2800 869 l 1
 2800 -571 l 1
 2440 -571 l 1
 2440 1229 l 1
 4240 1229 l 1
EndSplineSet
Validated: 33
EndChar

StartChar: he.kata
Encoding: 12504 12504 55
Width: 4478
Flags: HW
LayerCount: 2
Fore
SplineSet
1696.36816406 1078.46386719 m 0
 1642.82617188 959.233398438 1730.34082031 822.713867188 1862.06152344 822.713867188 c 0
 1935.81835938 822.713867188 1999.36035156 866.795898438 2027.75488281 930.028320312 c 0
 2128.15917969 1153.61425781 2337.20507812 1663.80957031 2337.20507812 2164.79589844 c 0
 2337.20507812 2329.06054688 2320.44140625 2782.17675781 1949.70507812 3045.33203125 c 0
 1795.55957031 3154.74804688 1582.62695312 3229 1288.60253906 3229 c 0
 1108.8828125 3229 686.60546875 3205.3125 431.692382812 2850.52636719 c 0
 293.233398438 2657.82128906 240 2418.65917969 240 2164.79589844 c 0
 240 1918.72753906 292.676757812 1501.82714844 549.450195312 930.028320312 c 0
 577.845703125 866.795898438 641.38671875 822.713867188 715.143554688 822.713867188 c 0
 846.8671875 822.713867188 934.377929688 959.235351562 880.836914062 1078.46386719 c 0
 821.6875 1210.18261719 603.065429688 1707.13964844 603.065429688 2164.79589844 c 0
 603.065429688 2368.61425781 647.703125 2529.015625 726.733398438 2639.00976562 c 0
 786.41796875 2722.078125 892.768554688 2817.08398438 1107.0703125 2852.16113281 c 1
 1107.0703125 -589.467773438 l 2
 1107.0703125 -689.658203125 1188.41210938 -771 1288.60253906 -771 c 0
 1388.79296875 -771 1470.13476562 -689.658203125 1470.13476562 -589.467773438 c 2
 1470.13476562 2852.16113281 l 1
 1683.26367188 2817.27636719 1790.06347656 2723.08398438 1850.47167969 2639.00976562 c 0
 1929.50195312 2529.015625 1974.13964844 2368.61425781 1974.13964844 2164.79589844 c 0
 1974.13964844 1971.13476562 1932.15722656 1603.53417969 1696.36816406 1078.46386719 c 0
2438.99023438 1229 m 1
 4238.99023438 1229 l 1
 4238.99023438 869 l 1
 2798.99023438 869 l 1
 2798.99023438 509 l 1
 4238.99023438 509 l 1
 4238.99023438 149 l 1
 2798.99023438 149 l 1
 2798.99023438 -211 l 1
 4238.99023438 -211 l 1
 4238.99023438 -571 l 1
 2438.99023438 -571 l 1
 2438.99023438 1229 l 1
EndSplineSet
Validated: 41
EndChar

StartChar: be.kata
Encoding: 12505 12505 56
Width: 4480
Flags: HW
LayerCount: 2
Fore
SplineSet
1289.99804688 -771 m 0
 1003.796875 -771 769.046875 -700.561523438 592.748046875 -559.83203125 c 0
 416.450195312 -419.1015625 309.307617188 -210.977539062 266.215820312 16.0478515625 c 0
 180.442382812 467.936523438 312.728515625 1001.7734375 552.440429688 1530.28808594 c 1
 1128.80371094 3109.28710938 l 2
 1154.42578125 3179.48046875 1217.00878906 3229.11132812 1290.06933594 3229.11132812 c 0
 1312.84863281 3229.11132812 1334.63867188 3224.09667969 1354.578125 3215.32910156 c 0
 1418.53125 3187.20605469 1463.74902344 3118.515625 1463.74902344 3038.32519531 c 0
 1463.74902344 3013.32324219 1459.1796875 2989.40527344 1451.19140625 2967.52050781 c 1
 1451.36523438 2967.55371094 872.357421875 1381.75097656 872.357421875 1381.75097656 c 2
 870.583007812 1376.88867188 868.600585938 1372.05175781 866.48046875 1367.39648438 c 0
 645.301757812 881.868164062 547.692382812 402.1328125 606.217773438 93.794921875 c 0
 635.48046875 -60.3740234375 694.754882812 -169.912109375 797.020507812 -251.545898438 c 0
 871.599609375 -311.078125 974.921875 -357.188476562 1116.34765625 -377.858398438 c 1
 1116.34765625 817.310546875 l 2
 1116.34765625 922.50390625 1194.15722656 1007.90722656 1289.99804688 1007.90722656 c 0
 1385.83789062 1007.90722656 1463.6484375 922.50390625 1463.6484375 817.310546875 c 1
 1463.6484375 -377.858398438 l 1
 1605.07421875 -357.188476562 1708.39746094 -311.078125 1782.97753906 -251.545898438 c 0
 1885.24316406 -169.912109375 1944.51464844 -60.3740234375 1973.77734375 93.794921875 c 0
 2032.30273438 402.1328125 1934.69335938 881.868164062 1713.51464844 1367.39648438 c 0
 1701.84863281 1393.00585938 1695.28320312 1421.89257812 1695.28320312 1452.44921875 c 0
 1695.28320312 1527.0859375 1734.18457031 1591.83398438 1791.17382812 1623.11035156 c 0
 1814.50488281 1635.9140625 1840.82421875 1643.12109375 1868.66308594 1643.12109375 c 0
 1936.6640625 1643.12109375 1995.65527344 1600.42285156 2024.15039062 1537.87207031 c 0
 2266.03808594 1006.88378906 2399.96289062 470.09765625 2313.78027344 16.0478515625 c 0
 2270.68847656 -210.977539062 2163.546875 -419.1015625 1987.24902344 -559.83203125 c 0
 1810.95117188 -700.561523438 1576.19921875 -771 1289.99804688 -771 c 0
2440 1229 m 1
 4240 1229 l 1
 4240 869 l 1
 2800 869 l 1
 2800 509 l 1
 4240 509 l 1
 4240 149 l 1
 2800 149 l 1
 2800 -211 l 1
 4240 -211 l 1
 4240 -571 l 1
 2440 -571 l 1
 2440 1229 l 1
EndSplineSet
Validated: 33
EndChar

StartChar: pe.kata
Encoding: 12506 12506 57
Width: 4480
Flags: HW
LayerCount: 2
Fore
SplineSet
1290.00195312 -771 m 0
 1003.80078125 -771 769.048828125 -700.561523438 592.750976562 -559.83203125 c 0
 416.453125 -419.1015625 309.311523438 -210.977539062 266.219726562 16.0478515625 c 0
 180.037109375 470.09765625 313.961914062 1006.88378906 555.850585938 1537.87207031 c 0
 584.344726562 1600.42285156 643.3359375 1643.12109375 711.336914062 1643.12109375 c 0
 739.176757812 1643.12109375 765.495117188 1635.9140625 788.826171875 1623.11035156 c 0
 845.81640625 1591.83398438 884.716796875 1527.0859375 884.716796875 1452.44921875 c 0
 884.716796875 1421.89257812 878.151367188 1393.00585938 866.485351562 1367.39648438 c 0
 645.306640625 881.868164062 547.697265625 402.1328125 606.22265625 93.794921875 c 0
 635.485351562 -60.3740234375 694.756835938 -169.912109375 797.022460938 -251.545898438 c 0
 871.602539062 -311.078125 974.926757812 -357.188476562 1116.3515625 -377.858398438 c 1
 1116.3515625 817.310546875 l 1
 1116.3515625 922.50390625 1194.16210938 1007.90722656 1290.00195312 1007.90722656 c 0
 1385.84277344 1007.90722656 1463.65234375 922.50390625 1463.65234375 817.310546875 c 2
 1463.65234375 -377.858398438 l 1
 1605.078125 -357.188476562 1708.40039062 -311.078125 1782.97949219 -251.545898438 c 0
 1885.24511719 -169.912109375 1944.51953125 -60.3740234375 1973.78222656 93.794921875 c 0
 2032.30761719 402.1328125 1934.69824219 881.868164062 1713.51953125 1367.39648438 c 0
 1711.39941406 1372.05175781 1709.41699219 1376.88867188 1707.64257812 1381.75097656 c 2
 1707.64257812 1381.75097656 1128.63476562 2967.55371094 1128.80859375 2967.52050781 c 1
 1120.8203125 2989.40527344 1116.25097656 3013.32324219 1116.25097656 3038.32519531 c 0
 1116.25097656 3118.515625 1161.46875 3187.20605469 1225.421875 3215.32910156 c 0
 1245.36132812 3224.09667969 1267.15136719 3229.11132812 1289.93066406 3229.11132812 c 0
 1362.99121094 3229.11132812 1425.57421875 3179.48046875 1451.19628906 3109.28710938 c 2
 2027.55957031 1530.28808594 l 1
 2267.27148438 1001.7734375 2399.55761719 467.936523438 2313.78417969 16.0478515625 c 0
 2270.69238281 -210.977539062 2163.54980469 -419.1015625 1987.25195312 -559.83203125 c 0
 1810.953125 -700.561523438 1576.20410156 -771 1290.00195312 -771 c 0
2440 1229 m 1
 4240 1229 l 1
 4240 869 l 1
 2800 869 l 1
 2800 509 l 1
 4240 509 l 1
 4240 149 l 1
 2800 149 l 1
 2800 -211 l 1
 4240 -211 l 1
 4240 -571 l 1
 2440 -571 l 1
 2440 1229 l 1
EndSplineSet
Validated: 33
EndChar

StartChar: ho.kata
Encoding: 12507 12507 58
Width: 4478
Flags: HW
LayerCount: 2
Fore
SplineSet
2438.99023438 -571 m 1
 2438.99023438 1229 l 1
 4238.99023438 1229 l 1
 4238.99023438 869 l 1
 2798.99023438 869 l 1
 2798.99023438 -211 l 1
 4238.99023438 -211 l 1
 4238.99023438 -571 l 1
 2438.99023438 -571 l 1
1696.36816406 1078.46386719 m 0
 1642.82617188 959.233398438 1730.34082031 822.713867188 1862.06152344 822.713867188 c 0
 1935.81835938 822.713867188 1999.36035156 866.795898438 2027.75488281 930.028320312 c 0
 2128.15917969 1153.61425781 2337.20507812 1663.80957031 2337.20507812 2164.79589844 c 0
 2337.20507812 2329.06054688 2320.44140625 2782.17675781 1949.70507812 3045.33203125 c 0
 1795.55957031 3154.74804688 1582.62695312 3229 1288.60253906 3229 c 0
 1108.8828125 3229 686.60546875 3205.3125 431.692382812 2850.52636719 c 0
 293.233398438 2657.82128906 240 2418.65917969 240 2164.79589844 c 0
 240 1918.72753906 292.676757812 1501.82714844 549.450195312 930.028320312 c 0
 577.845703125 866.795898438 641.38671875 822.713867188 715.143554688 822.713867188 c 0
 846.8671875 822.713867188 934.377929688 959.235351562 880.836914062 1078.46386719 c 0
 821.6875 1210.18261719 603.065429688 1707.13964844 603.065429688 2164.79589844 c 0
 603.065429688 2368.61425781 647.703125 2529.015625 726.733398438 2639.00976562 c 0
 786.41796875 2722.078125 892.768554688 2817.08398438 1107.0703125 2852.16113281 c 1
 1107.0703125 -589.467773438 l 2
 1107.0703125 -689.658203125 1188.41210938 -771 1288.60253906 -771 c 0
 1388.79296875 -771 1470.13476562 -689.658203125 1470.13476562 -589.467773438 c 2
 1470.13476562 2852.16113281 l 1
 1683.26367188 2817.27636719 1790.06347656 2723.08398438 1850.47167969 2639.00976562 c 0
 1929.50195312 2529.015625 1974.13964844 2368.61425781 1974.13964844 2164.79589844 c 0
 1974.13964844 1971.13476562 1932.15722656 1603.53417969 1696.36816406 1078.46386719 c 0
EndSplineSet
Validated: 41
EndChar

StartChar: bo.kata
Encoding: 12508 12508 59
Width: 4480
Flags: HW
LayerCount: 2
Fore
SplineSet
1289.99804688 -771 m 0
 1003.796875 -771 769.046875 -700.561523438 592.748046875 -559.83203125 c 0
 416.450195312 -419.1015625 309.307617188 -210.977539062 266.215820312 16.0478515625 c 0
 180.442382812 467.936523438 312.728515625 1001.7734375 552.440429688 1530.28808594 c 1
 1128.80371094 3109.28710938 l 2
 1154.42578125 3179.48046875 1217.00878906 3229.11132812 1290.06933594 3229.11132812 c 0
 1312.84863281 3229.11132812 1334.63867188 3224.09667969 1354.578125 3215.32910156 c 0
 1418.53125 3187.20605469 1463.74902344 3118.515625 1463.74902344 3038.32519531 c 0
 1463.74902344 3013.32324219 1459.1796875 2989.40527344 1451.19140625 2967.52050781 c 1
 1451.36523438 2967.55371094 872.357421875 1381.75097656 872.357421875 1381.75097656 c 2
 870.583007812 1376.88867188 868.600585938 1372.05175781 866.48046875 1367.39648438 c 0
 645.301757812 881.868164062 547.692382812 402.1328125 606.217773438 93.794921875 c 0
 635.48046875 -60.3740234375 694.754882812 -169.912109375 797.020507812 -251.545898438 c 0
 871.599609375 -311.078125 974.921875 -357.188476562 1116.34765625 -377.858398438 c 1
 1116.34765625 817.310546875 l 2
 1116.34765625 922.50390625 1194.15722656 1007.90722656 1289.99804688 1007.90722656 c 0
 1385.83789062 1007.90722656 1463.6484375 922.50390625 1463.6484375 817.310546875 c 1
 1463.6484375 -377.858398438 l 1
 1605.07421875 -357.188476562 1708.39746094 -311.078125 1782.97753906 -251.545898438 c 0
 1885.24316406 -169.912109375 1944.51464844 -60.3740234375 1973.77734375 93.794921875 c 0
 2032.30273438 402.1328125 1934.69335938 881.868164062 1713.51464844 1367.39648438 c 0
 1701.84863281 1393.00585938 1695.28320312 1421.89257812 1695.28320312 1452.44921875 c 0
 1695.28320312 1527.0859375 1734.18457031 1591.83398438 1791.17382812 1623.11035156 c 0
 1814.50488281 1635.9140625 1840.82421875 1643.12109375 1868.66308594 1643.12109375 c 0
 1936.6640625 1643.12109375 1995.65527344 1600.42285156 2024.15039062 1537.87207031 c 0
 2266.03808594 1006.88378906 2399.96289062 470.09765625 2313.78027344 16.0478515625 c 0
 2270.68847656 -210.977539062 2163.546875 -419.1015625 1987.24902344 -559.83203125 c 0
 1810.95117188 -700.561523438 1576.19921875 -771 1289.99804688 -771 c 0
2440 1229 m 1
 4240 1229 l 1
 4240 869 l 1
 2800 869 l 1
 2800 -211 l 1
 4240 -211 l 1
 4240 -571 l 1
 2440 -571 l 1
 2440 1229 l 1
EndSplineSet
Validated: 33
EndChar

StartChar: po.kata
Encoding: 12509 12509 60
Width: 4480
Flags: HW
LayerCount: 2
Fore
SplineSet
1290.00195312 -771 m 0
 1003.80078125 -771 769.048828125 -700.561523438 592.750976562 -559.83203125 c 0
 416.453125 -419.1015625 309.311523438 -210.977539062 266.219726562 16.0478515625 c 0
 180.037109375 470.09765625 313.961914062 1006.88378906 555.850585938 1537.87207031 c 0
 584.344726562 1600.42285156 643.3359375 1643.12109375 711.336914062 1643.12109375 c 0
 739.176757812 1643.12109375 765.495117188 1635.9140625 788.826171875 1623.11035156 c 0
 845.81640625 1591.83398438 884.716796875 1527.0859375 884.716796875 1452.44921875 c 0
 884.716796875 1421.89257812 878.151367188 1393.00585938 866.485351562 1367.39648438 c 0
 645.306640625 881.868164062 547.697265625 402.1328125 606.22265625 93.794921875 c 0
 635.485351562 -60.3740234375 694.756835938 -169.912109375 797.022460938 -251.545898438 c 0
 871.602539062 -311.078125 974.926757812 -357.188476562 1116.3515625 -377.858398438 c 1
 1116.3515625 817.310546875 l 1
 1116.3515625 922.50390625 1194.16210938 1007.90722656 1290.00195312 1007.90722656 c 0
 1385.84277344 1007.90722656 1463.65234375 922.50390625 1463.65234375 817.310546875 c 2
 1463.65234375 -377.858398438 l 1
 1605.078125 -357.188476562 1708.40039062 -311.078125 1782.97949219 -251.545898438 c 0
 1885.24511719 -169.912109375 1944.51953125 -60.3740234375 1973.78222656 93.794921875 c 0
 2032.30761719 402.1328125 1934.69824219 881.868164062 1713.51953125 1367.39648438 c 0
 1711.39941406 1372.05175781 1709.41699219 1376.88867188 1707.64257812 1381.75097656 c 2
 1707.64257812 1381.75097656 1128.63476562 2967.55371094 1128.80859375 2967.52050781 c 1
 1120.8203125 2989.40527344 1116.25097656 3013.32324219 1116.25097656 3038.32519531 c 0
 1116.25097656 3118.515625 1161.46875 3187.20605469 1225.421875 3215.32910156 c 0
 1245.36132812 3224.09667969 1267.15136719 3229.11132812 1289.93066406 3229.11132812 c 0
 1362.99121094 3229.11132812 1425.57421875 3179.48046875 1451.19628906 3109.28710938 c 2
 2027.55957031 1530.28808594 l 1
 2267.27148438 1001.7734375 2399.55761719 467.936523438 2313.78417969 16.0478515625 c 0
 2270.69238281 -210.977539062 2163.54980469 -419.1015625 1987.25195312 -559.83203125 c 0
 1810.953125 -700.561523438 1576.20410156 -771 1290.00195312 -771 c 0
2440 1229 m 1
 4240 1229 l 1
 4240 869 l 1
 2800 869 l 1
 2800 -211 l 1
 4240 -211 l 1
 4240 -571 l 1
 2440 -571 l 1
 2440 1229 l 1
EndSplineSet
Validated: 33
EndChar

StartChar: ma.kata
Encoding: 12510 12510 61
Width: 4480
Flags: HW
LayerCount: 2
Fore
SplineSet
1286.50488281 3228.96484375 m 0
 1287.6875 3228.98828125 1288.90332031 3228.93261719 1290.09179688 3228.93261719 c 0
 1312.33496094 3228.93261719 1333.60644531 3224.73828125 1353.15820312 3217.09960938 c 0
 1417.77832031 3191.85058594 1463.44335938 3128.94042969 1463.44335938 3055.43847656 c 0
 1463.44335938 3033.19921875 1459.24804688 3011.93359375 1451.60742188 2992.38671875 c 2
 1451.60742188 2992.38671875 825.845703125 1391.59277344 825.8515625 1391.60742188 c 1
 825.568359375 1390.88574219 825.275390625 1390.15136719 824.983398438 1389.43359375 c 0
 625.893554688 899.720703125 555.231445312 408.702148438 601.5234375 67.09765625 c 0
 624.669921875 -103.704101562 677.021484375 -234.018554688 740.216796875 -311.7421875 c 0
 803.413085938 -389.46484375 868.114257812 -424.060546875 977.120117188 -424.060546875 c 0
 1027.71875 -424.060546875 1034.04882812 -417.146484375 1052.35449219 -395.95703125 c 0
 1070.66113281 -374.766601562 1094.95507812 -323.924804688 1109.64453125 -245.091796875 c 0
 1139.02246094 -87.42578125 1129.74707031 163.274414062 1116.70996094 419.80859375 c 0
 1103.67382812 676.34375 1086.87695312 938.715820312 1129.19921875 1165.8515625 c 0
 1150.36132812 1279.41992188 1186.36230469 1388.91113281 1265.015625 1479.95507812 c 0
 1343.66894531 1570.99902344 1470.96484375 1628.22070312 1602.87792969 1628.22070312 c 0
 1806.75097656 1628.22070312 1989.74414062 1534.54980469 2109.06054688 1387.8046875 c 0
 2228.37792969 1241.05957031 2293.35644531 1050.703125 2322.35644531 836.703125 c 0
 2380.35644531 408.703125 2294.57910156 -126.420898438 2076.49804688 -662.84765625 c 0
 2050.69726562 -726.311523438 1988.34765625 -770.92578125 1915.65039062 -770.92578125 c 0
 1892.58496094 -770.92578125 1870.56445312 -766.416015625 1850.42480469 -758.232421875 c 0
 1786.94433594 -732.4375 1742.31835938 -670.103515625 1742.31835938 -597.421875 c 0
 1742.31835938 -574.362304688 1746.82910156 -552.34765625 1755.01464844 -532.212890625 c 0
 1954.10449219 -42.5 2024.76757812 448.518554688 1978.47460938 790.123046875 c 0
 1955.328125 960.92578125 1902.9765625 1091.24023438 1839.78125 1168.96289062 c 0
 1776.58496094 1246.68554688 1711.88378906 1281.28125 1602.87792969 1281.28125 c 0
 1552.27929688 1281.28125 1545.94921875 1274.37011719 1527.64355469 1253.1796875 c 0
 1509.33691406 1231.99023438 1485.04296875 1181.14550781 1470.35449219 1102.3125 c 0
 1440.97558594 944.646484375 1450.25097656 693.947265625 1463.28808594 437.412109375 c 0
 1476.32421875 180.877929688 1493.12207031 -81.4921875 1450.79882812 -308.62890625 c 0
 1429.63769531 -422.197265625 1393.63671875 -531.690429688 1314.98242188 -622.734375 c 0
 1236.32910156 -713.778320312 1109.03320312 -771 977.120117188 -771 c 0
 773.248046875 -771 590.25390625 -677.327148438 470.9375 -530.58203125 c 0
 351.62109375 -383.836914062 286.641601562 -193.48046875 257.641601562 20.51953125 c 0
 199.711914062 447.998046875 285.223632812 982.336914062 502.716796875 1518.10546875 c 1
 502.716796875 1518.10546875 1128.38476562 3118.58203125 1128.390625 3118.67382812 c 0
 1153.23730469 3182.234375 1214.51757812 3227.515625 1286.50488281 3228.96484375 c 0
2440 -571 m 1
 2440 1229 l 1
 2800 1229 l 1
 2800 -211 l 1
 3880 -211 l 1
 3880 1229 l 1
 4240 1229 l 1
 4240 -571 l 1
 2440 -571 l 1
EndSplineSet
Validated: 33
EndChar

StartChar: mi.kata
Encoding: 12511 12511 62
Width: 4480
Flags: HW
LayerCount: 2
Fore
SplineSet
1286.50488281 3228.96484375 m 0
 1287.6875 3228.98828125 1288.90332031 3228.93261719 1290.09179688 3228.93261719 c 0
 1312.33496094 3228.93261719 1333.60644531 3224.73828125 1353.15820312 3217.09960938 c 0
 1417.77832031 3191.85058594 1463.44335938 3128.94042969 1463.44335938 3055.43847656 c 0
 1463.44335938 3033.19921875 1459.24804688 3011.93359375 1451.60742188 2992.38671875 c 2
 1451.60742188 2992.38671875 825.845703125 1391.59277344 825.8515625 1391.60742188 c 1
 825.568359375 1390.88574219 825.275390625 1390.15136719 824.983398438 1389.43359375 c 0
 625.893554688 899.720703125 555.231445312 408.702148438 601.5234375 67.09765625 c 0
 624.669921875 -103.704101562 677.021484375 -234.018554688 740.216796875 -311.7421875 c 0
 803.413085938 -389.46484375 868.114257812 -424.060546875 977.120117188 -424.060546875 c 0
 1027.71875 -424.060546875 1034.04882812 -417.146484375 1052.35449219 -395.95703125 c 0
 1070.66113281 -374.766601562 1094.95507812 -323.924804688 1109.64453125 -245.091796875 c 0
 1139.02246094 -87.42578125 1129.74707031 163.274414062 1116.70996094 419.80859375 c 0
 1103.67382812 676.34375 1086.87695312 938.715820312 1129.19921875 1165.8515625 c 0
 1150.36132812 1279.41992188 1186.36230469 1388.91113281 1265.015625 1479.95507812 c 0
 1343.66894531 1570.99902344 1470.96484375 1628.22070312 1602.87792969 1628.22070312 c 0
 1806.75097656 1628.22070312 1989.74414062 1534.54980469 2109.06054688 1387.8046875 c 0
 2228.37792969 1241.05957031 2293.35644531 1050.703125 2322.35644531 836.703125 c 0
 2380.35644531 408.703125 2294.57910156 -126.420898438 2076.49804688 -662.84765625 c 0
 2050.69726562 -726.311523438 1988.34765625 -770.92578125 1915.65039062 -770.92578125 c 0
 1892.58496094 -770.92578125 1870.56445312 -766.416015625 1850.42480469 -758.232421875 c 0
 1786.94433594 -732.4375 1742.31835938 -670.103515625 1742.31835938 -597.421875 c 0
 1742.31835938 -574.362304688 1746.82910156 -552.34765625 1755.01464844 -532.212890625 c 0
 1954.10449219 -42.5 2024.76757812 448.518554688 1978.47460938 790.123046875 c 0
 1955.328125 960.92578125 1902.9765625 1091.24023438 1839.78125 1168.96289062 c 0
 1776.58496094 1246.68554688 1711.88378906 1281.28125 1602.87792969 1281.28125 c 0
 1552.27929688 1281.28125 1545.94921875 1274.37011719 1527.64355469 1253.1796875 c 0
 1509.33691406 1231.99023438 1485.04296875 1181.14550781 1470.35449219 1102.3125 c 0
 1440.97558594 944.646484375 1450.25097656 693.947265625 1463.28808594 437.412109375 c 0
 1476.32421875 180.877929688 1493.12207031 -81.4921875 1450.79882812 -308.62890625 c 0
 1429.63769531 -422.197265625 1393.63671875 -531.690429688 1314.98242188 -622.734375 c 0
 1236.32910156 -713.778320312 1109.03320312 -771 977.120117188 -771 c 0
 773.248046875 -771 590.25390625 -677.327148438 470.9375 -530.58203125 c 0
 351.62109375 -383.836914062 286.641601562 -193.48046875 257.641601562 20.51953125 c 0
 199.711914062 447.998046875 285.223632812 982.336914062 502.716796875 1518.10546875 c 1
 502.716796875 1518.10546875 1128.38476562 3118.58203125 1128.390625 3118.67382812 c 0
 1153.23730469 3182.234375 1214.51757812 3227.515625 1286.50488281 3228.96484375 c 0
2440 -571 m 1
 2440 1229 l 1
 2800 1229 l 1
 2800 -211 l 1
 3160 -211 l 1
 3160 1229 l 1
 3520 1229 l 1
 3520 -211 l 1
 3880 -211 l 1
 3880 1229 l 1
 4240 1229 l 1
 4240 -571 l 1
 2440 -571 l 1
EndSplineSet
Validated: 33
EndChar

StartChar: mu.kata
Encoding: 12512 12512 63
Width: 4480
Flags: HW
LayerCount: 2
Fore
SplineSet
1286.50488281 3228.96484375 m 0
 1287.6875 3228.98828125 1288.90332031 3228.93261719 1290.09179688 3228.93261719 c 0
 1312.33496094 3228.93261719 1333.60644531 3224.73828125 1353.15820312 3217.09960938 c 0
 1417.77832031 3191.85058594 1463.44335938 3128.94042969 1463.44335938 3055.43847656 c 0
 1463.44335938 3033.19921875 1459.24804688 3011.93359375 1451.60742188 2992.38671875 c 2
 1451.60742188 2992.38671875 825.845703125 1391.59277344 825.8515625 1391.60742188 c 1
 825.568359375 1390.88574219 825.275390625 1390.15136719 824.983398438 1389.43359375 c 0
 625.893554688 899.720703125 555.231445312 408.702148438 601.5234375 67.09765625 c 0
 624.669921875 -103.704101562 677.021484375 -234.018554688 740.216796875 -311.7421875 c 0
 803.413085938 -389.46484375 868.114257812 -424.060546875 977.120117188 -424.060546875 c 0
 1027.71875 -424.060546875 1034.04882812 -417.146484375 1052.35449219 -395.95703125 c 0
 1070.66113281 -374.766601562 1094.95507812 -323.924804688 1109.64453125 -245.091796875 c 0
 1139.02246094 -87.42578125 1129.74707031 163.274414062 1116.70996094 419.80859375 c 0
 1103.67382812 676.34375 1086.87695312 938.715820312 1129.19921875 1165.8515625 c 0
 1150.36132812 1279.41992188 1186.36230469 1388.91113281 1265.015625 1479.95507812 c 0
 1343.66894531 1570.99902344 1470.96484375 1628.22070312 1602.87792969 1628.22070312 c 0
 1806.75097656 1628.22070312 1989.74414062 1534.54980469 2109.06054688 1387.8046875 c 0
 2228.37792969 1241.05957031 2293.35644531 1050.703125 2322.35644531 836.703125 c 0
 2380.35644531 408.703125 2294.57910156 -126.420898438 2076.49804688 -662.84765625 c 0
 2050.69726562 -726.311523438 1988.34765625 -770.92578125 1915.65039062 -770.92578125 c 0
 1892.58496094 -770.92578125 1870.56445312 -766.416015625 1850.42480469 -758.232421875 c 0
 1786.94433594 -732.4375 1742.31835938 -670.103515625 1742.31835938 -597.421875 c 0
 1742.31835938 -574.362304688 1746.82910156 -552.34765625 1755.01464844 -532.212890625 c 0
 1954.10449219 -42.5 2024.76757812 448.518554688 1978.47460938 790.123046875 c 0
 1955.328125 960.92578125 1902.9765625 1091.24023438 1839.78125 1168.96289062 c 0
 1776.58496094 1246.68554688 1711.88378906 1281.28125 1602.87792969 1281.28125 c 0
 1552.27929688 1281.28125 1545.94921875 1274.37011719 1527.64355469 1253.1796875 c 0
 1509.33691406 1231.99023438 1485.04296875 1181.14550781 1470.35449219 1102.3125 c 0
 1440.97558594 944.646484375 1450.25097656 693.947265625 1463.28808594 437.412109375 c 0
 1476.32421875 180.877929688 1493.12207031 -81.4921875 1450.79882812 -308.62890625 c 0
 1429.63769531 -422.197265625 1393.63671875 -531.690429688 1314.98242188 -622.734375 c 0
 1236.32910156 -713.778320312 1109.03320312 -771 977.120117188 -771 c 0
 773.248046875 -771 590.25390625 -677.327148438 470.9375 -530.58203125 c 0
 351.62109375 -383.836914062 286.641601562 -193.48046875 257.641601562 20.51953125 c 0
 199.711914062 447.998046875 285.223632812 982.336914062 502.716796875 1518.10546875 c 1
 502.716796875 1518.10546875 1128.38476562 3118.58203125 1128.390625 3118.67382812 c 0
 1153.23730469 3182.234375 1214.51757812 3227.515625 1286.50488281 3228.96484375 c 0
4240 1229 m 1
 4240 -571 l 1
 3880 -571 l 1
 3880 869 l 1
 2800 869 l 1
 2800 -571 l 1
 2440 -571 l 1
 2440 1229 l 1
 4240 1229 l 1
EndSplineSet
Validated: 33
EndChar

StartChar: me.kata
Encoding: 12513 12513 64
Width: 4480
Flags: HW
LayerCount: 2
Fore
SplineSet
1286.50488281 3228.96484375 m 0
 1287.6875 3228.98828125 1288.90332031 3228.93261719 1290.09179688 3228.93261719 c 0
 1312.33496094 3228.93261719 1333.60644531 3224.73828125 1353.15820312 3217.09960938 c 0
 1417.77832031 3191.85058594 1463.44335938 3128.94042969 1463.44335938 3055.43847656 c 0
 1463.44335938 3033.19921875 1459.24804688 3011.93359375 1451.60742188 2992.38671875 c 2
 1451.60742188 2992.38671875 825.845703125 1391.59277344 825.8515625 1391.60742188 c 1
 825.568359375 1390.88574219 825.275390625 1390.15136719 824.983398438 1389.43359375 c 0
 625.893554688 899.720703125 555.231445312 408.702148438 601.5234375 67.09765625 c 0
 624.669921875 -103.704101562 677.021484375 -234.018554688 740.216796875 -311.7421875 c 0
 803.413085938 -389.46484375 868.114257812 -424.060546875 977.120117188 -424.060546875 c 0
 1027.71875 -424.060546875 1034.04882812 -417.146484375 1052.35449219 -395.95703125 c 0
 1070.66113281 -374.766601562 1094.95507812 -323.924804688 1109.64453125 -245.091796875 c 0
 1139.02246094 -87.42578125 1129.74707031 163.274414062 1116.70996094 419.80859375 c 0
 1103.67382812 676.34375 1086.87695312 938.715820312 1129.19921875 1165.8515625 c 0
 1150.36132812 1279.41992188 1186.36230469 1388.91113281 1265.015625 1479.95507812 c 0
 1343.66894531 1570.99902344 1470.96484375 1628.22070312 1602.87792969 1628.22070312 c 0
 1806.75097656 1628.22070312 1989.74414062 1534.54980469 2109.06054688 1387.8046875 c 0
 2228.37792969 1241.05957031 2293.35644531 1050.703125 2322.35644531 836.703125 c 0
 2380.35644531 408.703125 2294.57910156 -126.420898438 2076.49804688 -662.84765625 c 0
 2050.69726562 -726.311523438 1988.34765625 -770.92578125 1915.65039062 -770.92578125 c 0
 1892.58496094 -770.92578125 1870.56445312 -766.416015625 1850.42480469 -758.232421875 c 0
 1786.94433594 -732.4375 1742.31835938 -670.103515625 1742.31835938 -597.421875 c 0
 1742.31835938 -574.362304688 1746.82910156 -552.34765625 1755.01464844 -532.212890625 c 0
 1954.10449219 -42.5 2024.76757812 448.518554688 1978.47460938 790.123046875 c 0
 1955.328125 960.92578125 1902.9765625 1091.24023438 1839.78125 1168.96289062 c 0
 1776.58496094 1246.68554688 1711.88378906 1281.28125 1602.87792969 1281.28125 c 0
 1552.27929688 1281.28125 1545.94921875 1274.37011719 1527.64355469 1253.1796875 c 0
 1509.33691406 1231.99023438 1485.04296875 1181.14550781 1470.35449219 1102.3125 c 0
 1440.97558594 944.646484375 1450.25097656 693.947265625 1463.28808594 437.412109375 c 0
 1476.32421875 180.877929688 1493.12207031 -81.4921875 1450.79882812 -308.62890625 c 0
 1429.63769531 -422.197265625 1393.63671875 -531.690429688 1314.98242188 -622.734375 c 0
 1236.32910156 -713.778320312 1109.03320312 -771 977.120117188 -771 c 0
 773.248046875 -771 590.25390625 -677.327148438 470.9375 -530.58203125 c 0
 351.62109375 -383.836914062 286.641601562 -193.48046875 257.641601562 20.51953125 c 0
 199.711914062 447.998046875 285.223632812 982.336914062 502.716796875 1518.10546875 c 1
 502.716796875 1518.10546875 1128.38476562 3118.58203125 1128.390625 3118.67382812 c 0
 1153.23730469 3182.234375 1214.51757812 3227.515625 1286.50488281 3228.96484375 c 0
2440 1229 m 1
 4240 1229 l 1
 4240 869 l 1
 2800 869 l 1
 2800 509 l 1
 4240 509 l 1
 4240 149 l 1
 2800 149 l 1
 2800 -211 l 1
 4240 -211 l 1
 4240 -571 l 1
 2440 -571 l 1
 2440 1229 l 1
EndSplineSet
Validated: 33
EndChar

StartChar: mo.kata
Encoding: 12514 12514 65
Width: 4480
Flags: HW
LayerCount: 2
Fore
SplineSet
1286.50488281 3228.96484375 m 0
 1287.6875 3228.98828125 1288.90332031 3228.93261719 1290.09179688 3228.93261719 c 0
 1312.33496094 3228.93261719 1333.60644531 3224.73828125 1353.15820312 3217.09960938 c 0
 1417.77832031 3191.85058594 1463.44335938 3128.94042969 1463.44335938 3055.43847656 c 0
 1463.44335938 3033.19921875 1459.24804688 3011.93359375 1451.60742188 2992.38671875 c 2
 1451.60742188 2992.38671875 825.845703125 1391.59277344 825.8515625 1391.60742188 c 1
 825.568359375 1390.88574219 825.275390625 1390.15136719 824.983398438 1389.43359375 c 0
 625.893554688 899.720703125 555.231445312 408.702148438 601.5234375 67.09765625 c 0
 624.669921875 -103.704101562 677.021484375 -234.018554688 740.216796875 -311.7421875 c 0
 803.413085938 -389.46484375 868.114257812 -424.060546875 977.120117188 -424.060546875 c 0
 1027.71875 -424.060546875 1034.04882812 -417.146484375 1052.35449219 -395.95703125 c 0
 1070.66113281 -374.766601562 1094.95507812 -323.924804688 1109.64453125 -245.091796875 c 0
 1139.02246094 -87.42578125 1129.74707031 163.274414062 1116.70996094 419.80859375 c 0
 1103.67382812 676.34375 1086.87695312 938.715820312 1129.19921875 1165.8515625 c 0
 1150.36132812 1279.41992188 1186.36230469 1388.91113281 1265.015625 1479.95507812 c 0
 1343.66894531 1570.99902344 1470.96484375 1628.22070312 1602.87792969 1628.22070312 c 0
 1806.75097656 1628.22070312 1989.74414062 1534.54980469 2109.06054688 1387.8046875 c 0
 2228.37792969 1241.05957031 2293.35644531 1050.703125 2322.35644531 836.703125 c 0
 2380.35644531 408.703125 2294.57910156 -126.420898438 2076.49804688 -662.84765625 c 0
 2050.69726562 -726.311523438 1988.34765625 -770.92578125 1915.65039062 -770.92578125 c 0
 1892.58496094 -770.92578125 1870.56445312 -766.416015625 1850.42480469 -758.232421875 c 0
 1786.94433594 -732.4375 1742.31835938 -670.103515625 1742.31835938 -597.421875 c 0
 1742.31835938 -574.362304688 1746.82910156 -552.34765625 1755.01464844 -532.212890625 c 0
 1954.10449219 -42.5 2024.76757812 448.518554688 1978.47460938 790.123046875 c 0
 1955.328125 960.92578125 1902.9765625 1091.24023438 1839.78125 1168.96289062 c 0
 1776.58496094 1246.68554688 1711.88378906 1281.28125 1602.87792969 1281.28125 c 0
 1552.27929688 1281.28125 1545.94921875 1274.37011719 1527.64355469 1253.1796875 c 0
 1509.33691406 1231.99023438 1485.04296875 1181.14550781 1470.35449219 1102.3125 c 0
 1440.97558594 944.646484375 1450.25097656 693.947265625 1463.28808594 437.412109375 c 0
 1476.32421875 180.877929688 1493.12207031 -81.4921875 1450.79882812 -308.62890625 c 0
 1429.63769531 -422.197265625 1393.63671875 -531.690429688 1314.98242188 -622.734375 c 0
 1236.32910156 -713.778320312 1109.03320312 -771 977.120117188 -771 c 0
 773.248046875 -771 590.25390625 -677.327148438 470.9375 -530.58203125 c 0
 351.62109375 -383.836914062 286.641601562 -193.48046875 257.641601562 20.51953125 c 0
 199.711914062 447.998046875 285.223632812 982.336914062 502.716796875 1518.10546875 c 1
 502.716796875 1518.10546875 1128.38476562 3118.58203125 1128.390625 3118.67382812 c 0
 1153.23730469 3182.234375 1214.51757812 3227.515625 1286.50488281 3228.96484375 c 0
2440 1229 m 1
 4240 1229 l 1
 4240 869 l 1
 2800 869 l 1
 2800 -211 l 1
 4240 -211 l 1
 4240 -571 l 1
 2440 -571 l 1
 2440 1229 l 1
EndSplineSet
Validated: 33
EndChar

StartChar: xya.kata
Encoding: 12515 12515 66
Width: 2528
Flags: W
HStem: -307 409.6<649.6 1878.4> 512.2 409.6<649.6 1878.4>
VStem: 240 409.6<102.6 512.2 921.8 1741> 1878.4 409.6<102.6 512.2 921.8 1741>
LayerCount: 2
Fore
SplineSet
240 1741 m 1
 649.599609375 1741 l 1
 649.599609375 921.799804688 l 1
 1878.40039062 921.799804688 l 1
 1878.40039062 1741 l 1
 2288 1741 l 1
 2288 -307 l 1
 240 -307 l 1
 240 1741 l 1
649.599609375 512.200195312 m 1
 649.599609375 102.599609375 l 1
 1878.40039062 102.599609375 l 1
 1878.40039062 512.200195312 l 1
 649.599609375 512.200195312 l 1
EndSplineSet
Validated: 1
EndChar

StartChar: ya.kata
Encoding: 12516 12516 67
Width: 3071
Flags: HW
LayerCount: 2
Fore
SplineSet
2516.33496094 2767 m 0
 2382.30371094 2767 2273.48828125 2658.18457031 2273.48828125 2524.15332031 c 0
 2273.48828125 2485.21777344 2282.67089844 2448.41113281 2298.98632812 2415.78027344 c 0
 2393.60058594 2226.56152344 2560.35839844 1864.57617188 2641.29101562 1471.84667969 c 1
 772.359375 1471.84667969 l 1
 818.19921875 1694.29101562 914.728515625 2015.92871094 1114.6640625 2415.78027344 c 0
 1130.97949219 2448.41113281 1140.16210938 2485.21777344 1140.16210938 2524.15332031 c 0
 1140.16210938 2658.18457031 1031.34667969 2767 897.315429688 2767 c 0
 802.219726562 2767 719.817382812 2712.22265625 679.966796875 2632.52636719 c 0
 534.748046875 2342.1015625 240 1693.19238281 240 1052.859375 c 0
 240 725.209960938 317.744140625 413.506835938 515.712890625 166.057617188 c 0
 717.360351562 -85.98828125 1074.42773438 -309 1706.82519531 -309 c 0
 1967.12109375 -309 2321.70019531 -272.177734375 2622.25292969 -80.58203125 c 0
 2937.11621094 120.135742188 3173.65039062 479.966796875 3173.65039062 1052.859375 c 0
 3173.65039062 1272.36425781 3139.2734375 1501.41308594 3078.31933594 1736.07421875 c 0
 3002.13183594 2029.38085938 2884.0078125 2331.89160156 2733.68359375 2632.52636719 c 0
 2693.83300781 2712.22265625 2611.43066406 2767 2516.33496094 2767 c 0
1706.82519531 176.693359375 m 0
 1381.04199219 176.693359375 1071.94726562 248.1484375 895.150390625 469.133789062 c 0
 795.90625 593.18359375 736.946289062 765.7265625 727.149414062 986.153320312 c 1
 2686.50097656 986.153320312 l 1
 2667.76269531 564.556640625 2474.06738281 400.91796875 2361.68066406 329.274414062 c 0
 2177.31152344 211.743164062 1933.3203125 176.693359375 1706.82519531 176.693359375 c 0
EndSplineSet
Validated: 9
EndChar

StartChar: xyu.kata
Encoding: 12517 12517 68
Width: 2528
Flags: HW
LayerCount: 2
Fore
SplineSet
2288 -307 m 1
 1878.40039062 -307 l 1
 1878.40039062 512.200195312 l 1
 649.599609375 512.200195312 l 1
 649.599609375 -307 l 1
 240 -307 l 1
 240 1741 l 1
 2288 1741 l 1
 2288 -307 l 1
1878.40039062 921.799804688 m 1
 1878.40039062 1331.40039062 l 1
 649.599609375 1331.40039062 l 1
 649.599609375 921.799804688 l 1
 1878.40039062 921.799804688 l 1
EndSplineSet
Validated: 1
EndChar

StartChar: yu.kata
Encoding: 12518 12518 69
Width: 3071
Flags: HW
LayerCount: 2
Fore
SplineSet
2273.48828125 -66.1533203125 m 0
 2273.48828125 -200.184570312 2382.30371094 -309 2516.33496094 -309 c 0
 2611.43066406 -309 2693.83300781 -254.22265625 2733.68359375 -174.526367188 c 0
 2878.90234375 115.8984375 3173.65039062 764.807617188 3173.65039062 1405.140625 c 0
 3173.65039062 1732.79003906 3095.90625 2044.49316406 2897.9375 2291.94238281 c 0
 2696.29003906 2543.98828125 2339.22265625 2767 1706.82519531 2767 c 0
 1446.52929688 2767 1091.95019531 2730.17773438 791.397460938 2538.58203125 c 0
 476.534179688 2337.86425781 240 1978.03320312 240 1405.140625 c 0
 240 1185.63574219 274.376953125 956.586914062 335.331054688 721.92578125 c 0
 411.518554688 428.619140625 529.642578125 126.108398438 679.966796875 -174.526367188 c 0
 719.817382812 -254.22265625 802.219726562 -309 897.315429688 -309 c 0
 1031.34667969 -309 1140.16210938 -200.184570312 1140.16210938 -66.1533203125 c 0
 1140.16210938 -27.2177734375 1130.97949219 9.5888671875 1114.6640625 42.2197265625 c 0
 1020.04980469 231.438476562 853.291992188 593.423828125 772.359375 986.153320312 c 1
 2641.29101562 986.153320312 l 1
 2595.45117188 763.708984375 2498.921875 442.071289062 2298.98632812 42.2197265625 c 0
 2282.67089844 9.5888671875 2273.48828125 -27.2177734375 2273.48828125 -66.1533203125 c 0
1706.82519531 2281.30664062 m 0
 2032.60839844 2281.30664062 2341.703125 2209.8515625 2518.5 1988.86621094 c 0
 2617.74414062 1864.81640625 2676.70410156 1692.2734375 2686.50097656 1471.84667969 c 1
 727.149414062 1471.84667969 l 1
 745.887695312 1893.44335938 939.583007812 2057.08203125 1051.96972656 2128.72558594 c 0
 1236.33886719 2246.25683594 1480.33007812 2281.30664062 1706.82519531 2281.30664062 c 0
EndSplineSet
Validated: 9
EndChar

StartChar: xyo.kata
Encoding: 12519 12519 70
Width: 2528
Flags: W
HStem: -307 409.6<649.6 1059.2 1468.8 2288> 1331.4 409.6<649.6 1059.2 1468.8 2288>
VStem: 240 409.6<102.6 1331.4> 1059.2 409.6<102.6 1331.4>
LayerCount: 2
Fore
SplineSet
2288 1741 m 1
 2288 1331.40039062 l 1
 1468.79980469 1331.40039062 l 1
 1468.79980469 102.599609375 l 1
 2288 102.599609375 l 1
 2288 -307 l 1
 240 -307 l 1
 240 1741 l 1
 2288 1741 l 1
1059.20019531 1331.40039062 m 1
 649.599609375 1331.40039062 l 1
 649.599609375 102.599609375 l 1
 1059.20019531 102.599609375 l 1
 1059.20019531 1331.40039062 l 1
EndSplineSet
Validated: 1
EndChar

StartChar: yo.kata
Encoding: 12520 12520 71
Width: 3286
Flags: HW
LayerCount: 2
Fore
SplineSet
3073.15234375 1795.66308594 m 0
 3207.18359375 1795.66308594 3316 1904.47851562 3316 2038.50976562 c 0
 3316 2133.60546875 3261.22265625 2216.0078125 3181.52539062 2255.85839844 c 0
 2891.1015625 2401.07714844 2242.19140625 2695.82519531 1601.859375 2695.82519531 c 0
 1274.2109375 2695.82519531 962.5078125 2618.08105469 715.05859375 2420.11230469 c 0
 463.01171875 2218.46484375 240 1861.39746094 240 1229 c 0
 240 968.703125 276.822265625 614.125 468.41796875 313.572265625 c 0
 669.13671875 -1.291015625 1028.96679688 -237.825195312 1601.859375 -237.825195312 c 0
 1821.36523438 -237.825195312 2050.41210938 -203.448242188 2285.07421875 -142.494140625 c 0
 2578.38085938 -66.306640625 2880.890625 51.8173828125 3181.52539062 202.141601562 c 0
 3261.22265625 241.9921875 3316 324.39453125 3316 419.490234375 c 0
 3316 553.521484375 3207.18359375 662.336914062 3073.15234375 662.336914062 c 0
 3034.21679688 662.336914062 2997.41015625 653.154296875 2964.77929688 636.838867188 c 0
 2775.56054688 542.224609375 2413.57617188 375.466796875 2020.84570312 294.534179688 c 1
 2020.84570312 2163.46582031 l 1
 2243.29101562 2117.62597656 2564.92773438 2021.09667969 2964.77929688 1821.16113281 c 0
 2997.41015625 1804.84570312 3034.21679688 1795.66308594 3073.15234375 1795.66308594 c 0
725.693359375 1229 m 0
 725.693359375 1554.78320312 797.1484375 1863.87792969 1018.13476562 2040.67480469 c 0
 1142.18359375 2139.91894531 1314.7265625 2198.87890625 1535.15234375 2208.67578125 c 1
 1535.15234375 249.32421875 l 1
 1113.55664062 268.0625 949.91796875 461.7578125 878.275390625 574.14453125 c 0
 760.744140625 758.513671875 725.693359375 1002.50488281 725.693359375 1229 c 0
EndSplineSet
Validated: 9
EndChar

StartChar: ra.kata
Encoding: 12521 12521 72
Width: 4480
Flags: HW
LayerCount: 2
Fore
SplineSet
1298.58789062 3228.796875 m 0
 1373.47070312 3225.25390625 1436.61035156 3176.34375 1460.87597656 3108.9296875 c 2
 2032.375 1521.25195312 l 1
 2269.14941406 992.080078125 2397.82617188 459.916015625 2314.66992188 15.65234375 c 0
 2272.91113281 -207.440429688 2170.37597656 -412.258789062 1994.08984375 -554.95703125 c 0
 1817.80371094 -697.654296875 1578.10742188 -771 1290.00097656 -771 c 0
 1001.89355469 -771 762.19921875 -697.654296875 585.913085938 -554.95703125 c 0
 409.626953125 -412.258789062 307.091796875 -207.440429688 265.333984375 15.65234375 c 0
 181.817382812 461.837890625 311.932617188 996.685546875 550.66796875 1528.11914062 c 0
 579.073242188 1591.3515625 642.694335938 1635.19433594 716.478515625 1635.19433594 c 0
 742.921875 1635.19433594 768.052734375 1629.53222656 790.723632812 1619.35546875 c 0
 853.979492188 1590.95996094 897.838867188 1527.36328125 897.838867188 1453.60644531 c 0
 897.838867188 1427.17285156 892.174804688 1402.05078125 881.994140625 1379.38867188 c 0
 661.79296875 889.212890625 562.4375 402.448242188 622.338867188 82.42578125 c 0
 652.290039062 -77.5849609375 714.685546875 -192.01953125 814.478515625 -272.798828125 c 0
 914.271484375 -353.578125 1061.80371094 -407.935546875 1290.00097656 -407.935546875 c 0
 1518.19726562 -407.935546875 1665.73144531 -353.578125 1765.52441406 -272.798828125 c 0
 1865.31738281 -192.01953125 1927.71386719 -77.5849609375 1957.6640625 82.42578125 c 0
 2017.56542969 402.448242188 1918.2109375 889.212890625 1698.00976562 1379.38867188 c 0
 1696.12695312 1383.58007812 1694.36425781 1387.94042969 1692.79882812 1392.29296875 c 2
 1692.79882812 1392.29296875 1119.00585938 2986.00976562 1119.12695312 2986.00585938 c 1
 1112.22265625 3005.18652344 1108.33886719 3025.86425781 1108.33886719 3047.41015625 c 0
 1108.33886719 3126.05566406 1158.47753906 3193.08691406 1228.51660156 3218.27929688 c 0
 1247.70410156 3225.18066406 1268.3203125 3229.00292969 1289.87304688 3229.00292969 c 0
 1292.79492188 3229.00292969 1295.70019531 3228.93359375 1298.58789062 3228.796875 c 0
2440 -571 m 1
 2440 1229 l 1
 2800 1229 l 1
 2800 -211 l 1
 3880 -211 l 1
 3880 1229 l 1
 4240 1229 l 1
 4240 -571 l 1
 2440 -571 l 1
EndSplineSet
Validated: 33
EndChar

StartChar: ri.kata
Encoding: 12522 12522 73
Width: 4480
Flags: HW
LayerCount: 2
Fore
SplineSet
1298.58789062 3228.796875 m 0
 1373.47070312 3225.25390625 1436.61035156 3176.34375 1460.87597656 3108.9296875 c 2
 2032.375 1521.25195312 l 1
 2269.14941406 992.080078125 2397.82617188 459.916015625 2314.66992188 15.65234375 c 0
 2272.91113281 -207.440429688 2170.37597656 -412.258789062 1994.08984375 -554.95703125 c 0
 1817.80371094 -697.654296875 1578.10742188 -771 1290.00097656 -771 c 0
 1001.89355469 -771 762.19921875 -697.654296875 585.913085938 -554.95703125 c 0
 409.626953125 -412.258789062 307.091796875 -207.440429688 265.333984375 15.65234375 c 0
 181.817382812 461.837890625 311.932617188 996.685546875 550.66796875 1528.11914062 c 0
 579.073242188 1591.3515625 642.694335938 1635.19433594 716.478515625 1635.19433594 c 0
 742.921875 1635.19433594 768.052734375 1629.53222656 790.723632812 1619.35546875 c 0
 853.979492188 1590.95996094 897.838867188 1527.36328125 897.838867188 1453.60644531 c 0
 897.838867188 1427.17285156 892.174804688 1402.05078125 881.994140625 1379.38867188 c 0
 661.79296875 889.212890625 562.4375 402.448242188 622.338867188 82.42578125 c 0
 652.290039062 -77.5849609375 714.685546875 -192.01953125 814.478515625 -272.798828125 c 0
 914.271484375 -353.578125 1061.80371094 -407.935546875 1290.00097656 -407.935546875 c 0
 1518.19726562 -407.935546875 1665.73144531 -353.578125 1765.52441406 -272.798828125 c 0
 1865.31738281 -192.01953125 1927.71386719 -77.5849609375 1957.6640625 82.42578125 c 0
 2017.56542969 402.448242188 1918.2109375 889.212890625 1698.00976562 1379.38867188 c 0
 1696.12695312 1383.58007812 1694.36425781 1387.94042969 1692.79882812 1392.29296875 c 2
 1692.79882812 1392.29296875 1119.00585938 2986.00976562 1119.12695312 2986.00585938 c 1
 1112.22265625 3005.18652344 1108.33886719 3025.86425781 1108.33886719 3047.41015625 c 0
 1108.33886719 3126.05566406 1158.47753906 3193.08691406 1228.51660156 3218.27929688 c 0
 1247.70410156 3225.18066406 1268.3203125 3229.00292969 1289.87304688 3229.00292969 c 0
 1292.79492188 3229.00292969 1295.70019531 3228.93359375 1298.58789062 3228.796875 c 0
2440 -571 m 1
 2440 1229 l 1
 2800 1229 l 1
 2800 -211 l 1
 3160 -211 l 1
 3160 1229 l 1
 3520 1229 l 1
 3520 -211 l 1
 3880 -211 l 1
 3880 1229 l 1
 4240 1229 l 1
 4240 -571 l 1
 2440 -571 l 1
EndSplineSet
Validated: 33
EndChar

StartChar: ru.kata
Encoding: 12523 12523 74
Width: 4480
Flags: HW
LayerCount: 2
Fore
SplineSet
1298.58789062 3228.796875 m 0
 1373.47070312 3225.25390625 1436.61035156 3176.34375 1460.87597656 3108.9296875 c 2
 2032.375 1521.25195312 l 1
 2269.14941406 992.080078125 2397.82617188 459.916015625 2314.66992188 15.65234375 c 0
 2272.91113281 -207.440429688 2170.37597656 -412.258789062 1994.08984375 -554.95703125 c 0
 1817.80371094 -697.654296875 1578.10742188 -771 1290.00097656 -771 c 0
 1001.89355469 -771 762.19921875 -697.654296875 585.913085938 -554.95703125 c 0
 409.626953125 -412.258789062 307.091796875 -207.440429688 265.333984375 15.65234375 c 0
 181.817382812 461.837890625 311.932617188 996.685546875 550.66796875 1528.11914062 c 0
 579.073242188 1591.3515625 642.694335938 1635.19433594 716.478515625 1635.19433594 c 0
 742.921875 1635.19433594 768.052734375 1629.53222656 790.723632812 1619.35546875 c 0
 853.979492188 1590.95996094 897.838867188 1527.36328125 897.838867188 1453.60644531 c 0
 897.838867188 1427.17285156 892.174804688 1402.05078125 881.994140625 1379.38867188 c 0
 661.79296875 889.212890625 562.4375 402.448242188 622.338867188 82.42578125 c 0
 652.290039062 -77.5849609375 714.685546875 -192.01953125 814.478515625 -272.798828125 c 0
 914.271484375 -353.578125 1061.80371094 -407.935546875 1290.00097656 -407.935546875 c 0
 1518.19726562 -407.935546875 1665.73144531 -353.578125 1765.52441406 -272.798828125 c 0
 1865.31738281 -192.01953125 1927.71386719 -77.5849609375 1957.6640625 82.42578125 c 0
 2017.56542969 402.448242188 1918.2109375 889.212890625 1698.00976562 1379.38867188 c 0
 1696.12695312 1383.58007812 1694.36425781 1387.94042969 1692.79882812 1392.29296875 c 2
 1692.79882812 1392.29296875 1119.00585938 2986.00976562 1119.12695312 2986.00585938 c 1
 1112.22265625 3005.18652344 1108.33886719 3025.86425781 1108.33886719 3047.41015625 c 0
 1108.33886719 3126.05566406 1158.47753906 3193.08691406 1228.51660156 3218.27929688 c 0
 1247.70410156 3225.18066406 1268.3203125 3229.00292969 1289.87304688 3229.00292969 c 0
 1292.79492188 3229.00292969 1295.70019531 3228.93359375 1298.58789062 3228.796875 c 0
4240 1229 m 1
 4240 -571 l 1
 3880 -571 l 1
 3880 869 l 1
 2800 869 l 1
 2800 -571 l 1
 2440 -571 l 1
 2440 1229 l 1
 4240 1229 l 1
EndSplineSet
Validated: 33
EndChar

StartChar: re.kata
Encoding: 12524 12524 75
Width: 4480
Flags: HW
LayerCount: 2
Fore
SplineSet
1298.58789062 3228.796875 m 0
 1373.47070312 3225.25390625 1436.61035156 3176.34375 1460.87597656 3108.9296875 c 2
 2032.375 1521.25195312 l 1
 2269.14941406 992.080078125 2397.82617188 459.916015625 2314.66992188 15.65234375 c 0
 2272.91113281 -207.440429688 2170.37597656 -412.258789062 1994.08984375 -554.95703125 c 0
 1817.80371094 -697.654296875 1578.10742188 -771 1290.00097656 -771 c 0
 1001.89355469 -771 762.19921875 -697.654296875 585.913085938 -554.95703125 c 0
 409.626953125 -412.258789062 307.091796875 -207.440429688 265.333984375 15.65234375 c 0
 181.817382812 461.837890625 311.932617188 996.685546875 550.66796875 1528.11914062 c 0
 579.073242188 1591.3515625 642.694335938 1635.19433594 716.478515625 1635.19433594 c 0
 742.921875 1635.19433594 768.052734375 1629.53222656 790.723632812 1619.35546875 c 0
 853.979492188 1590.95996094 897.838867188 1527.36328125 897.838867188 1453.60644531 c 0
 897.838867188 1427.17285156 892.174804688 1402.05078125 881.994140625 1379.38867188 c 0
 661.79296875 889.212890625 562.4375 402.448242188 622.338867188 82.42578125 c 0
 652.290039062 -77.5849609375 714.685546875 -192.01953125 814.478515625 -272.798828125 c 0
 914.271484375 -353.578125 1061.80371094 -407.935546875 1290.00097656 -407.935546875 c 0
 1518.19726562 -407.935546875 1665.73144531 -353.578125 1765.52441406 -272.798828125 c 0
 1865.31738281 -192.01953125 1927.71386719 -77.5849609375 1957.6640625 82.42578125 c 0
 2017.56542969 402.448242188 1918.2109375 889.212890625 1698.00976562 1379.38867188 c 0
 1696.12695312 1383.58007812 1694.36425781 1387.94042969 1692.79882812 1392.29296875 c 2
 1692.79882812 1392.29296875 1119.00585938 2986.00976562 1119.12695312 2986.00585938 c 1
 1112.22265625 3005.18652344 1108.33886719 3025.86425781 1108.33886719 3047.41015625 c 0
 1108.33886719 3126.05566406 1158.47753906 3193.08691406 1228.51660156 3218.27929688 c 0
 1247.70410156 3225.18066406 1268.3203125 3229.00292969 1289.87304688 3229.00292969 c 0
 1292.79492188 3229.00292969 1295.70019531 3228.93359375 1298.58789062 3228.796875 c 0
2440 1229 m 1
 4240 1229 l 1
 4240 869 l 1
 2800 869 l 1
 2800 509 l 1
 4240 509 l 1
 4240 149 l 1
 2800 149 l 1
 2800 -211 l 1
 4240 -211 l 1
 4240 -571 l 1
 2440 -571 l 1
 2440 1229 l 1
EndSplineSet
Validated: 33
EndChar

StartChar: ro.kata
Encoding: 12525 12525 76
Width: 4480
Flags: HW
LayerCount: 2
Fore
SplineSet
1298.58789062 3228.796875 m 0
 1373.47070312 3225.25390625 1436.61035156 3176.34375 1460.87597656 3108.9296875 c 2
 2032.375 1521.25195312 l 1
 2269.14941406 992.080078125 2397.82617188 459.916015625 2314.66992188 15.65234375 c 0
 2272.91113281 -207.440429688 2170.37597656 -412.258789062 1994.08984375 -554.95703125 c 0
 1817.80371094 -697.654296875 1578.10742188 -771 1290.00097656 -771 c 0
 1001.89355469 -771 762.19921875 -697.654296875 585.913085938 -554.95703125 c 0
 409.626953125 -412.258789062 307.091796875 -207.440429688 265.333984375 15.65234375 c 0
 181.817382812 461.837890625 311.932617188 996.685546875 550.66796875 1528.11914062 c 0
 579.073242188 1591.3515625 642.694335938 1635.19433594 716.478515625 1635.19433594 c 0
 742.921875 1635.19433594 768.052734375 1629.53222656 790.723632812 1619.35546875 c 0
 853.979492188 1590.95996094 897.838867188 1527.36328125 897.838867188 1453.60644531 c 0
 897.838867188 1427.17285156 892.174804688 1402.05078125 881.994140625 1379.38867188 c 0
 661.79296875 889.212890625 562.4375 402.448242188 622.338867188 82.42578125 c 0
 652.290039062 -77.5849609375 714.685546875 -192.01953125 814.478515625 -272.798828125 c 0
 914.271484375 -353.578125 1061.80371094 -407.935546875 1290.00097656 -407.935546875 c 0
 1518.19726562 -407.935546875 1665.73144531 -353.578125 1765.52441406 -272.798828125 c 0
 1865.31738281 -192.01953125 1927.71386719 -77.5849609375 1957.6640625 82.42578125 c 0
 2017.56542969 402.448242188 1918.2109375 889.212890625 1698.00976562 1379.38867188 c 0
 1696.12695312 1383.58007812 1694.36425781 1387.94042969 1692.79882812 1392.29296875 c 2
 1692.79882812 1392.29296875 1119.00585938 2986.00976562 1119.12695312 2986.00585938 c 1
 1112.22265625 3005.18652344 1108.33886719 3025.86425781 1108.33886719 3047.41015625 c 0
 1108.33886719 3126.05566406 1158.47753906 3193.08691406 1228.51660156 3218.27929688 c 0
 1247.70410156 3225.18066406 1268.3203125 3229.00292969 1289.87304688 3229.00292969 c 0
 1292.79492188 3229.00292969 1295.70019531 3228.93359375 1298.58789062 3228.796875 c 0
2440 1229 m 1
 4240 1229 l 1
 4240 869 l 1
 2800 869 l 1
 2800 -211 l 1
 4240 -211 l 1
 4240 -571 l 1
 2440 -571 l 1
 2440 1229 l 1
EndSplineSet
Validated: 33
EndChar

StartChar: xwa.kata
Encoding: 12526 12526 77
Width: 2528
Flags: HW
LayerCount: 2
Fore
SplineSet
240 1741 m 1
 2288 1741 l 1
 2288 512.200195312 l 1
 649.599609375 512.200195312 l 1
 649.599609375 102.599609375 l 1
 2288 102.599609375 l 1
 2288 -307 l 1
 240 -307 l 1
 240 921.799804688 l 1
 649.599609375 921.799804688 l 1
 1878.40039062 921.799804688 l 1
 1878.40039062 1331.40039062 l 1
 240 1331.40039062 l 1
 240 1741 l 1
EndSplineSet
Validated: 1
EndChar

StartChar: wa.kata
Encoding: 12527 12527 78
Width: 4480
Flags: HW
LayerCount: 2
Fore
SplineSet
2440 -571 m 1
 2440 1229 l 1
 2800 1229 l 1
 2800 -211 l 1
 3880 -211 l 1
 3880 1229 l 1
 4240 1229 l 1
 4240 -571 l 1
 2440 -571 l 1
1289.04589844 3228.99707031 m 0
 1289.37011719 3228.99902344 1289.57617188 3229.19433594 1289.90039062 3229.19433594 c 0
 1354.03710938 3229.19433594 1409.71679688 3186.65332031 1437.28417969 3124.48046875 c 2
 1437.28417969 3124.48046875 2321.43261719 1130.19335938 2321.49414062 1130.27539062 c 1
 2333.24316406 1103.75878906 2339.81738281 1073.59082031 2339.81738281 1041.71386719 c 0
 2339.81738281 935.052734375 2265.52246094 848.45703125 2174.01171875 848.45703125 c 0
 2147.44726562 848.45703125 2122.33398438 855.75390625 2100.06738281 868.720703125 c 0
 1677.734375 1114.84765625 1260.43945312 1223.46777344 992.234375 1158.34082031 c 0
 858.131835938 1125.77734375 762.8515625 1059.81738281 691.842773438 946.016601562 c 0
 620.834960938 832.216796875 571.579101562 658.662109375 571.579101562 397.434570312 c 0
 571.579101562 136.20703125 620.834960938 -37.34765625 691.842773438 -151.1484375 c 0
 762.8515625 -264.94921875 858.131835938 -330.908203125 992.234375 -363.471679688 c 0
 1260.43945312 -428.59765625 1677.734375 -319.979492188 2100.06738281 -73.8525390625 c 0
 2122.34277344 -60.87109375 2147.53417969 -53.2646484375 2174.11425781 -53.2646484375 c 0
 2239.03613281 -53.2646484375 2295.29199219 -96.853515625 2322.49707031 -160.270507812 c 0
 2333.63476562 -186.234375 2340.16113281 -215.596679688 2340.16113281 -246.576171875 c 0
 2340.16113281 -322.24609375 2302.76367188 -387.81640625 2248.35351562 -419.525390625 c 0
 1786.47753906 -688.696289062 1319.55859375 -837.725585938 924.606445312 -741.822265625 c 0
 727.130859375 -693.870117188 546.095703125 -574.64453125 423.682617188 -378.4609375 c 0
 301.270507812 -182.27734375 240 78.951171875 240 397.434570312 c 0
 240 715.916992188 301.270507812 977.146484375 423.682617188 1173.33007812 c 0
 546.095703125 1369.51269531 727.130859375 1488.74023438 924.606445312 1536.69140625 c 0
 1196.1875 1602.63769531 1501.796875 1552.77050781 1816.39453125 1427.66503906 c 1
 1816.39453125 1427.66503906 1142.44921875 2947.12402344 1142.71582031 2947.04589844 c 1
 1130.95410156 2973.57226562 1124.04394531 3003.75195312 1124.04394531 3035.64648438 c 0
 1124.04394531 3110.40136719 1160.54199219 3175.29882812 1213.88378906 3207.4296875 c 0
 1236.37304688 3220.9765625 1262.04199219 3228.81542969 1289.04589844 3228.99707031 c 0
EndSplineSet
Validated: 33
EndChar

StartChar: wi.kata
Encoding: 12528 12528 79
Width: 4480
Flags: HW
LayerCount: 2
Fore
SplineSet
1289.04589844 3228.99707031 m 0
 1289.37011719 3228.99902344 1289.57617188 3229.19433594 1289.90039062 3229.19433594 c 0
 1354.03710938 3229.19433594 1409.71679688 3186.65332031 1437.28417969 3124.48046875 c 2
 1437.28417969 3124.48046875 2321.43261719 1130.19335938 2321.49414062 1130.27539062 c 1
 2333.24316406 1103.75878906 2339.81738281 1073.59082031 2339.81738281 1041.71386719 c 0
 2339.81738281 935.052734375 2265.52246094 848.45703125 2174.01171875 848.45703125 c 0
 2147.44726562 848.45703125 2122.33398438 855.75390625 2100.06738281 868.720703125 c 0
 1677.734375 1114.84765625 1260.43945312 1223.46777344 992.234375 1158.34082031 c 0
 858.131835938 1125.77734375 762.8515625 1059.81738281 691.842773438 946.016601562 c 0
 620.834960938 832.216796875 571.579101562 658.662109375 571.579101562 397.434570312 c 0
 571.579101562 136.20703125 620.834960938 -37.34765625 691.842773438 -151.1484375 c 0
 762.8515625 -264.94921875 858.131835938 -330.908203125 992.234375 -363.471679688 c 0
 1260.43945312 -428.59765625 1677.734375 -319.979492188 2100.06738281 -73.8525390625 c 0
 2122.34277344 -60.87109375 2147.53417969 -53.2646484375 2174.11425781 -53.2646484375 c 0
 2239.03613281 -53.2646484375 2295.29199219 -96.853515625 2322.49707031 -160.270507812 c 0
 2333.63476562 -186.234375 2340.16113281 -215.596679688 2340.16113281 -246.576171875 c 0
 2340.16113281 -322.24609375 2302.76367188 -387.81640625 2248.35351562 -419.525390625 c 0
 1786.47753906 -688.696289062 1319.55859375 -837.725585938 924.606445312 -741.822265625 c 0
 727.130859375 -693.870117188 546.095703125 -574.64453125 423.682617188 -378.4609375 c 0
 301.270507812 -182.27734375 240 78.951171875 240 397.434570312 c 0
 240 715.916992188 301.270507812 977.146484375 423.682617188 1173.33007812 c 0
 546.095703125 1369.51269531 727.130859375 1488.74023438 924.606445312 1536.69140625 c 0
 1196.1875 1602.63769531 1501.796875 1552.77050781 1816.39453125 1427.66503906 c 1
 1816.39453125 1427.66503906 1142.44921875 2947.12402344 1142.71582031 2947.04589844 c 1
 1130.95410156 2973.57226562 1124.04394531 3003.75195312 1124.04394531 3035.64648438 c 0
 1124.04394531 3110.40136719 1160.54199219 3175.29882812 1213.88378906 3207.4296875 c 0
 1236.37304688 3220.9765625 1262.04199219 3228.81542969 1289.04589844 3228.99707031 c 0
2440 -571 m 1
 2440 1229 l 1
 2800 1229 l 1
 2800 -211 l 1
 3160 -211 l 1
 3160 1229 l 1
 3520 1229 l 1
 3520 -211 l 1
 3880 -211 l 1
 3880 1229 l 1
 4240 1229 l 1
 4240 -571 l 1
 2440 -571 l 1
EndSplineSet
Validated: 33
EndChar

StartChar: we.kata
Encoding: 12529 12529 80
Width: 4480
Flags: HW
LayerCount: 2
Fore
SplineSet
1289.04589844 3228.99707031 m 0
 1289.37011719 3228.99902344 1289.57617188 3229.19433594 1289.90039062 3229.19433594 c 0
 1354.03710938 3229.19433594 1409.71679688 3186.65332031 1437.28417969 3124.48046875 c 2
 1437.28417969 3124.48046875 2321.43261719 1130.19335938 2321.49414062 1130.27539062 c 1
 2333.24316406 1103.75878906 2339.81738281 1073.59082031 2339.81738281 1041.71386719 c 0
 2339.81738281 935.052734375 2265.52246094 848.45703125 2174.01171875 848.45703125 c 0
 2147.44726562 848.45703125 2122.33398438 855.75390625 2100.06738281 868.720703125 c 0
 1677.734375 1114.84765625 1260.43945312 1223.46777344 992.234375 1158.34082031 c 0
 858.131835938 1125.77734375 762.8515625 1059.81738281 691.842773438 946.016601562 c 0
 620.834960938 832.216796875 571.579101562 658.662109375 571.579101562 397.434570312 c 0
 571.579101562 136.20703125 620.834960938 -37.34765625 691.842773438 -151.1484375 c 0
 762.8515625 -264.94921875 858.131835938 -330.908203125 992.234375 -363.471679688 c 0
 1260.43945312 -428.59765625 1677.734375 -319.979492188 2100.06738281 -73.8525390625 c 0
 2122.34277344 -60.87109375 2147.53417969 -53.2646484375 2174.11425781 -53.2646484375 c 0
 2239.03613281 -53.2646484375 2295.29199219 -96.853515625 2322.49707031 -160.270507812 c 0
 2333.63476562 -186.234375 2340.16113281 -215.596679688 2340.16113281 -246.576171875 c 0
 2340.16113281 -322.24609375 2302.76367188 -387.81640625 2248.35351562 -419.525390625 c 0
 1786.47753906 -688.696289062 1319.55859375 -837.725585938 924.606445312 -741.822265625 c 0
 727.130859375 -693.870117188 546.095703125 -574.64453125 423.682617188 -378.4609375 c 0
 301.270507812 -182.27734375 240 78.951171875 240 397.434570312 c 0
 240 715.916992188 301.270507812 977.146484375 423.682617188 1173.33007812 c 0
 546.095703125 1369.51269531 727.130859375 1488.74023438 924.606445312 1536.69140625 c 0
 1196.1875 1602.63769531 1501.796875 1552.77050781 1816.39453125 1427.66503906 c 1
 1816.39453125 1427.66503906 1142.44921875 2947.12402344 1142.71582031 2947.04589844 c 1
 1130.95410156 2973.57226562 1124.04394531 3003.75195312 1124.04394531 3035.64648438 c 0
 1124.04394531 3110.40136719 1160.54199219 3175.29882812 1213.88378906 3207.4296875 c 0
 1236.37304688 3220.9765625 1262.04199219 3228.81542969 1289.04589844 3228.99707031 c 0
2440 1229 m 1
 4240 1229 l 1
 4240 869 l 1
 2800 869 l 1
 2800 509 l 1
 4240 509 l 1
 4240 149 l 1
 2800 149 l 1
 2800 -211 l 1
 4240 -211 l 1
 4240 -571 l 1
 2440 -571 l 1
 2440 1229 l 1
EndSplineSet
Validated: 33
EndChar

StartChar: wo.kata
Encoding: 12530 12530 81
Width: 4480
Flags: HW
LayerCount: 2
Fore
SplineSet
2440 1229 m 1
 4240 1229 l 1
 4240 869 l 1
 2800 869 l 1
 2800 -211 l 1
 4240 -211 l 1
 4240 -571 l 1
 2800 -571 l 1
 2440 -571 l 1
 2440 1229 l 1
1289.04589844 3228.99707031 m 0
 1289.37011719 3228.99902344 1289.57617188 3229.19433594 1289.90039062 3229.19433594 c 0
 1354.03710938 3229.19433594 1409.71679688 3186.65332031 1437.28417969 3124.48046875 c 2
 1437.28417969 3124.48046875 2321.43261719 1130.19335938 2321.49414062 1130.27539062 c 1
 2333.24316406 1103.75878906 2339.81738281 1073.59082031 2339.81738281 1041.71386719 c 0
 2339.81738281 935.052734375 2265.52246094 848.45703125 2174.01171875 848.45703125 c 0
 2147.44726562 848.45703125 2122.33398438 855.75390625 2100.06738281 868.720703125 c 0
 1677.734375 1114.84765625 1260.43945312 1223.46777344 992.234375 1158.34082031 c 0
 858.131835938 1125.77734375 762.8515625 1059.81738281 691.842773438 946.016601562 c 0
 620.834960938 832.216796875 571.579101562 658.662109375 571.579101562 397.434570312 c 0
 571.579101562 136.20703125 620.834960938 -37.34765625 691.842773438 -151.1484375 c 0
 762.8515625 -264.94921875 858.131835938 -330.908203125 992.234375 -363.471679688 c 0
 1260.43945312 -428.59765625 1677.734375 -319.979492188 2100.06738281 -73.8525390625 c 0
 2122.34277344 -60.87109375 2147.53417969 -53.2646484375 2174.11425781 -53.2646484375 c 0
 2239.03613281 -53.2646484375 2295.29199219 -96.853515625 2322.49707031 -160.270507812 c 0
 2333.63476562 -186.234375 2340.16113281 -215.596679688 2340.16113281 -246.576171875 c 0
 2340.16113281 -322.24609375 2302.76367188 -387.81640625 2248.35351562 -419.525390625 c 0
 1786.47753906 -688.696289062 1319.55859375 -837.725585938 924.606445312 -741.822265625 c 0
 727.130859375 -693.870117188 546.095703125 -574.64453125 423.682617188 -378.4609375 c 0
 301.270507812 -182.27734375 240 78.951171875 240 397.434570312 c 0
 240 715.916992188 301.270507812 977.146484375 423.682617188 1173.33007812 c 0
 546.095703125 1369.51269531 727.130859375 1488.74023438 924.606445312 1536.69140625 c 0
 1196.1875 1602.63769531 1501.796875 1552.77050781 1816.39453125 1427.66503906 c 1
 1816.39453125 1427.66503906 1142.44921875 2947.12402344 1142.71582031 2947.04589844 c 1
 1130.95410156 2973.57226562 1124.04394531 3003.75195312 1124.04394531 3035.64648438 c 0
 1124.04394531 3110.40136719 1160.54199219 3175.29882812 1213.88378906 3207.4296875 c 0
 1236.37304688 3220.9765625 1262.04199219 3228.81542969 1289.04589844 3228.99707031 c 0
EndSplineSet
Validated: 33
EndChar

StartChar: nn.kata
Encoding: 12531 12531 82
Width: 2624
Flags: HW
LayerCount: 2
Fore
SplineSet
1097.75585938 -771 m 1
 240 1084.61132812 l 1
 240 3229 l 1
 1526.6328125 3229 l 1
 1526.6328125 1513.48925781 l 1
 1955.51074219 1513.48925781 l 1
 1955.51074219 3229 l 1
 2384.38867188 3229 l 1
 2384.38867188 1084.61132812 l 1
 1097.75585938 1084.61132812 l 1
 1097.75585938 2800.12207031 l 1
 668.877929688 2800.12207031 l 1
 668.877929688 1084.61132812 l 1
 1526.6328125 -771 l 1
 1097.75585938 -771 l 1
EndSplineSet
Validated: 1
EndChar

StartChar: vu.kata
Encoding: 12532 12532 83
Width: 4478
Flags: HW
LayerCount: 2
Fore
SplineSet
1289.99902344 3229 m 0
 1385.83984375 3229 1463.64941406 3143.59667969 1463.64941406 3038.40234375 c 2
 1463.64941406 1633.84570312 l 1
 1672.32519531 1610.45410156 1848.02929688 1543.19628906 1987.25 1432.06347656 c 0
 2163.54785156 1291.33300781 2270.68847656 1083.20898438 2313.78027344 856.18359375 c 0
 2399.96289062 402.133789062 2266.03808594 -134.651367188 2024.15039062 -665.640625 c 0
 1995.65625 -728.19140625 1936.66503906 -770.888671875 1868.6640625 -770.888671875 c 0
 1840.82421875 -770.888671875 1814.50585938 -763.682617188 1791.17480469 -750.877929688 c 0
 1734.18554688 -719.602539062 1695.28417969 -654.854492188 1695.28417969 -580.217773438 c 0
 1695.28417969 -549.66015625 1701.84960938 -520.7734375 1713.515625 -495.165039062 c 0
 1934.69433594 -9.63671875 2032.3046875 470.099609375 1973.77929688 778.4375 c 0
 1944.51660156 932.606445312 1885.2421875 1042.14355469 1782.9765625 1123.77734375 c 0
 1708.37304688 1183.32910156 1605.14648438 1229.54101562 1463.64941406 1250.20117188 c 1
 1463.64941406 54.9208984375 l 0
 1463.64941406 -50.2724609375 1385.83984375 -135.67578125 1289.99902344 -135.67578125 c 0
 1194.15917969 -135.67578125 1116.34960938 -50.2724609375 1116.34960938 54.9208984375 c 2
 1116.34960938 1250.20117188 l 1
 974.853515625 1229.54101562 871.626953125 1183.32910156 797.0234375 1123.77734375 c 0
 694.7578125 1042.14355469 635.483398438 932.606445312 606.220703125 778.4375 c 0
 547.6953125 470.099609375 645.3046875 -9.63671875 866.483398438 -495.165039062 c 0
 878.149414062 -520.7734375 884.984375 -549.734375 884.984375 -580.291015625 c 0
 884.984375 -654.927734375 845.813476562 -719.602539062 788.82421875 -750.877929688 c 0
 765.493164062 -763.682617188 739.106445312 -771.184570312 711.267578125 -771.184570312 c 0
 643.266601562 -771.184570312 584.342773438 -728.19140625 555.848632812 -665.640625 c 0
 313.9609375 -134.651367188 180.037109375 402.133789062 266.220703125 856.18359375 c 0
 309.311523438 1083.20898438 416.452148438 1291.33300781 592.75 1432.06347656 c 0
 731.970703125 1543.1953125 907.673828125 1610.45410156 1116.34960938 1633.84570312 c 1
 1116.34960938 3038.40234375 l 1
 1116.34960938 3143.59667969 1194.15917969 3229 1289.99902344 3229 c 0
4240 1229 m 1
 4240 -571 l 1
 3880 -571 l 1
 3880 869 l 1
 2800 869 l 1
 2800 -571 l 1
 2440 -571 l 1
 2440 1229 l 1
 4240 1229 l 1
EndSplineSet
Validated: 33
Ligature2: "'liga' Cuneiform-Kata" u.kata ddot.kana
EndChar

StartChar: va.kata
Encoding: 12535 12535 84
Width: 4478
Flags: HW
LayerCount: 2
Fore
SplineSet
1289.99902344 3229 m 0
 1385.83984375 3229 1463.64941406 3143.59667969 1463.64941406 3038.40234375 c 2
 1463.64941406 1633.84570312 l 1
 1672.32519531 1610.45410156 1848.02929688 1543.19628906 1987.25 1432.06347656 c 0
 2163.54785156 1291.33300781 2270.68847656 1083.20898438 2313.78027344 856.18359375 c 0
 2399.96289062 402.133789062 2266.03808594 -134.651367188 2024.15039062 -665.640625 c 0
 1995.65625 -728.19140625 1936.66503906 -770.888671875 1868.6640625 -770.888671875 c 0
 1840.82421875 -770.888671875 1814.50585938 -763.682617188 1791.17480469 -750.877929688 c 0
 1734.18554688 -719.602539062 1695.28417969 -654.854492188 1695.28417969 -580.217773438 c 0
 1695.28417969 -549.66015625 1701.84960938 -520.7734375 1713.515625 -495.165039062 c 0
 1934.69433594 -9.63671875 2032.3046875 470.099609375 1973.77929688 778.4375 c 0
 1944.51660156 932.606445312 1885.2421875 1042.14355469 1782.9765625 1123.77734375 c 0
 1708.37304688 1183.32910156 1605.14648438 1229.54101562 1463.64941406 1250.20117188 c 1
 1463.64941406 54.9208984375 l 0
 1463.64941406 -50.2724609375 1385.83984375 -135.67578125 1289.99902344 -135.67578125 c 0
 1194.15917969 -135.67578125 1116.34960938 -50.2724609375 1116.34960938 54.9208984375 c 2
 1116.34960938 1250.20117188 l 1
 974.853515625 1229.54101562 871.626953125 1183.32910156 797.0234375 1123.77734375 c 0
 694.7578125 1042.14355469 635.483398438 932.606445312 606.220703125 778.4375 c 0
 547.6953125 470.099609375 645.3046875 -9.63671875 866.483398438 -495.165039062 c 0
 878.149414062 -520.7734375 884.984375 -549.734375 884.984375 -580.291015625 c 0
 884.984375 -654.927734375 845.813476562 -719.602539062 788.82421875 -750.877929688 c 0
 765.493164062 -763.682617188 739.106445312 -771.184570312 711.267578125 -771.184570312 c 0
 643.266601562 -771.184570312 584.342773438 -728.19140625 555.848632812 -665.640625 c 0
 313.9609375 -134.651367188 180.037109375 402.133789062 266.220703125 856.18359375 c 0
 309.311523438 1083.20898438 416.452148438 1291.33300781 592.75 1432.06347656 c 0
 731.970703125 1543.1953125 907.673828125 1610.45410156 1116.34960938 1633.84570312 c 1
 1116.34960938 3038.40234375 l 1
 1116.34960938 3143.59667969 1194.15917969 3229 1289.99902344 3229 c 0
2440 -571 m 1
 2440 1229 l 1
 2800 1229 l 1
 2800 -211 l 1
 3880 -211 l 1
 3880 1229 l 1
 4240 1229 l 1
 4240 -571 l 1
 2440 -571 l 1
EndSplineSet
Validated: 33
Ligature2: "'liga' Cuneiform-Kata" vu.kata xa.kata
EndChar

